<svg width="237" height="263" viewBox="0 0 237 263" fill="none" xmlns="http://www.w3.org/2000/svg">
<path d="M118.395 144V3.2002L220.795 54.4002L118.395 105.6M227.976 108.442C234.787 129.436 235.425 151.944 229.812 173.29C224.199 194.635 212.573 213.919 196.316 228.847C180.059 243.775 159.856 253.719 138.11 257.496C116.364 261.272 93.9917 258.722 73.6535 250.149C53.3153 241.576 35.8678 227.342 23.387 209.138C10.9061 190.935 3.91713 169.529 3.25162 147.468C2.5861 125.407 8.27203 103.619 19.6329 84.6963C30.9938 65.7737 47.5515 50.513 67.3359 40.7298M67.2207 105.562C60.8067 114.1 56.631 124.107 55.0741 134.671C53.5172 145.236 54.6285 156.022 58.3068 166.048C61.9852 176.073 68.1136 185.018 76.1337 192.069C84.1539 199.12 93.8108 204.051 104.225 206.415C114.639 208.779 125.478 208.499 135.756 205.601C146.034 202.704 155.424 197.28 163.07 189.825C170.716 182.37 176.374 173.121 179.531 162.919C182.687 152.717 183.241 141.888 181.141 131.418" stroke="#B1EBE0" stroke-width="6.4" stroke-linecap="round" stroke-linejoin="round"/>
</svg>
