<svg width="100" height="100" viewBox="0 0 100 100" fill="none" xmlns="http://www.w3.org/2000/svg">
<path d="M32.958 66.0806H1.41797V34.1006H32.958V39.3206H30.218V36.8606H4.17797V63.3206H30.218V60.9206H32.958V66.0806Z" fill="#FEFEFE"/>
<path d="M26.182 43.0615V57.8015H22.502V52.2615H16.762V57.8015H13.082V43.0615H16.762V48.5615L22.482 48.5815V43.0615H26.182Z" fill="#FEFEFE"/>
<path d="M60.9372 43.0615V46.7415L49.9972 46.7215V48.6615L60.9372 48.6415V52.3215L49.9972 52.2415V57.8015H46.1172V43.0615H60.9372Z" fill="#FEFEFE"/>
<path d="M43.4997 43.0615V46.7415L32.5597 46.7215V48.6615L43.4997 48.6415V52.3215L32.5597 52.2415V57.8015H28.6797V43.0615H43.4997Z" fill="#FEFEFE"/>
<path d="M78.1394 43.0615V46.7815L72.6594 46.8015V57.8015H68.7794V46.7615H63.3594V43.0615H78.1394Z" fill="#FEFEFE"/>
<path d="M43.4822 54.2422H30.7422V57.8022H43.4822V54.2422Z" fill="#FEFEFE"/>
<path d="M38.0453 62.4666V62.7694H37.0324V66.1162H36.667V62.7694H35.6488V62.4666H38.0453ZM41.2017 64.5446C41.2017 64.6699 41.1982 64.7657 41.1913 64.8318H38.8261C38.8365 65.0476 38.8887 65.2321 38.9827 65.3852C39.0767 65.5384 39.2003 65.655 39.3534 65.7351C39.5066 65.8116 39.6736 65.8499 39.8546 65.8499C40.0913 65.8499 40.2897 65.7925 40.4499 65.6776C40.6135 65.5628 40.7214 65.4079 40.7736 65.2129H41.1599C41.0903 65.4914 40.9407 65.7194 40.7109 65.8969C40.4847 66.071 40.1992 66.158 39.8546 66.158C39.5866 66.158 39.3465 66.0988 39.1341 65.9805C38.9218 65.8586 38.7547 65.6881 38.6329 65.4688C38.5145 65.246 38.4554 64.9867 38.4554 64.6908C38.4554 64.395 38.5145 64.1356 38.6329 63.9129C38.7512 63.6901 38.9166 63.5195 39.1289 63.4012C39.3412 63.2829 39.5831 63.2237 39.8546 63.2237C40.1261 63.2237 40.3628 63.2829 40.5647 63.4012C40.7701 63.5195 40.9267 63.6797 41.0346 63.8815C41.146 64.08 41.2017 64.301 41.2017 64.5446ZM40.831 64.5342C40.8345 64.3219 40.791 64.1409 40.7005 63.9912C40.6135 63.8415 40.4934 63.7284 40.3402 63.6518C40.1871 63.5752 40.02 63.5369 39.839 63.5369C39.5675 63.5369 39.336 63.624 39.1446 63.798C38.9531 63.972 38.847 64.2174 38.8261 64.5342H40.831ZM42.852 66.158C42.5248 66.158 42.2568 66.0831 42.0479 65.9335C41.8425 65.7803 41.7277 65.5732 41.7033 65.3121H42.0792C42.0966 65.4723 42.1715 65.6028 42.3037 65.7037C42.4395 65.8012 42.6205 65.8499 42.8468 65.8499C43.0452 65.8499 43.2 65.8029 43.3114 65.709C43.4263 65.615 43.4837 65.4984 43.4837 65.3591C43.4837 65.2617 43.4524 65.1816 43.3898 65.119C43.3271 65.0563 43.247 65.0076 43.1496 64.9728C43.0556 64.9345 42.9268 64.8945 42.7632 64.8527C42.5509 64.797 42.3786 64.7413 42.2463 64.6856C42.114 64.6299 42.0009 64.5481 41.9069 64.4402C41.8164 64.3288 41.7712 64.1809 41.7712 63.9964C41.7712 63.8572 41.813 63.7284 41.8965 63.61C41.98 63.4917 42.0984 63.3977 42.2515 63.3281C42.4047 63.2585 42.5787 63.2237 42.7737 63.2237C43.08 63.2237 43.3271 63.302 43.5151 63.4586C43.703 63.6118 43.804 63.8241 43.8179 64.0956H43.4524C43.442 63.9285 43.3758 63.7945 43.254 63.6936C43.1357 63.5892 42.9721 63.5369 42.7632 63.5369C42.5787 63.5369 42.4291 63.5805 42.3142 63.6675C42.1993 63.7545 42.1419 63.8624 42.1419 63.9912C42.1419 64.1026 42.175 64.1948 42.2411 64.2679C42.3107 64.3375 42.396 64.3932 42.4969 64.435C42.5979 64.4733 42.7336 64.5168 42.9042 64.5655C43.1095 64.6212 43.2731 64.6752 43.395 64.7274C43.5168 64.7796 43.6212 64.8562 43.7082 64.9571C43.7953 65.0581 43.8405 65.1921 43.844 65.3591C43.844 65.5123 43.8022 65.6498 43.7187 65.7716C43.6351 65.89 43.5185 65.9839 43.3689 66.0536C43.2192 66.1232 43.0469 66.158 42.852 66.158ZM45.0071 63.5735V65.3435C45.0071 65.5175 45.0402 65.6376 45.1063 65.7037C45.1724 65.7699 45.289 65.8029 45.4561 65.8029H45.7903V66.1162H45.3987C45.1411 66.1162 44.9497 66.057 44.8244 65.9387C44.699 65.8169 44.6364 65.6185 44.6364 65.3435V63.5735H44.2396V63.2654H44.6364V62.5501H45.0071V63.2654H45.7903V63.5735H45.0071ZM46.5758 62.7277C46.5027 62.7277 46.44 62.7016 46.3878 62.6493C46.3356 62.5971 46.3095 62.5327 46.3095 62.4562C46.3095 62.3796 46.3356 62.3169 46.3878 62.2682C46.44 62.216 46.5027 62.1899 46.5758 62.1899C46.6489 62.1899 46.7115 62.216 46.7637 62.2682C46.8159 62.3169 46.8421 62.3796 46.8421 62.4562C46.8421 62.5327 46.8159 62.5971 46.7637 62.6493C46.7115 62.7016 46.6489 62.7277 46.5758 62.7277ZM46.7585 63.2654V66.1162H46.393V63.2654H46.7585ZM48.9228 63.2132C49.2639 63.2132 49.5424 63.3194 49.7582 63.5317C49.974 63.7406 50.0819 64.0451 50.0819 64.4454V66.1162H49.7216V64.4872C49.7216 64.1774 49.6433 63.9407 49.4867 63.7771C49.3335 63.6135 49.1229 63.5317 48.8549 63.5317C48.5799 63.5317 48.3606 63.6187 48.197 63.7928C48.0334 63.9668 47.9516 64.2227 47.9516 64.5603V66.1162H47.5862V63.2654H47.9516V63.751C48.0421 63.577 48.1727 63.4447 48.3432 63.3542C48.5138 63.2602 48.707 63.2132 48.9228 63.2132ZM52.0858 63.2237C52.3539 63.2237 52.5871 63.2863 52.7855 63.4116C52.9839 63.5369 53.1266 63.6953 53.2136 63.8868V63.2654H53.5791V66.1893C53.5791 66.4504 53.5217 66.6818 53.4068 66.8837C53.2954 67.0856 53.1388 67.2405 52.9369 67.3484C52.735 67.4598 52.5053 67.5155 52.2477 67.5155C51.8822 67.5155 51.5776 67.4285 51.334 67.2544C51.0938 67.0804 50.9441 66.8437 50.885 66.5443H51.2452C51.3079 66.7428 51.4262 66.9011 51.6003 67.0195C51.7778 67.1378 51.9936 67.197 52.2477 67.197C52.4322 67.197 52.5975 67.157 52.7437 67.0769C52.8899 67.0003 53.0048 66.8855 53.0883 66.7323C53.1718 66.5792 53.2136 66.3982 53.2136 66.1893V65.4844C53.1231 65.6794 52.9787 65.8412 52.7802 65.97C52.5853 66.0953 52.3539 66.158 52.0858 66.158C51.8248 66.158 51.5898 66.0971 51.381 65.9752C51.1756 65.8534 51.0137 65.6811 50.8954 65.4583C50.7805 65.2356 50.7231 64.978 50.7231 64.6856C50.7231 64.3932 50.7805 64.1374 50.8954 63.9181C51.0137 63.6953 51.1756 63.5248 51.381 63.4064C51.5898 63.2846 51.8248 63.2237 52.0858 63.2237ZM53.2136 64.6908C53.2136 64.4611 53.1666 64.2592 53.0726 64.0852C52.9787 63.9111 52.8499 63.7771 52.6863 63.6831C52.5262 63.5892 52.3486 63.5422 52.1537 63.5422C51.9518 63.5422 51.7708 63.5874 51.6107 63.6779C51.4506 63.7684 51.3235 63.9007 51.2296 64.0747C51.1391 64.2453 51.0938 64.4489 51.0938 64.6856C51.0938 64.9188 51.1391 65.1242 51.2296 65.3017C51.3235 65.4757 51.4506 65.6098 51.6107 65.7037C51.7708 65.7942 51.9518 65.8395 52.1537 65.8395C52.3486 65.8395 52.5262 65.7925 52.6863 65.6985C52.8499 65.6045 52.9787 65.4705 53.0726 65.2965C53.1666 65.1224 53.2136 64.9206 53.2136 64.6908ZM58.1801 63.5161C58.1801 63.8293 58.0774 64.0817 57.872 64.2731C57.6667 64.4646 57.3586 64.5603 56.9479 64.5603H56.2117V66.1162H55.8462V62.4666H56.9479C57.3551 62.4666 57.6615 62.5623 57.8668 62.7538C58.0757 62.9452 58.1801 63.1993 58.1801 63.5161ZM56.9479 64.247C57.5187 64.247 57.8042 64.0034 57.8042 63.5161C57.8042 63.2724 57.7363 63.0879 57.6005 62.9626C57.4648 62.8373 57.2472 62.7747 56.9479 62.7747H56.2117V64.247H56.9479ZM59.1588 63.7719C59.2389 63.5944 59.3607 63.4569 59.5243 63.3594C59.6914 63.262 59.895 63.2132 60.1352 63.2132V63.5944H60.036C59.7714 63.5944 59.5591 63.6657 59.399 63.8084C59.2389 63.9512 59.1588 64.1896 59.1588 64.5238V66.1162H58.7933V63.2654H59.1588V63.7719ZM60.8677 62.7277C60.7946 62.7277 60.732 62.7016 60.6798 62.6493C60.6276 62.5971 60.6015 62.5327 60.6015 62.4562C60.6015 62.3796 60.6276 62.3169 60.6798 62.2682C60.732 62.216 60.7946 62.1899 60.8677 62.1899C60.9408 62.1899 61.0035 62.216 61.0557 62.2682C61.1079 62.3169 61.134 62.3796 61.134 62.4562C61.134 62.5327 61.1079 62.5971 61.0557 62.6493C61.0035 62.7016 60.9408 62.7277 60.8677 62.7277ZM61.0505 63.2654V66.1162H60.685V63.2654H61.0505ZM62.891 65.7612L63.8517 63.2654H64.2381L63.0947 66.1162H62.6822L61.5387 63.2654H61.9303L62.891 65.7612ZM64.5664 64.6856C64.5664 64.3932 64.6238 64.1374 64.7387 63.9181C64.857 63.6953 65.0189 63.5248 65.2242 63.4064C65.4331 63.2846 65.668 63.2237 65.9291 63.2237C66.2006 63.2237 66.4338 63.2863 66.6287 63.4116C66.8271 63.5369 66.9699 63.6971 67.0569 63.892V63.2654H67.4224V66.1162H67.0569V65.4844C66.9664 65.6794 66.8219 65.8412 66.6235 65.97C66.4286 66.0953 66.1954 66.158 65.9239 66.158C65.6663 66.158 65.4331 66.0971 65.2242 65.9752C65.0189 65.8534 64.857 65.6811 64.7387 65.4583C64.6238 65.2356 64.5664 64.978 64.5664 64.6856ZM67.0569 64.6908C67.0569 64.4611 67.0099 64.2592 66.9159 64.0852C66.8219 63.9111 66.6931 63.7771 66.5295 63.6831C66.3694 63.5892 66.1919 63.5422 65.997 63.5422C65.7951 63.5422 65.6141 63.5874 65.454 63.6779C65.2939 63.7684 65.1668 63.9007 65.0728 64.0747C64.9823 64.2453 64.9371 64.4489 64.9371 64.6856C64.9371 64.9188 64.9823 65.1242 65.0728 65.3017C65.1668 65.4757 65.2939 65.6098 65.454 65.7037C65.6141 65.7942 65.7951 65.8395 65.997 65.8395C66.1919 65.8395 66.3694 65.7925 66.5295 65.6985C66.6931 65.6045 66.8219 65.4705 66.9159 65.2965C67.0099 65.1224 67.0569 64.9206 67.0569 64.6908ZM68.7319 63.5735V65.3435C68.7319 65.5175 68.7649 65.6376 68.8311 65.7037C68.8972 65.7699 69.0138 65.8029 69.1809 65.8029H69.515V66.1162H69.1234C68.8659 66.1162 68.6744 66.057 68.5491 65.9387C68.4238 65.8169 68.3611 65.6185 68.3611 65.3435V63.5735H67.9643V63.2654H68.3611V62.5501H68.7319V63.2654H69.515V63.5735H68.7319ZM72.6971 64.5446C72.6971 64.6699 72.6936 64.7657 72.6866 64.8318H70.3214C70.3319 65.0476 70.3841 65.2321 70.4781 65.3852C70.572 65.5384 70.6956 65.655 70.8488 65.7351C71.0019 65.8116 71.169 65.8499 71.35 65.8499C71.5867 65.8499 71.7851 65.7925 71.9452 65.6776C72.1088 65.5628 72.2167 65.4079 72.2689 65.2129H72.6553C72.5857 65.4914 72.436 65.7194 72.2063 65.8969C71.98 66.071 71.6946 66.158 71.35 66.158C71.082 66.158 70.8418 66.0988 70.6295 65.9805C70.4171 65.8586 70.2501 65.6881 70.1282 65.4688C70.0099 65.246 69.9507 64.9867 69.9507 64.6908C69.9507 64.395 70.0099 64.1356 70.1282 63.9129C70.2466 63.6901 70.4119 63.5195 70.6242 63.4012C70.8366 63.2829 71.0785 63.2237 71.35 63.2237C71.6215 63.2237 71.8582 63.2829 72.0601 63.4012C72.2654 63.5195 72.4221 63.6797 72.53 63.8815C72.6414 64.08 72.6971 64.301 72.6971 64.5446ZM72.3263 64.5342C72.3298 64.3219 72.2863 64.1409 72.1958 63.9912C72.1088 63.8415 71.9887 63.7284 71.8356 63.6518C71.6824 63.5752 71.5153 63.5369 71.3343 63.5369C71.0628 63.5369 70.8314 63.624 70.6399 63.798C70.4485 63.972 70.3423 64.2174 70.3214 64.5342H72.3263ZM75.164 65.8186H76.4745V66.1162H74.7985V62.4666H75.164V65.8186ZM77.1788 62.7277C77.1057 62.7277 77.0431 62.7016 76.9909 62.6493C76.9386 62.5971 76.9125 62.5327 76.9125 62.4562C76.9125 62.3796 76.9386 62.3169 76.9909 62.2682C77.0431 62.216 77.1057 62.1899 77.1788 62.1899C77.2519 62.1899 77.3146 62.216 77.3668 62.2682C77.419 62.3169 77.4451 62.3796 77.4451 62.4562C77.4451 62.5327 77.419 62.5971 77.3668 62.6493C77.3146 62.7016 77.2519 62.7277 77.1788 62.7277ZM77.3616 63.2654V66.1162H76.9961V63.2654H77.3616ZM81.583 63.2132C81.9171 63.2132 82.1886 63.3194 82.3975 63.5317C82.6098 63.7406 82.716 64.0451 82.716 64.4454V66.1162H82.3557V64.4872C82.3557 64.1774 82.2809 63.9407 82.1312 63.7771C81.9815 63.6135 81.7779 63.5317 81.5203 63.5317C81.2523 63.5317 81.0382 63.6205 80.8781 63.798C80.718 63.9755 80.6379 64.2331 80.6379 64.5707V66.1162H80.2777V64.4872C80.2777 64.1774 80.2028 63.9407 80.0532 63.7771C79.9035 63.6135 79.6981 63.5317 79.4371 63.5317C79.169 63.5317 78.955 63.6205 78.7949 63.798C78.6347 63.9755 78.5547 64.2331 78.5547 64.5707V66.1162H78.1892V63.2654H78.5547V63.7562C78.6452 63.5787 78.774 63.4447 78.9411 63.3542C79.1081 63.2602 79.2944 63.2132 79.4997 63.2132C79.7469 63.2132 79.9627 63.2724 80.1471 63.3908C80.3351 63.5091 80.4709 63.6831 80.5544 63.9129C80.631 63.6866 80.7615 63.5143 80.946 63.396C81.1339 63.2741 81.3463 63.2132 81.583 63.2132ZM83.7104 62.7277C83.6373 62.7277 83.5746 62.7016 83.5224 62.6493C83.4702 62.5971 83.4441 62.5327 83.4441 62.4562C83.4441 62.3796 83.4702 62.3169 83.5224 62.2682C83.5746 62.216 83.6373 62.1899 83.7104 62.1899C83.7835 62.1899 83.8461 62.216 83.8984 62.2682C83.9506 62.3169 83.9767 62.3796 83.9767 62.4562C83.9767 62.5327 83.9506 62.5971 83.8984 62.6493C83.8461 62.7016 83.7835 62.7277 83.7104 62.7277ZM83.8931 63.2654V66.1162H83.5277V63.2654H83.8931ZM85.1959 63.5735V65.3435C85.1959 65.5175 85.229 65.6376 85.2951 65.7037C85.3612 65.7699 85.4778 65.8029 85.6449 65.8029H85.9791V66.1162H85.5875C85.3299 66.1162 85.1385 66.057 85.0132 65.9387C84.8879 65.8169 84.8252 65.6185 84.8252 65.3435V63.5735H84.4284V63.2654H84.8252V62.5501H85.1959V63.2654H85.9791V63.5735H85.1959ZM89.1611 64.5446C89.1611 64.6699 89.1576 64.7657 89.1507 64.8318H86.7855C86.7959 65.0476 86.8481 65.2321 86.9421 65.3852C87.0361 65.5384 87.1597 65.655 87.3128 65.7351C87.466 65.8116 87.633 65.8499 87.814 65.8499C88.0507 65.8499 88.2491 65.7925 88.4093 65.6776C88.5729 65.5628 88.6808 65.4079 88.733 65.2129H89.1193C89.0497 65.4914 88.9 65.7194 88.6703 65.8969C88.4441 66.071 88.1586 66.158 87.814 66.158C87.546 66.158 87.3058 66.0988 87.0935 65.9805C86.8812 65.8586 86.7141 65.6881 86.5923 65.4688C86.4739 65.246 86.4148 64.9867 86.4148 64.6908C86.4148 64.395 86.4739 64.1356 86.5923 63.9129C86.7106 63.6901 86.876 63.5195 87.0883 63.4012C87.3006 63.2829 87.5425 63.2237 87.814 63.2237C88.0855 63.2237 88.3222 63.2829 88.5241 63.4012C88.7295 63.5195 88.8861 63.6797 88.994 63.8815C89.1054 64.08 89.1611 64.301 89.1611 64.5446ZM88.7904 64.5342C88.7939 64.3219 88.7504 64.1409 88.6599 63.9912C88.5729 63.8415 88.4528 63.7284 88.2996 63.6518C88.1465 63.5752 87.9794 63.5369 87.7984 63.5369C87.5269 63.5369 87.2954 63.624 87.104 63.798C86.9125 63.972 86.8064 64.2174 86.7855 64.5342H88.7904ZM89.6627 64.6856C89.6627 64.3932 89.7219 64.1374 89.8402 63.9181C89.9586 63.6953 90.1204 63.5248 90.3258 63.4064C90.5346 63.2846 90.7696 63.2237 91.0307 63.2237C91.2813 63.2237 91.5075 63.2846 91.7094 63.4064C91.9113 63.5282 92.0592 63.6866 92.1532 63.8815V62.2525H92.5187V66.1162H92.1532V65.4792C92.0662 65.6776 91.9235 65.8412 91.7251 65.97C91.5267 66.0953 91.2935 66.158 91.0254 66.158C90.7644 66.158 90.5294 66.0971 90.3206 65.9752C90.1152 65.8534 89.9533 65.6811 89.835 65.4583C89.7201 65.2356 89.6627 64.978 89.6627 64.6856ZM92.1532 64.6908C92.1532 64.4611 92.1062 64.2592 92.0122 64.0852C91.9183 63.9111 91.7895 63.7771 91.6259 63.6831C91.4658 63.5892 91.2882 63.5422 91.0933 63.5422C90.8914 63.5422 90.7104 63.5874 90.5503 63.6779C90.3902 63.7684 90.2631 63.9007 90.1692 64.0747C90.0787 64.2453 90.0334 64.4489 90.0334 64.6856C90.0334 64.9188 90.0787 65.1242 90.1692 65.3017C90.2631 65.4757 90.3902 65.6098 90.5503 65.7037C90.7104 65.7942 90.8914 65.8395 91.0933 65.8395C91.2882 65.8395 91.4658 65.7925 91.6259 65.6985C91.7895 65.6045 91.9183 65.4705 92.0122 65.2965C92.1062 65.1224 92.1532 64.9206 92.1532 64.6908Z" fill="#FEFEFE"/>
</svg>
