<svg width="100" height="100" viewBox="0 0 100 100" fill="none" xmlns="http://www.w3.org/2000/svg">
<mask id="mask0_427_735" style="mask-type:luminance" maskUnits="userSpaceOnUse" x="0" y="54" width="7" height="7">
<path d="M5.97984 54.7559L6.83984 56.0359L0.839844 60.6159L5.97984 54.7559Z" fill="white"/>
</mask>
<g mask="url(#mask0_427_735)">
<path d="M5.97984 54.8975L6.97984 55.9575L0.839844 60.6175L5.97984 54.8975Z" fill="#FEFEFE"/>
</g>
<mask id="mask1_427_735" style="mask-type:luminance" maskUnits="userSpaceOnUse" x="0" y="54" width="7" height="7">
<path d="M5.97984 54.7559L6.83984 56.0359L0.839844 60.6159L5.97984 54.7559Z" fill="white"/>
</mask>
<g mask="url(#mask1_427_735)">
<path d="M5.54 54.3379L6.7 55.3779L0.5 60.9579L5.54 54.3379Z" fill="#FEFEFE"/>
</g>
<mask id="mask2_427_735" style="mask-type:luminance" maskUnits="userSpaceOnUse" x="4" y="35" width="19" height="18">
<path d="M4.78125 38.0943C4.78125 38.0943 15.8812 32.6743 20.5812 36.8343C20.5812 36.8343 25.2212 40.8343 18.4412 47.1143L12.0413 52.2542L11.8012 51.9943C11.3612 51.5143 11.0412 50.9543 10.8412 50.3343C10.8412 50.3343 22.1412 35.2743 4.78125 38.0943Z" fill="white"/>
</mask>
<g mask="url(#mask2_427_735)">
<path d="M4.78125 38.0952C4.78125 38.0952 15.8812 32.6752 20.5812 36.8352C20.5812 36.8352 25.2212 40.8352 18.4412 47.1152L12.0413 52.2552L11.6012 51.7152C11.3412 51.3952 11.1212 51.0352 10.9612 50.6352L10.8412 50.3352C10.8412 50.3352 22.1412 35.2752 4.78125 38.0952Z" fill="#FEFEFE"/>
</g>
<mask id="mask3_427_735" style="mask-type:luminance" maskUnits="userSpaceOnUse" x="4" y="35" width="19" height="18">
<path d="M4.78125 38.0943C4.78125 38.0943 15.8812 32.6743 20.5812 36.8343C20.5812 36.8343 25.2212 40.8343 18.4412 47.1143L12.0413 52.2542L11.8012 51.9943C11.3612 51.5143 11.0412 50.9543 10.8412 50.3343C10.8412 50.3343 22.1412 35.2743 4.78125 38.0943Z" fill="white"/>
</mask>
<g mask="url(#mask3_427_735)">
<path d="M0.660156 39.6958C0.660156 39.6958 11.7602 34.2758 16.4602 38.4358C16.4602 38.4358 21.1002 42.4358 14.3202 48.7158L7.92016 53.8558L6.72016 51.9358C6.72016 51.9558 18.0202 36.8758 0.660156 39.6958Z" fill="#FEFEFE"/>
</g>
<mask id="mask4_427_735" style="mask-type:luminance" maskUnits="userSpaceOnUse" x="5" y="45" width="22" height="17">
<path d="M11.7188 45.1543C11.7188 45.1543 7.27882 48.6943 12.5988 53.4943C18.1988 58.5743 26.5988 60.9743 26.5988 60.9743C26.5988 60.9743 16.2988 64.5343 8.11882 57.0943C6.37882 55.5143 5.41882 53.2143 5.67882 50.8743C5.89882 48.5943 7.25882 46.0743 11.7188 45.1543Z" fill="white"/>
</mask>
<g mask="url(#mask4_427_735)">
<path d="M11.7188 45.1553C11.7188 45.1553 7.27882 48.6953 12.5988 53.4953C18.1988 58.5753 26.5988 60.9753 26.5988 60.9753C26.5988 60.9753 16.2988 64.5353 8.11882 57.0953C6.37882 55.5153 5.41882 53.2153 5.67882 50.8753C5.89882 48.5953 7.25882 46.0753 11.7188 45.1553Z" fill="#FEFEFE"/>
</g>
<mask id="mask5_427_735" style="mask-type:luminance" maskUnits="userSpaceOnUse" x="5" y="45" width="22" height="17">
<path d="M11.7188 45.1543C11.7188 45.1543 7.27882 48.6943 12.5988 53.4943C18.1988 58.5743 26.5988 60.9743 26.5988 60.9743C26.5988 60.9743 16.2988 64.5343 8.11882 57.0943C6.37882 55.5143 5.41882 53.2143 5.67882 50.8743C5.89882 48.5943 7.25882 46.0743 11.7188 45.1543Z" fill="white"/>
</mask>
<g mask="url(#mask5_427_735)">
<path d="M14.3595 44.2959C14.3595 44.2959 9.91945 47.8359 15.2394 52.6359C20.8394 57.7159 29.2394 60.1159 29.2394 60.1159C29.2394 60.1159 18.9395 63.6759 10.7594 56.2359C9.01945 54.6559 8.05945 52.3559 8.31945 50.0159C8.55945 47.7359 9.89945 45.2159 14.3595 44.2959Z" fill="#FEFEFE"/>
</g>
<path d="M34.66 57.7384V51.2384C34.66 50.0384 34.1 49.4384 33 49.4384H32.02V57.7384H27.5V42.2984C27.5 41.5584 27.64 40.9384 27.94 40.4184C28.24 39.8984 28.64 39.4984 29.16 39.1984C29.68 38.8984 30.3 38.6784 31.02 38.5584C31.74 38.4184 32.5 38.3584 33.34 38.3584C34.16 38.3584 34.9 38.4184 35.56 38.5584C36.22 38.6984 36.82 38.9184 37.3 39.2184C37.8 39.5184 38.18 39.9384 38.46 40.4384C38.74 40.9384 38.86 41.5784 38.86 42.3184V45.3784C38.86 46.2784 38.62 46.9584 38.12 47.4584C37.62 47.9384 36.8 48.2384 35.66 48.3184C36.8 48.4184 37.64 48.6984 38.18 49.1184C38.72 49.5384 38.98 50.1184 38.98 50.8584V57.7384H34.66ZM34.66 41.9184C34.66 41.1184 34.22 40.7384 33.34 40.7384C32.46 40.7384 32.02 41.1384 32.02 41.9184V47.2984H33C33.52 47.2984 33.94 47.1784 34.22 46.9184C34.52 46.6584 34.66 46.2384 34.66 45.6184V41.9184Z" fill="#FEFEFE"/>
<path d="M47.9608 57.7398V50.2798H45.3208V57.7398H40.8008V42.0198C40.8008 41.4598 40.9408 40.9398 41.2608 40.4798C41.5608 40.0198 41.9808 39.6398 42.5008 39.3198C43.0208 38.9998 43.6408 38.7598 44.3608 38.5998C45.0808 38.4398 45.8408 38.3398 46.6808 38.3398C47.5008 38.3398 48.2608 38.4198 48.9608 38.5998C49.6608 38.7598 50.2808 38.9998 50.8008 39.3198C51.3208 39.6398 51.7408 40.0198 52.0408 40.4798C52.3408 40.9398 52.5008 41.4398 52.5008 42.0198V57.7398H47.9608ZM47.9608 41.9198C47.9608 41.1198 47.5208 40.7198 46.6408 40.7198C45.7608 40.7198 45.3208 41.1198 45.3208 41.9198V47.8398H47.9608V41.9198Z" fill="#FEFEFE"/>
<path d="M61.7372 57.7394L58.6172 48.2394V57.7394H54.1172V38.8994H58.6172V47.2394L61.8772 38.8994H66.0772L62.7972 47.0594L66.5972 57.7394H61.7372Z" fill="#FEFEFE"/>
<path d="M67.6992 57.7394V38.8994H72.1992V57.7394H67.6992Z" fill="#FEFEFE"/>
<path d="M81.3397 57.7384V51.2384C81.3397 50.0384 80.7797 49.4384 79.6797 49.4384H78.6997V57.7384H74.1797V42.2984C74.1797 41.5584 74.3197 40.9384 74.6197 40.4184C74.9197 39.8984 75.3197 39.4984 75.8397 39.1984C76.3597 38.8984 76.9797 38.6784 77.6997 38.5584C78.4197 38.4184 79.1797 38.3584 80.0197 38.3584C80.8397 38.3584 81.5797 38.4184 82.2397 38.5584C82.9197 38.6984 83.4997 38.9184 83.9797 39.2184C84.4797 39.5184 84.8597 39.9384 85.1397 40.4384C85.4197 40.9384 85.5397 41.5784 85.5397 42.3184V45.3784C85.5397 46.2784 85.2997 46.9584 84.7997 47.4584C84.2997 47.9384 83.4797 48.2384 82.3397 48.3184C83.4797 48.4184 84.3197 48.6984 84.8597 49.1184C85.3997 49.5384 85.6597 50.1184 85.6597 50.8584V57.7384H81.3397ZM81.3397 41.9184C81.3397 41.1184 80.8997 40.7384 80.0197 40.7384C79.1397 40.7384 78.6997 41.1384 78.6997 41.9184V47.2984H79.6797C80.1997 47.2984 80.6197 47.1784 80.8997 46.9184C81.1997 46.6584 81.3397 46.2384 81.3397 45.6184V41.9184Z" fill="#FEFEFE"/>
<path d="M87.3828 42.2798C87.3828 41.5398 87.5428 40.9198 87.8428 40.3998C88.1428 39.8798 88.5628 39.4798 89.0828 39.1798C89.6028 38.8798 90.2228 38.6598 90.9428 38.5398C91.6628 38.3998 92.4228 38.3398 93.2628 38.3398C94.0828 38.3398 94.8428 38.3998 95.5428 38.5398C96.2428 38.6798 96.8628 38.8998 97.3828 39.1998C97.9028 39.4998 98.3228 39.9198 98.6228 40.4198C98.9228 40.9198 99.0828 41.5598 99.0828 42.3198V54.3598C99.0828 55.1198 98.9228 55.7398 98.6228 56.2598C98.3228 56.7598 97.9028 57.1598 97.3828 57.4798C96.8628 57.7798 96.2428 57.9998 95.5428 58.1398C94.8428 58.2798 94.0828 58.3398 93.2628 58.3398C92.4228 58.3398 91.6628 58.2798 90.9428 58.1398C90.2228 57.9998 89.6028 57.7998 89.0828 57.4998C88.5628 57.1998 88.1428 56.7998 87.8428 56.2798C87.5428 55.7598 87.3828 55.1398 87.3828 54.3998V42.2798ZM94.5428 41.9198C94.5428 41.1198 94.1028 40.7198 93.2228 40.7198C92.3428 40.7198 91.9028 41.1198 91.9028 41.9198V54.7398C91.9028 55.5398 92.3428 55.9398 93.2228 55.9398C94.1028 55.9398 94.5428 55.5398 94.5428 54.7398V41.9198Z" fill="#FEFEFE"/>
</svg>
