<svg width="100" height="100" viewBox="0 0 100 100" fill="none" xmlns="http://www.w3.org/2000/svg">
<path d="M18.5209 57.8002V49.2402L9.96094 57.8002H18.5209Z" fill="#FEFEFE"/>
<path d="M1.38281 40.6592V49.2392L9.96281 40.6592H1.38281Z" fill="#FEFEFE"/>
<path d="M9.96281 49.2392H18.5228V40.6592H9.96281V49.2392H1.38281V57.7992H9.96281V49.2392Z" fill="#FEFEFE"/>
<path d="M31.5203 44.5792L35.1603 51.7792H31.7003C31.1003 51.7992 30.6203 51.9592 30.2803 52.2392C29.9203 52.5392 29.6603 52.8592 29.4803 53.1992L29.3803 53.4192H36.0003L38.2403 57.8192H40.2403L31.5403 40.6592L22.8203 57.8192H24.8203L31.5203 44.5792Z" fill="#FEFEFE"/>
<path d="M52.2803 56.6392C53.4403 55.8592 54.0403 54.6792 54.0403 53.0992C54.0403 52.5992 53.9203 52.0592 53.7003 51.4992C53.4803 50.9392 53.1003 50.4192 52.5803 49.9192C52.0603 49.4392 51.4003 49.0992 50.6003 48.8992C51.6603 48.4192 52.3803 47.8192 52.7403 47.0792C53.1003 46.3392 53.2603 45.6392 53.2603 44.9792C53.2603 43.5992 52.7403 42.5392 51.7003 41.7792C50.6603 41.0192 49.3003 40.6592 47.6203 40.6592H41.3203V57.8192H47.8403C49.6403 57.8192 51.1203 57.4192 52.2803 56.6392ZM43.1403 42.2992H47.4803C48.6003 42.2992 49.5403 42.5392 50.2803 43.0192C51.0403 43.4992 51.4003 44.2192 51.4003 45.1792C51.4003 46.0992 51.0603 46.8392 50.3803 47.4192C49.7003 47.9992 48.6803 48.2992 47.3003 48.2992H45.2003C45.2003 48.5592 45.3203 48.8992 45.5803 49.2992C45.8403 49.6992 46.3603 49.8992 47.1803 49.8992H47.3603H47.5403C48.7803 49.8992 49.8603 50.1392 50.7803 50.6192C51.7003 51.0992 52.1603 51.8992 52.1603 52.9792C52.1603 54.0992 51.7403 54.8992 50.8803 55.4192C50.0203 55.9192 49.0403 56.1792 47.9003 56.1792H43.1403V42.2992Z" fill="#FEFEFE"/>
<path d="M55.4409 57.8192L62.1409 44.5792L65.7809 51.7792H62.3209C61.7209 51.7992 61.2409 51.9592 60.9009 52.2392C60.5409 52.5392 60.2809 52.8592 60.1009 53.1992L60.0009 53.4192H66.6409L68.8809 57.8192H70.8809L62.1809 40.6592L53.4609 57.8192H55.4409Z" fill="#FEFEFE"/>
<path d="M73.7609 57.8206V43.1806L83.1409 56.2406C83.5009 56.7406 83.9409 57.1206 84.5009 57.4006C85.0609 57.6806 85.6409 57.8206 86.2609 57.8206V42.4206C86.2609 41.9206 86.0809 41.5206 85.7209 41.1606C85.3609 40.8206 84.9409 40.6406 84.4209 40.6406V55.0006L75.3209 42.3606C74.9409 41.8406 74.4409 41.4206 73.8609 41.1206C73.2609 40.8206 72.6409 40.6606 71.9609 40.6606V56.0606C71.9609 56.5606 72.1409 56.9606 72.4809 57.3206C72.8209 57.6406 73.2409 57.8206 73.7609 57.8206Z" fill="#FEFEFE"/>
<path d="M96.4409 55.3597C95.6609 55.8797 94.7409 56.1597 93.6409 56.1597C92.8609 56.1597 92.1209 55.9597 91.4009 55.5797C90.7009 55.1797 90.1409 54.6597 89.7409 53.9997C89.5609 53.6997 89.3009 53.4597 88.9809 53.2597C88.6609 53.0797 88.3209 52.9797 87.9809 52.9797C87.8009 52.9797 87.6209 52.9997 87.4609 53.0597C87.5409 53.8597 87.8609 54.6197 88.4209 55.3597C88.9809 56.0797 89.7209 56.6797 90.6209 57.1397C91.5409 57.5997 92.5209 57.8197 93.6209 57.8197C94.7209 57.8197 95.7209 57.6197 96.6009 57.2197C97.4809 56.8197 98.1809 56.2397 98.7009 55.4997C99.2009 54.7597 99.4609 53.8797 99.4609 52.8997C99.4609 52.4597 99.3409 51.9397 99.1009 51.3797C98.8609 50.8197 98.4809 50.2797 97.9409 49.7997C97.4809 49.3997 96.9809 49.0797 96.4209 48.8597C95.8609 48.6397 95.2209 48.4597 94.5209 48.3397L92.2809 47.9397C91.4209 47.7797 90.7809 47.4597 90.3609 46.9997C89.9409 46.5197 89.7209 45.9797 89.7209 45.3197C89.7209 44.5397 90.0209 43.8597 90.6009 43.2997C91.1809 42.7397 91.8809 42.4197 92.7009 42.3397C93.0409 42.2997 93.2809 42.2997 93.4209 42.2997C94.9409 42.2997 96.1209 42.8597 96.9809 43.9997C97.1609 44.2597 97.4009 44.4597 97.6809 44.5797C97.9609 44.7197 98.2809 44.7797 98.6009 44.7797C98.7209 44.7797 98.8809 44.7597 99.0809 44.7397L99.2009 44.7197C99.0609 44.0597 98.7809 43.4197 98.3409 42.7997C97.9009 42.1797 97.2609 41.6797 96.4409 41.2797C95.6209 40.8797 94.6009 40.6797 93.4209 40.6797C92.4609 40.6797 91.5409 40.8797 90.6809 41.2597C89.8209 41.6597 89.1409 42.1997 88.6409 42.8997C88.1209 43.5997 87.8809 44.4197 87.8809 45.3597C87.8809 46.5597 88.2809 47.5397 89.1009 48.2597C89.5209 48.6397 90.0009 48.9597 90.5209 49.1797C91.0409 49.4197 91.5609 49.5797 92.0609 49.6797L94.4009 50.1397C95.2209 50.2997 95.9409 50.6197 96.5809 51.0797C97.2209 51.5597 97.5409 52.2197 97.5409 53.1197C97.6009 54.0797 97.2209 54.8397 96.4409 55.3597Z" fill="#FEFEFE"/>
</svg>
