<svg width="100" height="100" viewBox="0 0 100 100" fill="none" xmlns="http://www.w3.org/2000/svg">
<path d="M4.63889 45.2586C4.75889 45.5986 4.89889 45.9186 4.95889 46.2386C5.09889 47.1186 4.93889 47.9586 4.55889 48.7786C4.37889 49.1586 4.19889 49.5386 4.03889 49.9186C3.63889 50.8986 3.71889 51.8386 4.39889 52.6986C4.81889 53.2186 5.37889 53.4986 6.01889 53.6186C7.31889 53.8386 8.47889 53.4386 9.49889 52.6386C9.81889 52.3786 10.1389 52.0986 10.4189 51.7786C10.6989 51.4586 11.0189 51.2786 11.4389 51.1586C12.7389 50.8186 13.9189 50.2586 14.8789 49.3186C15.2389 48.9586 15.5789 48.5586 15.9189 48.1786C15.8989 48.1386 15.8789 48.1186 15.8589 48.0786C15.7589 48.0986 15.6589 48.0986 15.5589 48.1386C14.7989 48.3186 14.0589 48.5386 13.2989 48.6986C12.1189 48.9386 10.8989 48.4586 10.3389 47.5386C9.53889 46.2386 9.93889 44.6386 11.2789 43.7986C11.9789 43.3586 12.7589 43.1386 13.5189 42.9186C13.7589 42.8586 13.9789 42.7786 14.2189 42.7186C14.2189 42.6786 14.2389 42.6386 14.2389 42.5986C13.9589 42.4986 13.6989 42.3786 13.4189 42.3186C12.3189 42.0386 11.1989 41.9786 10.0789 42.2186C9.55889 42.3386 9.03889 42.4986 8.51889 42.5986C8.31889 42.6386 8.07889 42.6586 7.87889 42.5986C7.07889 42.3586 6.25889 42.2386 5.43889 42.3786C4.59889 42.4986 3.79889 42.7586 3.15889 43.3386C1.93889 44.4186 1.77889 46.0786 2.95889 47.3786C3.09889 47.5386 3.25889 47.6986 3.41889 47.8586C3.23889 48.1386 3.05889 48.3786 2.85889 48.6586C2.23889 48.3386 1.81889 47.8586 1.49889 47.2786C0.298891 45.1386 1.17889 42.6786 3.41889 41.6786C4.71889 41.0986 6.05889 40.9786 7.43889 41.2386C8.07889 41.3586 8.65889 41.3186 9.27889 41.1386C10.9989 40.6586 12.6989 40.7186 14.3789 41.3386C14.7189 41.4586 15.0389 41.6386 15.3389 41.8386C15.6789 42.0786 15.8989 42.3986 15.8189 42.8386C15.7389 43.2786 15.3989 43.5186 14.9989 43.6586C14.3189 43.9186 13.6389 44.1386 12.9589 44.3986C12.5989 44.5386 12.2589 44.7386 11.9389 44.9386C11.6389 45.1386 11.4189 45.4386 11.3389 45.7986C11.1589 46.6986 11.7789 47.4986 12.7389 47.5186C13.0989 47.5186 13.4589 47.4586 13.8189 47.3986C14.5189 47.2386 15.2189 47.0386 15.9189 46.8786C16.5389 46.7186 17.0389 46.9386 17.2789 47.4386C17.4589 47.8386 17.3389 48.2186 17.1389 48.5586C16.3989 49.7986 15.4189 50.7786 14.1389 51.4386C13.4789 51.7786 12.7589 52.0386 12.0589 52.2786C11.7789 52.3786 11.5389 52.4986 11.3389 52.7186C10.4189 53.6786 9.35889 54.4186 8.05889 54.7386C6.49889 55.1386 5.05889 54.9186 3.85889 53.7986C2.59889 52.6186 2.29889 50.6186 3.23889 49.2386C3.41889 48.9586 3.59889 48.6786 3.77889 48.3986C4.33889 47.5786 4.67889 46.6786 4.63889 45.6786C4.63889 45.5786 4.63889 45.4786 4.63889 45.3786C4.53889 45.3386 4.55889 45.3386 4.63889 45.2586Z" fill="#FEFEFE"/>
<path d="M10.6401 33.3799C10.4001 33.6599 10.2201 33.9399 9.96012 34.1399C9.28012 34.6999 8.46012 34.9799 7.58012 35.0599C7.16012 35.0999 6.74012 35.1199 6.32012 35.1799C5.26012 35.3199 4.50012 35.8599 4.10012 36.8599C3.86012 37.4799 3.90012 38.1199 4.12012 38.7199C4.58012 39.9599 5.50012 40.7599 6.70012 41.2399C7.08012 41.3999 7.50012 41.5199 7.90012 41.5999C8.32012 41.6799 8.64012 41.8599 8.94012 42.1799C9.88012 43.1399 10.9401 43.8799 12.2601 44.2399C12.7601 44.3799 13.2601 44.4599 13.7801 44.5799C13.8001 44.5399 13.8201 44.5199 13.8401 44.4799C13.7801 44.3999 13.7201 44.3199 13.6401 44.2399C13.1001 43.6799 12.5401 43.1399 12.0201 42.5599C11.2201 41.6599 11.0201 40.3399 11.5401 39.3999C12.2601 38.0599 13.8401 37.6199 15.2401 38.3599C15.9601 38.7399 16.5401 39.2999 17.1401 39.8599C17.3201 40.0199 17.5001 40.1999 17.6601 40.3599C17.7001 40.3399 17.7401 40.3399 17.7601 40.3199C17.7001 40.0399 17.6601 39.7399 17.6001 39.4599C17.3001 38.3599 16.7801 37.3599 16.0001 36.5199C15.6401 36.1199 15.2401 35.7599 14.9001 35.3599C14.7601 35.1999 14.6201 34.9999 14.5801 34.8199C14.3801 33.9999 14.0801 33.2399 13.5601 32.5999C13.0401 31.9399 12.4201 31.3599 11.5801 31.0999C10.0201 30.5799 8.52012 31.2799 7.98012 32.9399C7.92012 33.1399 7.86012 33.3599 7.78012 33.5799C7.46012 33.5599 7.14012 33.5199 6.80012 33.4999C6.78012 32.7999 6.98012 32.1799 7.30012 31.6199C8.56012 29.5199 11.1201 29.0399 13.1201 30.4799C14.2801 31.3199 15.0601 32.4199 15.5201 33.7399C15.7401 34.3399 16.0601 34.8399 16.5201 35.2799C17.8001 36.5199 18.6001 38.0399 18.9001 39.7999C18.9601 40.1599 18.9801 40.5199 18.9401 40.8799C18.9001 41.2799 18.7401 41.6399 18.3201 41.7799C17.8801 41.9199 17.5201 41.7599 17.2001 41.4799C16.6401 41.0199 16.1001 40.5399 15.5401 40.0799C15.2401 39.8399 14.9001 39.6399 14.5601 39.4599C14.2401 39.2999 13.8801 39.2399 13.5001 39.3599C12.6201 39.6399 12.2401 40.5999 12.7201 41.4399C12.9001 41.7599 13.1201 42.0399 13.3601 42.2999C13.8401 42.8399 14.3601 43.3399 14.8601 43.8599C15.3001 44.3199 15.3801 44.8599 15.0401 45.3199C14.7801 45.6799 14.4001 45.7599 14.0001 45.7599C12.5601 45.7399 11.2201 45.3799 10.0001 44.5999C9.38012 44.1999 8.80012 43.6999 8.22012 43.2199C8.00012 43.0199 7.76012 42.8799 7.48012 42.7999C6.20012 42.4799 5.02012 41.9399 4.10012 40.9599C2.98012 39.7999 2.44012 38.4599 2.82012 36.8399C3.22012 35.1399 4.78012 33.9199 6.44012 34.0199C6.78012 34.0399 7.10012 34.0399 7.44012 34.0599C8.44012 34.1399 9.38012 33.9799 10.2201 33.4399C10.3001 33.3799 10.4001 33.3399 10.4801 33.2999C10.5201 33.3399 10.5401 33.3599 10.6401 33.3799Z" fill="#FEFEFE"/>
<path d="M23.9182 32.6379C23.5582 32.5579 23.2182 32.5379 22.9182 32.4379C22.0782 32.1179 21.4382 31.5579 20.9182 30.8379C20.6782 30.4979 20.4382 30.1379 20.1782 29.8179C19.5182 28.9779 18.6782 28.5779 17.5982 28.7379C16.9382 28.8379 16.4182 29.1779 15.9982 29.6979C15.1582 30.7179 14.9182 31.9179 15.0982 33.1979C15.1582 33.6179 15.2382 34.0379 15.3782 34.4179C15.5182 34.8179 15.5182 35.1979 15.3982 35.5979C15.0382 36.8779 14.9382 38.1779 15.2782 39.4979C15.4182 39.9979 15.5982 40.4779 15.7382 40.9779C15.7782 40.9779 15.8182 40.9779 15.8582 40.9779C15.8982 40.8779 15.9382 40.7779 15.9582 40.6779C16.1782 39.9379 16.3782 39.1779 16.6182 38.4379C16.9982 37.2979 18.0382 36.4779 19.0982 36.4379C20.6182 36.3979 21.7982 37.5379 21.8582 39.1179C21.8782 39.9379 21.6982 40.7179 21.4982 41.5179C21.4382 41.7579 21.3782 41.9979 21.3382 42.2179C21.3782 42.2379 21.3982 42.2579 21.4382 42.2979C21.6582 42.0979 21.8982 41.9379 22.0982 41.7179C22.8982 40.8979 23.4982 39.9579 23.8582 38.8579C24.0182 38.3579 24.1382 37.8179 24.2982 37.3179C24.3582 37.1179 24.4582 36.9179 24.6182 36.7779C25.2382 36.1979 25.7382 35.5579 26.0382 34.7779C26.3382 33.9979 26.5382 33.1779 26.3582 32.3179C26.0182 30.7179 24.6782 29.7579 22.9582 30.1379C22.7582 30.1779 22.5382 30.2379 22.2982 30.2979C22.1582 29.9979 22.0182 29.7179 21.8782 29.4179C22.4782 29.0379 23.0982 28.9179 23.7582 28.9179C26.2182 28.9379 27.8982 30.9379 27.6582 33.3779C27.5182 34.7979 26.9582 36.0179 26.0382 37.0779C25.6182 37.5579 25.3582 38.0979 25.1982 38.7179C24.7582 40.4379 23.8582 41.8979 22.4782 43.0379C22.1982 43.2579 21.8982 43.4579 21.5582 43.6179C21.1982 43.7979 20.7982 43.8179 20.4582 43.5379C20.1182 43.2379 20.0782 42.8379 20.1582 42.4179C20.2782 41.6979 20.4382 40.9979 20.5382 40.2779C20.5982 39.8979 20.5982 39.4979 20.5782 39.1179C20.5582 38.7579 20.4182 38.4179 20.1382 38.1579C19.4582 37.5379 18.4382 37.6979 17.9382 38.5179C17.7582 38.8179 17.6182 39.1579 17.5182 39.5179C17.2982 40.1979 17.1182 40.8979 16.9182 41.5979C16.7382 42.2179 16.3182 42.5379 15.7582 42.4979C15.3182 42.4579 15.0582 42.1579 14.8582 41.8179C14.1582 40.5579 13.7982 39.2179 13.8582 37.7779C13.8982 37.0379 14.0382 36.2979 14.1582 35.5579C14.2182 35.2579 14.2182 34.9979 14.1382 34.7179C13.7782 33.4379 13.6582 32.1579 14.0382 30.8779C14.4782 29.3379 15.3782 28.1979 16.9582 27.7179C18.6182 27.2179 20.4782 27.9579 21.2182 29.4579C21.3582 29.7579 21.5382 30.0379 21.6782 30.3379C22.0982 31.2379 22.7182 31.9779 23.6182 32.4379C23.6982 32.4779 23.7982 32.5379 23.8782 32.5979C23.8982 32.5179 23.8982 32.5379 23.9182 32.6379Z" fill="#FEFEFE"/>
<path d="M31.2204 43.7803C31.1004 43.4403 30.9604 43.1203 30.9004 42.8003C30.7604 41.9203 30.9204 41.0803 31.3004 40.2603C31.4804 39.8803 31.6604 39.5003 31.8204 39.1203C32.2204 38.1403 32.1404 37.2003 31.4604 36.3403C31.0404 35.8203 30.4804 35.5403 29.8404 35.4203C28.5404 35.2003 27.3804 35.6003 26.3604 36.4003C26.0404 36.6603 25.7204 36.9403 25.4404 37.2603C25.1604 37.5803 24.8404 37.7603 24.4204 37.8803C23.1204 38.2203 21.9404 38.7803 20.9804 39.7203C20.6204 40.0803 20.2804 40.4803 19.9404 40.8603C19.9604 40.9003 19.9804 40.9203 20.0004 40.9603C20.1004 40.9403 20.2004 40.9403 20.3004 40.9003C21.0604 40.7203 21.8004 40.5003 22.5604 40.3403C23.7404 40.1003 24.9604 40.5803 25.5204 41.5003C26.3204 42.8003 25.9204 44.4003 24.5804 45.2403C23.8804 45.6803 23.1004 45.9003 22.3404 46.1203C22.1004 46.1803 21.8804 46.2603 21.6404 46.3203C21.6404 46.3603 21.6204 46.4003 21.6204 46.4403C21.9004 46.5403 22.1604 46.6603 22.4404 46.7203C23.5404 47.0003 24.6604 47.0603 25.7804 46.8203C26.3004 46.7003 26.8204 46.5403 27.3404 46.4403C27.5404 46.4003 27.7804 46.3803 27.9804 46.4403C28.7804 46.6803 29.6004 46.8003 30.4204 46.6603C31.2604 46.5403 32.0604 46.2803 32.7004 45.7003C33.9204 44.6203 34.0804 42.9603 32.9004 41.6603C32.7604 41.5003 32.6004 41.3403 32.4404 41.1803C32.6204 40.9003 32.8004 40.6603 33.0004 40.3803C33.6204 40.7003 34.0404 41.1803 34.3604 41.7603C35.5604 43.9003 34.6804 46.3603 32.4404 47.3603C31.1404 47.9403 29.8004 48.0603 28.4204 47.8003C27.7804 47.6803 27.2004 47.7203 26.5804 47.9003C24.8604 48.3803 23.1604 48.3203 21.4804 47.7003C21.1404 47.5803 20.8204 47.4003 20.5204 47.2003C20.1804 46.9603 19.9604 46.6403 20.0404 46.2003C20.1204 45.7603 20.4604 45.5203 20.8604 45.3803C21.5404 45.1203 22.2204 44.9003 22.9004 44.6403C23.2604 44.5003 23.6004 44.3003 23.9204 44.1003C24.2204 43.9003 24.4404 43.6003 24.5204 43.2403C24.7004 42.3403 24.0804 41.5403 23.1204 41.5203C22.7604 41.5203 22.4004 41.5803 22.0404 41.6403C21.3404 41.8003 20.6404 42.0003 19.9404 42.1603C19.3204 42.3203 18.8204 42.1003 18.5804 41.6003C18.4004 41.2003 18.5204 40.8203 18.7204 40.4803C19.4604 39.2403 20.4404 38.2603 21.7204 37.6003C22.3804 37.2603 23.1004 37.0003 23.8004 36.7603C24.0804 36.6603 24.3204 36.5403 24.5204 36.3203C25.4404 35.3603 26.5004 34.6203 27.8004 34.3003C29.3604 33.9003 30.8004 34.1203 32.0004 35.2403C33.2604 36.4203 33.5604 38.4203 32.6204 39.8003C32.4404 40.0803 32.2604 40.3603 32.0804 40.6403C31.5204 41.4603 31.1804 42.3603 31.2204 43.3603C31.2204 43.4603 31.2204 43.5603 31.2204 43.6603C31.3004 43.7003 31.2804 43.7003 31.2204 43.7803Z" fill="#FEFEFE"/>
<path d="M25.2192 55.6593C25.4592 55.3793 25.6392 55.0993 25.8992 54.8993C26.5792 54.3393 27.3992 54.0593 28.2792 53.9793C28.6992 53.9393 29.1192 53.9193 29.5392 53.8593C30.5992 53.7193 31.3592 53.1793 31.7592 52.1793C31.9992 51.5593 31.9592 50.9193 31.7392 50.3193C31.2792 49.0793 30.3592 48.2793 29.1592 47.7993C28.7792 47.6393 28.3592 47.5193 27.9592 47.4393C27.5392 47.3593 27.2192 47.1793 26.9192 46.8593C25.9792 45.8993 24.9192 45.1593 23.5992 44.7993C23.0992 44.6593 22.5992 44.5793 22.0792 44.4593C22.0592 44.4993 22.0392 44.5193 22.0192 44.5593C22.0792 44.6393 22.1392 44.7193 22.2192 44.7993C22.7592 45.3593 23.3192 45.8993 23.8392 46.4793C24.6392 47.3793 24.8392 48.6993 24.3192 49.6393C23.5992 50.9793 22.0192 51.4193 20.6192 50.6793C19.8992 50.2993 19.3192 49.7393 18.7192 49.1793C18.5392 49.0193 18.3592 48.8393 18.1992 48.6793C18.1592 48.6993 18.1192 48.6993 18.0992 48.7193C18.1592 48.9993 18.1992 49.2993 18.2592 49.5793C18.5592 50.6793 19.0792 51.6793 19.8592 52.5193C20.2192 52.9193 20.6192 53.2793 20.9592 53.6793C21.0992 53.8393 21.2392 54.0393 21.2792 54.2193C21.4792 55.0393 21.7792 55.7993 22.2992 56.4393C22.8192 57.0993 23.4392 57.6793 24.2792 57.9393C25.8392 58.4593 27.3392 57.7593 27.8792 56.0993C27.9392 55.8993 27.9992 55.6793 28.0792 55.4593C28.3992 55.4793 28.7192 55.5193 29.0592 55.5393C29.0792 56.2393 28.8792 56.8593 28.5592 57.4193C27.2992 59.5193 24.7392 59.9993 22.7392 58.5593C21.5792 57.7193 20.7992 56.6193 20.3392 55.2993C20.1192 54.6993 19.7992 54.1993 19.3392 53.7593C18.0592 52.5193 17.2592 50.9993 16.9592 49.2393C16.8992 48.8793 16.8792 48.5193 16.9192 48.1593C16.9592 47.7593 17.1192 47.3993 17.5392 47.2593C17.9792 47.1193 18.3392 47.2793 18.6592 47.5593C19.2192 48.0193 19.7592 48.4993 20.3192 48.9593C20.6192 49.1993 20.9592 49.3993 21.2992 49.5793C21.6192 49.7393 21.9792 49.7993 22.3592 49.6793C23.2392 49.3993 23.6192 48.4393 23.1392 47.5993C22.9592 47.2793 22.7392 46.9993 22.4992 46.7393C22.0192 46.1993 21.4992 45.6993 20.9992 45.1793C20.5592 44.7193 20.4792 44.1793 20.8192 43.7193C21.0792 43.3593 21.4592 43.2793 21.8592 43.2793C23.2992 43.2993 24.6392 43.6593 25.8592 44.4393C26.4792 44.8393 27.0592 45.3393 27.6392 45.8193C27.8592 46.0193 28.0992 46.1593 28.3792 46.2393C29.6592 46.5593 30.8392 47.0993 31.7592 48.0793C32.8792 49.2393 33.4192 50.5793 33.0392 52.1993C32.6392 53.8993 31.0792 55.1193 29.4192 55.0193C29.0792 54.9993 28.7592 54.9993 28.4192 54.9793C27.4192 54.8993 26.4792 55.0593 25.6392 55.5993C25.5592 55.6593 25.4592 55.6993 25.3792 55.7393C25.3192 55.6993 25.3192 55.6793 25.2192 55.6593Z" fill="#FEFEFE"/>
<path d="M11.919 56.4003C12.279 56.4803 12.619 56.5003 12.919 56.6003C13.759 56.9203 14.399 57.4803 14.919 58.2003C15.159 58.5403 15.399 58.9003 15.659 59.2203C16.319 60.0603 17.159 60.4603 18.239 60.3003C18.899 60.2003 19.419 59.8604 19.839 59.3404C20.679 58.3204 20.919 57.1203 20.739 55.8404C20.679 55.4204 20.599 55.0003 20.459 54.6203C20.319 54.2203 20.319 53.8404 20.439 53.4403C20.799 52.1603 20.899 50.8603 20.559 49.5403C20.419 49.0403 20.239 48.5603 20.099 48.0603C20.059 48.0603 20.019 48.0603 19.979 48.0603C19.939 48.1603 19.899 48.2603 19.879 48.3603C19.659 49.1003 19.459 49.8603 19.219 50.6003C18.839 51.7403 17.799 52.5603 16.739 52.6003C15.219 52.6403 14.039 51.5003 13.979 49.9203C13.959 49.1003 14.139 48.3203 14.339 47.5203C14.399 47.2803 14.459 47.0403 14.499 46.8203C14.459 46.8003 14.439 46.7803 14.399 46.7403C14.179 46.9403 13.939 47.1003 13.739 47.3203C12.939 48.1403 12.339 49.0803 11.979 50.1803C11.819 50.6803 11.699 51.2203 11.539 51.7203C11.479 51.9203 11.379 52.1203 11.219 52.2603C10.599 52.8403 10.099 53.4803 9.79904 54.2603C9.49904 55.0403 9.29904 55.8603 9.47904 56.7203C9.81904 58.3203 11.159 59.2803 12.879 58.9003C13.079 58.8603 13.299 58.8004 13.539 58.7404C13.679 59.0404 13.819 59.3203 13.959 59.6203C13.359 60.0003 12.739 60.1203 12.079 60.1203C9.61904 60.1003 7.93904 58.1003 8.17904 55.6603C8.31904 54.2403 8.87904 53.0203 9.79904 51.9603C10.219 51.4803 10.479 50.9403 10.639 50.3203C11.079 48.6003 11.979 47.1403 13.359 46.0003C13.639 45.7803 13.939 45.5803 14.279 45.4203C14.639 45.2403 15.039 45.2203 15.379 45.5003C15.719 45.8003 15.759 46.2003 15.679 46.6203C15.559 47.3403 15.399 48.0403 15.299 48.7603C15.239 49.1403 15.239 49.5403 15.259 49.9203C15.279 50.2803 15.419 50.6203 15.699 50.8803C16.379 51.5003 17.399 51.3403 17.899 50.5203C18.079 50.2203 18.219 49.8803 18.319 49.5203C18.539 48.8403 18.719 48.1403 18.919 47.4403C19.099 46.8203 19.519 46.5003 20.079 46.5403C20.519 46.5803 20.779 46.8803 20.979 47.2203C21.679 48.4803 22.039 49.8203 21.979 51.2603C21.939 52.0003 21.799 52.7403 21.679 53.4803C21.619 53.7803 21.619 54.0403 21.699 54.3203C22.059 55.6003 22.179 56.8803 21.799 58.1603C21.359 59.7003 20.459 60.8403 18.879 61.3203C17.219 61.8203 15.359 61.0803 14.619 59.5803C14.479 59.2803 14.299 59.0003 14.159 58.7003C13.739 57.8003 13.119 57.0603 12.219 56.6003C12.139 56.5603 12.039 56.5003 11.959 56.4403C11.939 56.5203 11.959 56.5003 11.919 56.4003Z" fill="#FEFEFE"/>
<path d="M42.1428 43.4986C42.9228 43.4986 43.6828 43.4786 44.3828 43.4186C45.0828 43.3586 45.7428 43.2386 46.3628 43.0186C46.9828 42.7986 47.5428 42.4586 48.0628 42.0186C48.5828 41.5586 49.0428 40.9386 49.4628 40.1386L48.5628 43.6986H38.2628V30.7986C38.2628 30.3786 38.2228 29.9986 38.1628 29.6786C38.1028 29.3386 37.9828 29.0586 37.8028 28.8186C37.6228 28.5786 37.3828 28.3986 37.0628 28.2786C36.7428 28.1586 36.3628 28.0986 35.8828 28.0986H40.0628V41.6386C40.0628 42.0586 40.0828 42.3786 40.1228 42.6386C40.1628 42.8786 40.2428 43.0786 40.3828 43.1986C40.5228 43.3386 40.7228 43.4186 41.0028 43.4586C41.2828 43.4986 41.6628 43.5186 42.1228 43.5186H42.1428V43.4986Z" fill="#FEFEFE"/>
<path d="M58.0797 27.7578C59.3197 27.7578 60.3997 27.9778 61.3197 28.3978C62.2397 28.8178 63.0197 29.3978 63.6197 30.1378C64.2397 30.8778 64.6997 31.7378 64.9997 32.7178C65.2997 33.6978 65.4597 34.7578 65.4597 35.8978C65.4597 37.0378 65.2997 38.0978 64.9997 39.0778C64.6997 40.0578 64.2397 40.9378 63.6197 41.6578C62.9997 42.3978 62.2397 42.9778 61.3197 43.3978C60.3997 43.8178 59.3197 44.0378 58.0797 44.0378C56.8397 44.0378 55.7597 43.8178 54.8397 43.3978C53.9197 42.9778 53.1397 42.3978 52.5197 41.6578C51.8997 40.9178 51.4397 40.0578 51.1397 39.0778C50.8397 38.0978 50.6797 37.0378 50.6797 35.8978C50.6797 34.7578 50.8397 33.7178 51.1397 32.7178C51.4397 31.7378 51.8997 30.8578 52.5197 30.1378C53.1397 29.3978 53.9197 28.8178 54.8397 28.3978C55.7597 27.9578 56.8397 27.7578 58.0797 27.7578ZM59.4797 43.5778C60.3197 43.5778 61.0197 43.3578 61.6197 42.9178C62.1997 42.4778 62.6797 41.8978 63.0197 41.1778C63.3597 40.4578 63.5997 39.6378 63.6997 38.7178C63.7997 37.7978 63.7997 36.8578 63.6597 35.8978C63.5397 34.9378 63.2797 33.9978 62.9197 33.0778C62.5597 32.1578 62.0797 31.3378 61.4997 30.6178C60.9197 29.8978 60.2197 29.3178 59.3997 28.8778C58.5797 28.4378 57.6797 28.2178 56.6397 28.2178C55.7997 28.2178 55.0997 28.4378 54.5197 28.8778C53.9397 29.3178 53.4797 29.8978 53.1397 30.6178C52.7997 31.3378 52.5797 32.1578 52.4997 33.0778C52.3997 33.9978 52.4197 34.9378 52.5597 35.8978C52.6997 36.8578 52.9397 37.7978 53.2997 38.7178C53.6597 39.6378 54.1397 40.4578 54.7197 41.1778C55.2997 41.8978 55.9797 42.4778 56.7797 42.9178C57.5797 43.3578 58.4797 43.5778 59.4797 43.5778Z" fill="#FEFEFE"/>
<path d="M82.3228 41.3786C82.3428 42.0986 82.5428 42.6586 82.8628 43.0786C83.2028 43.4986 83.8028 43.6986 84.6828 43.6986H80.4028V29.1586L74.8428 43.6986H74.6028L68.5028 30.4386V39.0586C68.5028 39.7586 68.5628 40.3986 68.6828 40.9586C68.8028 41.5386 69.0228 42.0186 69.3228 42.4186C69.6228 42.8186 70.0428 43.1386 70.5628 43.3586C71.0828 43.5786 71.7628 43.6986 72.5828 43.6986H68.2628V30.7986C68.2628 30.3786 68.2228 29.9986 68.1628 29.6786C68.1028 29.3386 67.9828 29.0586 67.8028 28.8186C67.6228 28.5786 67.3828 28.3986 67.0628 28.2786C66.7428 28.1586 66.3628 28.0986 65.8828 28.0986H69.5428L75.5228 41.3186L80.5828 28.0986H82.3228V41.3786Z" fill="#FEFEFE"/>
<path d="M96.5405 40.2187C96.8005 40.8587 96.9805 41.4187 97.0405 41.8787C97.1005 42.3387 97.1005 42.7187 97.0205 42.9987C96.9405 43.2987 96.8005 43.4987 96.6005 43.6387C96.4005 43.7787 96.1605 43.8387 95.8805 43.8387C95.4405 43.8387 95.0805 43.6987 94.7605 43.4187C94.4405 43.1387 94.1005 42.8187 93.7605 42.4787C93.4205 42.1387 93.0005 41.8187 92.5605 41.5387C92.1005 41.2587 91.5205 41.1187 90.8405 41.1187C90.2405 41.1187 89.7605 41.2587 89.3605 41.5587C88.9805 41.8587 88.6205 42.1787 88.3005 42.5387C87.9805 42.8987 87.6605 43.2187 87.3605 43.5187C87.0605 43.8187 86.6805 43.9587 86.2405 43.9587C85.9405 43.9587 85.6805 43.8987 85.4405 43.7787C85.2005 43.6587 85.0205 43.4587 84.9205 43.1787C84.8005 42.8987 84.7805 42.5387 84.8605 42.0787C84.9205 41.6187 85.1205 41.0787 85.4205 40.4387L90.3805 30.0187L89.6405 28.1387H91.5005L96.5405 40.2187ZM94.2405 41.5587C94.4005 41.5587 94.5205 41.5187 94.5805 41.4387C94.6405 41.3587 94.6805 41.2787 94.7005 41.1787C94.7205 41.0787 94.7005 40.9587 94.6805 40.8387C94.6605 40.7187 94.6205 40.5987 94.5605 40.4987L90.5205 30.3187L87.4005 36.8787C87.2405 37.1987 87.0805 37.5587 86.9005 37.9187C86.7405 38.2787 86.5805 38.6387 86.4605 38.9987C86.3205 39.3387 86.2005 39.6787 86.1005 39.9787C86.0005 40.2787 85.9205 40.5387 85.8805 40.7387C85.7805 41.2387 85.8005 41.5987 85.9205 41.8187C86.0605 42.0387 86.2605 42.1387 86.5205 42.1387C86.9005 42.1387 87.2205 42.0587 87.5205 41.9187C87.8205 41.7787 88.1205 41.6187 88.4205 41.4587C88.7405 41.2987 89.0805 41.1387 89.4605 40.9987C89.8405 40.8587 90.3005 40.7787 90.8405 40.7787C91.3005 40.7787 91.7005 40.8187 92.0605 40.8987C92.4005 40.9787 92.7205 41.0587 92.9805 41.1587C93.2405 41.2387 93.4805 41.3387 93.6805 41.4187C93.8805 41.5187 94.0605 41.5587 94.2405 41.5587Z" fill="#FEFEFE"/>
<path d="M43.2584 46.6372C44.2584 46.6372 45.1384 46.7972 45.8784 47.1172C46.6384 47.4372 47.2584 47.8772 47.7584 48.4172C48.2584 48.9572 48.6184 49.5572 48.8784 50.2372C49.1384 50.9172 49.2584 51.6172 49.2584 52.3372C49.2584 53.0572 49.1584 53.7572 48.9184 54.4372C48.6784 55.1172 48.3384 55.7372 47.8784 56.2572C47.4184 56.7972 46.8384 57.2372 46.1384 57.5572C45.4384 57.8772 44.6384 58.0372 43.7384 58.0372L43.6784 58.0172L43.6984 58.0372H39.1384V48.5972C39.1384 48.2972 39.1184 48.0172 39.0584 47.7772C39.0184 47.5372 38.9184 47.3172 38.7984 47.1572C38.6584 46.9772 38.4784 46.8572 38.2584 46.7572C38.0384 46.6572 37.7384 46.6172 37.3984 46.6172H43.2584V46.6372ZM43.5784 57.9372C44.2784 57.9172 44.8984 57.7572 45.4384 57.4372C45.9584 57.1172 46.3984 56.6972 46.7584 56.1572C47.0984 55.6372 47.3584 55.0372 47.5384 54.3572C47.7184 53.6972 47.7984 52.9972 47.7784 52.3172C47.7584 51.6172 47.6584 50.9372 47.4584 50.2772C47.2584 49.6172 46.9784 49.0172 46.5984 48.4972C46.2184 47.9772 45.7584 47.5572 45.1984 47.2572C44.6384 46.9372 43.9784 46.7972 43.2384 46.7972H41.2184C41.0384 46.8172 40.8984 46.8572 40.7984 46.9172C40.6984 46.9772 40.5984 47.0572 40.5584 47.1572C40.4984 47.2572 40.4784 47.3972 40.4584 47.5572C40.4384 47.7172 40.4384 47.9172 40.4384 48.1572V56.5772C40.4384 56.8772 40.4584 57.1172 40.4784 57.2972C40.4984 57.4772 40.5784 57.6172 40.6784 57.7172C40.7784 57.8172 40.9384 57.8772 41.1384 57.8972C41.3384 57.9172 41.6184 57.9372 41.9584 57.9372H43.5584H43.5784Z" fill="#FEFEFE"/>
<path d="M54.1195 57.9363C54.6995 57.9363 55.2395 57.9162 55.7595 57.8762C56.2795 57.8362 56.7595 57.7362 57.1995 57.5762C57.6595 57.4162 58.0595 57.1763 58.4395 56.8363C58.8195 56.4963 59.1595 56.0362 59.4595 55.4562L58.7995 58.0762H51.2595V48.6362C51.2595 48.3362 51.2395 48.0563 51.1795 47.8163C51.1395 47.5763 51.0395 47.3562 50.9195 47.1962C50.7795 47.0162 50.5995 46.8962 50.3795 46.7962C50.1595 46.6962 49.8595 46.6562 49.5195 46.6562H58.3795L59.0395 49.2762C58.7395 48.6962 58.3995 48.2362 58.0195 47.8962C57.6395 47.5562 57.2195 47.3163 56.7795 47.1562C56.3395 46.9963 55.8595 46.8963 55.3395 46.8563C54.8195 46.8162 54.2795 46.7962 53.7195 46.7962H53.3795C53.1995 46.8162 53.0595 46.8563 52.9595 46.9163C52.8595 46.9763 52.7595 47.0563 52.7195 47.1562C52.6595 47.2563 52.6395 47.3963 52.6195 47.5563C52.5995 47.7163 52.5995 47.9162 52.5995 48.1562V51.7962C52.9195 51.6562 53.2595 51.5962 53.5995 51.5962C53.9395 51.5962 54.2995 51.6363 54.6395 51.7363C54.9795 51.8363 55.3395 51.9363 55.6595 52.0363C55.9995 52.1363 56.3195 52.2363 56.6395 52.3363C56.9595 52.4363 57.2595 52.4762 57.5595 52.4762C57.9395 52.4762 58.2595 52.3762 58.5395 52.1762C58.2395 52.5762 57.9195 52.8563 57.5995 53.0163C57.2795 53.1763 56.9595 53.2363 56.5995 53.2363C56.2795 53.2363 55.9395 53.1962 55.6195 53.0962C55.2795 52.9962 54.9595 52.8962 54.6195 52.7562C54.2795 52.6362 53.9395 52.5163 53.5995 52.4163C53.2595 52.3163 52.9195 52.2563 52.5795 52.2363V56.5762C52.5795 56.8762 52.5995 57.1162 52.6195 57.2962C52.6395 57.4762 52.7195 57.6163 52.8195 57.7163C52.9195 57.8163 53.0795 57.8762 53.2795 57.8962C53.4795 57.9162 53.7595 57.9363 54.0995 57.9363H54.1195Z" fill="#FEFEFE"/>
<path d="M69.9186 46.6377V58.2777H69.7386L61.4986 47.9577V54.6777C61.4986 55.1977 61.5386 55.6577 61.6386 56.0777C61.7186 56.4977 61.8786 56.8577 62.0986 57.1377C62.3186 57.4377 62.6186 57.6577 62.9986 57.8177C63.3786 57.9777 63.8786 58.0577 64.4586 58.0577H61.2986V48.6177C61.2986 48.3177 61.2786 48.0377 61.2186 47.7977C61.1786 47.5577 61.0786 47.3377 60.9586 47.1777C60.8186 46.9977 60.6386 46.8777 60.4186 46.7777C60.1986 46.6777 59.8986 46.6377 59.5586 46.6377H62.2186L69.7186 55.7377V50.0377C69.7186 49.5177 69.6786 49.0577 69.5786 48.6377C69.4986 48.2177 69.3386 47.8577 69.1186 47.5777C68.8986 47.2777 68.5986 47.0577 68.2186 46.8977C67.8386 46.7377 67.3386 46.6577 66.7586 46.6577H69.9186V46.6377Z" fill="#FEFEFE"/>
<path d="M81.3208 49.2577C81.0608 48.7577 80.7808 48.3577 80.4608 48.0377C80.1408 47.7177 79.8008 47.4777 79.4408 47.2977C79.0808 47.1177 78.6808 46.9977 78.2808 46.9177C77.8608 46.8377 77.4408 46.7977 76.9808 46.7977V56.0777C76.9808 56.3777 77.0008 56.6577 77.0608 56.8977C77.1008 57.1377 77.2008 57.3577 77.3208 57.5177C77.4608 57.6977 77.6208 57.8177 77.8608 57.9177C78.0808 58.0177 78.3608 58.0577 78.7208 58.0577H75.6608V46.7977C75.2008 46.8177 74.7608 46.8577 74.3608 46.9177C73.9408 46.9977 73.5608 47.1177 73.1808 47.2977C72.8008 47.4777 72.4608 47.7177 72.1608 48.0377C71.8608 48.3577 71.5608 48.7577 71.3008 49.2577L71.9608 46.6377H80.7008L81.3208 49.2577Z" fill="#FEFEFE"/>
<path d="M88.8991 55.5372C89.0991 55.9972 89.2191 56.4172 89.2591 56.7372C89.2991 57.0772 89.2991 57.3572 89.2591 57.5572C89.1991 57.7772 89.0991 57.9172 88.9391 58.0172C88.7791 58.1172 88.6191 58.1572 88.4191 58.1572C88.0991 58.1572 87.8191 58.0572 87.5991 57.8372C87.3591 57.6372 87.1191 57.3972 86.8591 57.1372C86.5991 56.8772 86.3191 56.6572 85.9791 56.4372C85.6391 56.2372 85.2191 56.1172 84.7191 56.1172C84.2791 56.1172 83.9191 56.2172 83.6391 56.4372C83.3591 56.6572 83.0991 56.8772 82.8591 57.1572C82.6191 57.4172 82.3991 57.6572 82.1791 57.8772C81.9591 58.0972 81.6791 58.1972 81.3591 58.1972C81.1391 58.1972 80.9391 58.1572 80.7791 58.0572C80.5991 57.9572 80.4791 57.8172 80.3991 57.6172C80.3191 57.4172 80.2991 57.1572 80.3591 56.8172C80.3991 56.4772 80.5391 56.0772 80.7791 55.6172L84.3991 47.9972L83.8591 46.6172H85.2191L88.8991 55.5372ZM87.2191 56.5172C87.3391 56.5172 87.4191 56.4972 87.4591 56.4372C87.4991 56.3772 87.5391 56.3172 87.5391 56.2372C87.5591 56.1572 87.5391 56.0772 87.5191 55.9972C87.4991 55.9172 87.4791 55.8372 87.4391 55.7572L84.4791 48.3172L82.1991 53.0772C82.0791 53.3172 81.9591 53.5772 81.8391 53.8372C81.7191 54.0972 81.6191 54.3572 81.5191 54.6172C81.4191 54.8772 81.3391 55.1172 81.2591 55.3372C81.1791 55.5572 81.1191 55.7572 81.0991 55.8972C81.0191 56.2772 81.0391 56.5372 81.1391 56.6972C81.2391 56.8572 81.3791 56.9372 81.5791 56.9372C81.8591 56.9372 82.0991 56.8772 82.2991 56.7772C82.5191 56.6772 82.7391 56.5572 82.9591 56.4372C83.1791 56.3172 83.4391 56.1972 83.7191 56.0972C83.9991 55.9972 84.3391 55.9372 84.7191 55.9372C85.0591 55.9372 85.3591 55.9772 85.6191 56.0172C85.8791 56.0772 86.0991 56.1372 86.2991 56.1972C86.4991 56.2572 86.6591 56.3172 86.8191 56.3772C86.9591 56.4772 87.0991 56.5172 87.2191 56.5172Z" fill="#FEFEFE"/>
<path d="M93.8812 57.9363C94.4613 57.9363 95.0013 57.9162 95.5213 57.8762C96.0413 57.8362 96.5212 57.7362 96.9612 57.5762C97.4212 57.4162 97.8213 57.1763 98.2013 56.8363C98.5813 56.4963 98.9213 56.0362 99.2213 55.4562L98.5612 58.0762H91.0213V48.6362C91.0213 48.3362 91.0013 48.0563 90.9413 47.8163C90.9013 47.5763 90.8012 47.3562 90.6812 47.1962C90.5412 47.0162 90.3613 46.8962 90.1413 46.7962C89.9213 46.6962 89.6213 46.6562 89.2812 46.6562H92.3413V56.5762C92.3413 56.8762 92.3613 57.1162 92.3813 57.2962C92.4013 57.4762 92.4813 57.6163 92.5812 57.7163C92.6813 57.8163 92.8413 57.8762 93.0413 57.8962C93.2413 57.9162 93.5212 57.9363 93.8612 57.9363H93.8812Z" fill="#FEFEFE"/>
<path d="M2.77937 65.541C3.01937 65.541 3.21938 65.561 3.33938 65.621C3.45937 65.681 3.57937 65.741 3.67937 65.801C3.73937 65.841 3.77937 65.861 3.81937 65.881C3.85938 65.901 3.89937 65.901 3.91937 65.901C3.95937 65.901 3.99937 65.881 4.01937 65.821C4.03937 65.761 4.05937 65.681 4.07937 65.581H4.23937C4.23937 65.661 4.21937 65.761 4.21937 65.881C4.21937 66.001 4.19937 66.141 4.19937 66.341C4.19937 66.521 4.19937 66.781 4.19937 67.081H4.03938C4.01937 66.841 3.97937 66.621 3.87937 66.421C3.79937 66.201 3.65937 66.041 3.49937 65.901C3.33937 65.761 3.09937 65.701 2.83937 65.701C2.57937 65.701 2.35937 65.781 2.19937 65.941C2.03937 66.101 1.93937 66.301 1.93937 66.561C1.93937 66.781 1.99937 66.961 2.09937 67.101C2.21937 67.241 2.35937 67.381 2.55937 67.501C2.73937 67.621 2.95937 67.741 3.17937 67.881C3.43937 68.041 3.65937 68.181 3.85937 68.341C4.05937 68.501 4.21937 68.661 4.31937 68.841C4.43937 69.021 4.49937 69.241 4.49937 69.501C4.49937 69.821 4.41937 70.061 4.27937 70.281C4.13937 70.481 3.93937 70.641 3.71937 70.741C3.47937 70.841 3.21937 70.901 2.93937 70.901C2.67937 70.901 2.47938 70.881 2.31937 70.821C2.15938 70.761 2.03937 70.701 1.93937 70.641C1.83937 70.581 1.73937 70.541 1.69937 70.541C1.65937 70.541 1.61937 70.561 1.59937 70.621C1.57937 70.681 1.55937 70.761 1.53937 70.861H1.35938C1.35938 70.761 1.37937 70.641 1.37937 70.501C1.37937 70.361 1.37937 70.181 1.37937 69.961C1.37937 69.741 1.37937 69.461 1.37937 69.121H1.53937C1.55937 69.421 1.61937 69.681 1.69937 69.941C1.79937 70.201 1.91938 70.401 2.11937 70.541C2.29937 70.701 2.55937 70.761 2.87937 70.761C3.03937 70.761 3.19938 70.721 3.33938 70.661C3.47937 70.601 3.59937 70.501 3.69937 70.341C3.79937 70.201 3.83938 70.021 3.83938 69.781C3.83938 69.581 3.79937 69.401 3.69937 69.261C3.59937 69.121 3.47937 68.981 3.29937 68.841C3.11937 68.721 2.91937 68.581 2.69937 68.441C2.45937 68.301 2.25937 68.161 2.05937 68.021C1.85937 67.881 1.69937 67.701 1.57937 67.521C1.45937 67.321 1.39937 67.101 1.39937 66.821C1.39937 66.541 1.45937 66.301 1.59937 66.121C1.71937 65.941 1.89938 65.801 2.11937 65.701C2.31937 65.601 2.53937 65.541 2.77937 65.541Z" fill="#FEFEFE"/>
<path d="M11.882 65.6201V65.7601C11.722 65.7601 11.582 65.7801 11.502 65.8201C11.422 65.8601 11.362 65.9001 11.322 66.0001C11.302 66.0801 11.282 66.2201 11.282 66.4001V70.0001C11.282 70.1801 11.302 70.3001 11.322 70.4001C11.342 70.4801 11.402 70.5401 11.502 70.5801C11.582 70.6001 11.722 70.6201 11.882 70.6401V70.7801C11.762 70.7801 11.622 70.7601 11.462 70.7601C11.302 70.7601 11.122 70.7601 10.942 70.7601C10.742 70.7601 10.582 70.7601 10.402 70.7601C10.242 70.7601 10.102 70.7601 10.002 70.7801V70.6401C10.162 70.6401 10.302 70.6201 10.382 70.5801C10.462 70.5601 10.522 70.5001 10.562 70.4001C10.602 70.3001 10.602 70.1801 10.602 70.0001V66.0001L10.622 66.0201L8.82203 70.8001H8.70203L6.86203 66.0801V69.9201C6.86203 70.1001 6.88203 70.2401 6.90203 70.3401C6.94203 70.4401 7.00203 70.5001 7.10203 70.5601C7.20203 70.6001 7.34203 70.6201 7.52203 70.6401V70.7801C7.44203 70.7801 7.32203 70.7601 7.18203 70.7601C7.04203 70.7601 6.90203 70.7601 6.78203 70.7601C6.66203 70.7601 6.54203 70.7601 6.40203 70.7601C6.28203 70.7601 6.18203 70.7601 6.08203 70.7801V70.6401C6.24203 70.6401 6.38203 70.6001 6.46203 70.5601C6.54203 70.5201 6.60203 70.4401 6.64203 70.3401C6.66203 70.2401 6.68203 70.1001 6.68203 69.9201V66.4001C6.68203 66.2201 6.66203 66.0801 6.64203 66.0001C6.62203 65.9201 6.56203 65.8601 6.46203 65.8201C6.38203 65.7801 6.24203 65.7801 6.08203 65.7601V65.6201C6.16203 65.6201 6.26203 65.6201 6.40203 65.6401C6.52203 65.6401 6.64203 65.6401 6.78203 65.6401C6.88203 65.6401 7.00203 65.6401 7.12203 65.6401C7.24203 65.6401 7.34203 65.6401 7.40203 65.6201L9.06203 69.9601L8.94203 70.0201L10.602 65.6401C10.662 65.6401 10.722 65.6401 10.782 65.6401C10.842 65.6401 10.902 65.6401 10.962 65.6401C11.142 65.6401 11.302 65.6401 11.482 65.6401C11.642 65.6401 11.782 65.6401 11.882 65.6201Z" fill="#FEFEFE"/>
<path d="M15.3175 65.6201V65.7601C15.1575 65.7601 15.0175 65.7801 14.9375 65.8201C14.8575 65.8601 14.7975 65.9001 14.7575 66.0001C14.7375 66.0801 14.7175 66.2201 14.7175 66.4001V70.0001C14.7175 70.1801 14.7375 70.3001 14.7575 70.4001C14.7775 70.4801 14.8375 70.5401 14.9375 70.5801C15.0175 70.6001 15.1575 70.6201 15.3175 70.6401V70.7801C15.1975 70.7801 15.0575 70.7601 14.8975 70.7601C14.7375 70.7601 14.5575 70.7601 14.3775 70.7601C14.1775 70.7601 14.0175 70.7601 13.8375 70.7601C13.6775 70.7601 13.5375 70.7601 13.4375 70.7801V70.6401C13.5975 70.6401 13.7375 70.6201 13.8175 70.5801C13.8975 70.5601 13.9575 70.5001 13.9975 70.4001C14.0175 70.3201 14.0375 70.1801 14.0375 70.0001V66.4001C14.0375 66.2201 14.0175 66.0801 13.9975 66.0001C13.9775 65.9201 13.9175 65.8601 13.8175 65.8201C13.7375 65.7801 13.5975 65.7801 13.4375 65.7601V65.6201C13.5375 65.6201 13.6775 65.6201 13.8375 65.6401C13.9975 65.6401 14.1775 65.6401 14.3775 65.6401C14.5575 65.6401 14.7175 65.6401 14.8975 65.6401C15.0575 65.6401 15.1975 65.6401 15.3175 65.6201Z" fill="#FEFEFE"/>
<path d="M18.7394 65.6201V65.7601C18.5794 65.7601 18.4394 65.7801 18.3594 65.8201C18.2794 65.8601 18.2194 65.9001 18.1794 66.0001C18.1594 66.0801 18.1394 66.2201 18.1394 66.4001V70.0001C18.1394 70.1801 18.1594 70.3001 18.1794 70.4001C18.1994 70.4801 18.2594 70.5401 18.3594 70.5801C18.4394 70.6001 18.5794 70.6201 18.7394 70.6201H19.2794C19.4994 70.6201 19.6994 70.6001 19.8394 70.5401C19.9794 70.5001 20.0994 70.4201 20.1794 70.3201C20.2594 70.2201 20.3394 70.0801 20.3794 69.9001C20.4194 69.7201 20.4594 69.5201 20.4794 69.2601H20.6394C20.6194 69.4201 20.6194 69.6001 20.6194 69.8601C20.6194 69.9601 20.6194 70.0801 20.6394 70.2601C20.6394 70.4401 20.6594 70.6201 20.6794 70.8001C20.4394 70.8001 20.1394 70.7801 19.8394 70.7801C19.5194 70.7801 19.2394 70.7801 18.9994 70.7801C18.8994 70.7801 18.7594 70.7801 18.5794 70.7801C18.3994 70.7801 18.2194 70.7801 18.0394 70.7801C17.8394 70.7801 17.6394 70.7801 17.4394 70.7801C17.2394 70.7801 17.0394 70.7801 16.8594 70.8001V70.6601C17.0194 70.6601 17.1594 70.6401 17.2394 70.6001C17.3194 70.5801 17.3794 70.5201 17.4194 70.4201C17.4394 70.3401 17.4594 70.2001 17.4594 70.0201V66.4201C17.4594 66.2401 17.4394 66.1001 17.4194 66.0201C17.3994 65.9401 17.3394 65.8801 17.2394 65.8401C17.1594 65.8001 17.0194 65.8001 16.8594 65.7801V65.6401C16.9594 65.6401 17.0994 65.6401 17.2594 65.6601C17.4194 65.6601 17.5994 65.6601 17.7994 65.6601C17.9794 65.6601 18.1394 65.6601 18.3194 65.6601C18.4794 65.6401 18.6194 65.6401 18.7394 65.6201Z" fill="#FEFEFE"/>
<path d="M25.7767 65.6201C25.7567 65.7801 25.7367 65.9601 25.7367 66.1201C25.7367 66.2801 25.7167 66.4001 25.7167 66.4801C25.7167 66.5601 25.7167 66.6601 25.7167 66.7401C25.7167 66.8201 25.7167 66.8801 25.7367 66.9401H25.5967C25.5767 66.6601 25.5167 66.4201 25.4767 66.2601C25.4167 66.1001 25.3367 65.9801 25.1967 65.9001C25.0767 65.8201 24.8767 65.8001 24.6167 65.8001H24.0167C23.8567 65.8001 23.7167 65.8201 23.6367 65.8401C23.5567 65.8601 23.4967 65.9201 23.4567 66.0001C23.4367 66.0801 23.4167 66.2201 23.4167 66.4001V70.0001C23.4167 70.1801 23.4367 70.3001 23.4567 70.4001C23.4767 70.4801 23.5367 70.5401 23.6367 70.5801C23.7167 70.6001 23.8567 70.6201 24.0167 70.6201H24.5567C24.8567 70.6201 25.0967 70.5801 25.2567 70.5001C25.4167 70.4201 25.5367 70.2801 25.5967 70.1001C25.6767 69.9201 25.7167 69.6601 25.7567 69.3401H25.9167C25.8967 69.4801 25.8967 69.6401 25.8967 69.8601C25.8967 69.9601 25.8967 70.0801 25.9167 70.2601C25.9167 70.4401 25.9367 70.6201 25.9567 70.8001C25.7167 70.8001 25.4167 70.7801 25.1167 70.7801C24.7967 70.7801 24.5167 70.7801 24.2767 70.7801C24.1767 70.7801 24.0367 70.7801 23.8567 70.7801C23.6767 70.7801 23.4967 70.7801 23.3167 70.7801C23.1167 70.7801 22.9167 70.7801 22.7167 70.7801C22.5167 70.7801 22.3167 70.7801 22.1367 70.8001V70.6601C22.2967 70.6601 22.4367 70.6401 22.5167 70.6001C22.5967 70.5801 22.6567 70.5201 22.6967 70.4201C22.7167 70.3401 22.7367 70.2001 22.7367 70.0201V66.4201C22.7367 66.2401 22.7167 66.1001 22.6967 66.0201C22.6767 65.9401 22.6167 65.8801 22.5167 65.8401C22.4367 65.8001 22.2967 65.8001 22.1367 65.7801V65.6401C22.3167 65.6401 22.5167 65.6401 22.7167 65.6601C22.9167 65.6601 23.1167 65.6601 23.3167 65.6601C23.5167 65.6601 23.6967 65.6601 23.8567 65.6601C24.0167 65.6601 24.1567 65.6601 24.2767 65.6601C24.4967 65.6601 24.7567 65.6601 25.0367 65.6601C25.2967 65.6401 25.5567 65.6401 25.7767 65.6201ZM24.5167 68.1201V68.2601H23.1767V68.1201H24.5167ZM24.7367 67.1601C24.7167 67.4401 24.7167 67.6401 24.7167 67.8001C24.7167 67.9401 24.7167 68.0801 24.7167 68.2001C24.7167 68.3201 24.7167 68.4601 24.7167 68.6001C24.7167 68.7401 24.7367 68.9601 24.7567 69.2401H24.5967C24.5767 69.0801 24.5567 68.9401 24.5367 68.7801C24.5167 68.6401 24.4567 68.5201 24.3567 68.4201C24.2567 68.3201 24.1167 68.2801 23.8967 68.2801V68.1401C24.0567 68.1401 24.1767 68.1001 24.2767 68.0401C24.3567 67.9801 24.4167 67.9001 24.4567 67.7801C24.4967 67.6801 24.5167 67.5801 24.5367 67.4601C24.5567 67.3601 24.5567 67.2601 24.5767 67.1601H24.7367Z" fill="#FEFEFE"/>
<path d="M29.0992 65.541C29.3392 65.541 29.5392 65.561 29.6592 65.621C29.7792 65.681 29.8992 65.741 29.9992 65.801C30.0592 65.841 30.0992 65.861 30.1392 65.881C30.1792 65.901 30.2192 65.901 30.2392 65.901C30.2792 65.901 30.3192 65.881 30.3392 65.821C30.3592 65.761 30.3792 65.681 30.3992 65.581H30.5592C30.5592 65.661 30.5392 65.761 30.5392 65.881C30.5392 66.001 30.5192 66.141 30.5192 66.341C30.5192 66.521 30.5192 66.781 30.5192 67.081H30.3592C30.3392 66.841 30.2992 66.621 30.1992 66.421C30.1192 66.201 29.9792 66.041 29.8192 65.901C29.6592 65.761 29.4192 65.701 29.1592 65.701C28.8992 65.701 28.6792 65.781 28.5192 65.941C28.3592 66.101 28.2592 66.301 28.2592 66.561C28.2592 66.781 28.3192 66.961 28.4192 67.101C28.5392 67.241 28.6792 67.381 28.8792 67.501C29.0592 67.621 29.2792 67.741 29.4992 67.881C29.7592 68.041 29.9792 68.181 30.1792 68.341C30.3792 68.501 30.5392 68.661 30.6392 68.841C30.7592 69.021 30.8192 69.241 30.8192 69.501C30.8192 69.821 30.7392 70.061 30.5992 70.281C30.4592 70.481 30.2592 70.641 30.0392 70.741C29.7992 70.841 29.5392 70.901 29.2592 70.901C28.9992 70.901 28.7992 70.881 28.6392 70.821C28.4792 70.761 28.3592 70.701 28.2592 70.641C28.1592 70.581 28.0592 70.541 28.0192 70.541C27.9792 70.541 27.9392 70.561 27.9192 70.621C27.8992 70.681 27.8792 70.761 27.8592 70.861H27.6992C27.6992 70.761 27.7192 70.641 27.7192 70.501C27.7192 70.361 27.7192 70.181 27.7192 69.961C27.7192 69.741 27.7192 69.461 27.7192 69.121H27.8792C27.8992 69.421 27.9592 69.681 28.0392 69.941C28.1392 70.201 28.2592 70.401 28.4592 70.541C28.6392 70.701 28.8992 70.761 29.2192 70.761C29.3792 70.761 29.5392 70.721 29.6792 70.661C29.8192 70.601 29.9392 70.501 30.0392 70.341C30.1392 70.201 30.1792 70.021 30.1792 69.781C30.1792 69.581 30.1392 69.401 30.0392 69.261C29.9392 69.121 29.8192 68.981 29.6392 68.841C29.4592 68.721 29.2592 68.581 29.0392 68.441C28.7992 68.301 28.5992 68.161 28.3992 68.021C28.1992 67.881 28.0392 67.701 27.9192 67.521C27.7992 67.321 27.7392 67.101 27.7392 66.821C27.7392 66.541 27.7992 66.301 27.9392 66.121C28.0592 65.941 28.2392 65.801 28.4592 65.701C28.6392 65.601 28.8592 65.541 29.0992 65.541Z" fill="#FEFEFE"/>
<path d="M39.058 65.6201C39.038 65.8001 39.018 65.9801 39.018 66.1601C39.018 66.3401 38.998 66.4601 38.998 66.5601C38.998 66.6801 38.998 66.7801 38.998 66.8801C38.998 66.9801 38.998 67.0801 39.018 67.1401H38.858C38.818 66.8001 38.778 66.5401 38.718 66.3401C38.658 66.1401 38.558 66.0001 38.418 65.9201C38.278 65.8401 38.038 65.7801 37.738 65.7801H37.338V69.9201C37.338 70.1201 37.358 70.2601 37.398 70.3601C37.438 70.4601 37.498 70.5201 37.618 70.5601C37.718 70.6001 37.878 70.6201 38.078 70.6201V70.7601C37.958 70.7601 37.798 70.7401 37.598 70.7401C37.398 70.7401 37.198 70.7401 36.998 70.7401C36.778 70.7401 36.578 70.7401 36.378 70.7401C36.178 70.7401 36.038 70.7401 35.918 70.7601V70.6201C36.118 70.6201 36.278 70.5801 36.378 70.5601C36.478 70.5201 36.558 70.4601 36.598 70.3601C36.638 70.2601 36.658 70.1201 36.658 69.9201V65.8001H36.258C35.958 65.8001 35.738 65.8401 35.578 65.9401C35.438 66.0201 35.318 66.1601 35.258 66.3601C35.198 66.5601 35.158 66.8201 35.118 67.1601H34.958C34.958 67.0801 34.978 67.0001 34.978 66.9001C34.978 66.8001 34.978 66.6801 34.978 66.5801C34.978 66.4801 34.978 66.3601 34.958 66.1801C34.958 66.0001 34.938 65.8401 34.918 65.6401C35.118 65.6401 35.338 65.6401 35.598 65.6601C35.838 65.6601 36.078 65.6601 36.338 65.6601C36.578 65.6601 36.798 65.6601 36.998 65.6601C37.198 65.6601 37.418 65.6601 37.658 65.6601C37.898 65.6601 38.138 65.6601 38.398 65.6601C38.638 65.6401 38.858 65.6401 39.058 65.6201Z" fill="#FEFEFE"/>
<path d="M40.5195 70.7801V70.6401C40.6795 70.6401 40.8195 70.6201 40.8995 70.5801C40.9795 70.5601 41.0395 70.5001 41.0795 70.4001C41.0995 70.3201 41.1195 70.1801 41.1195 70.0001V66.4001C41.1195 66.2201 41.0995 66.0801 41.0795 66.0001C41.0595 65.9201 40.9995 65.8601 40.8995 65.8201C40.8195 65.7801 40.6795 65.7801 40.5195 65.7601V65.6201C40.6195 65.6201 40.7595 65.6201 40.9195 65.6401C41.0795 65.6401 41.2595 65.6401 41.4595 65.6401C41.6395 65.6401 41.7995 65.6401 41.9795 65.6401C42.1395 65.6401 42.2795 65.6401 42.3995 65.6201V65.7601C42.2395 65.7601 42.0995 65.7801 42.0195 65.8201C41.9395 65.8601 41.8795 65.9001 41.8395 66.0001C41.8195 66.0801 41.7995 66.2201 41.7995 66.4001V70.0001C41.7995 70.1801 41.8195 70.3001 41.8395 70.4001C41.8595 70.5001 41.9195 70.5401 42.0195 70.5801C42.0995 70.6001 42.2395 70.6201 42.3995 70.6401V70.7801C42.2795 70.7801 42.1395 70.7601 41.9795 70.7601C41.8195 70.7601 41.6395 70.7601 41.4595 70.7601C41.2595 70.7601 41.0995 70.7601 40.9195 70.7601C40.7595 70.7601 40.6395 70.7601 40.5195 70.7801ZM41.5395 68.2601V68.1201H44.4395V68.2601H41.5395ZM43.5995 70.7801V70.6401C43.7595 70.6401 43.8995 70.6201 43.9795 70.5801C44.0595 70.5601 44.1195 70.5001 44.1595 70.4001C44.1795 70.3201 44.1995 70.1801 44.1995 70.0001V66.4001C44.1995 66.2201 44.1795 66.0801 44.1595 66.0001C44.1395 65.9201 44.0795 65.8601 43.9795 65.8201C43.8995 65.7801 43.7595 65.7801 43.5995 65.7601V65.6201C43.7195 65.6201 43.8595 65.6201 44.0195 65.6401C44.1995 65.6401 44.3595 65.6401 44.5195 65.6401C44.7195 65.6401 44.8795 65.6401 45.0595 65.6401C45.2195 65.6401 45.3595 65.6401 45.4595 65.6201V65.7601C45.2995 65.7601 45.1595 65.7801 45.0795 65.8201C44.9995 65.8601 44.9395 65.9001 44.8995 66.0001C44.8795 66.0801 44.8595 66.2201 44.8595 66.4001V70.0001C44.8595 70.1801 44.8795 70.3001 44.8995 70.4001C44.9195 70.5001 44.9795 70.5401 45.0795 70.5801C45.1595 70.6001 45.2995 70.6201 45.4595 70.6401V70.7801C45.3595 70.7801 45.2195 70.7601 45.0595 70.7601C44.8995 70.7601 44.7195 70.7601 44.5195 70.7601C44.3595 70.7601 44.1795 70.7601 44.0195 70.7601C43.8595 70.7601 43.7195 70.7601 43.5995 70.7801Z" fill="#FEFEFE"/>
<path d="M49.0797 65.5996L50.8797 70.1796C50.9597 70.3596 51.0397 70.4796 51.1197 70.5396C51.2197 70.5996 51.2997 70.6396 51.3797 70.6396V70.7796C51.2797 70.7796 51.1597 70.7596 51.0197 70.7596C50.8797 70.7596 50.7397 70.7596 50.5997 70.7596C50.3997 70.7596 50.2397 70.7596 50.0597 70.7596C49.8997 70.7596 49.7597 70.7596 49.6597 70.7796V70.6396C49.8997 70.6396 50.0597 70.5796 50.1397 70.5196C50.1997 70.4396 50.1997 70.2796 50.0997 70.0396L48.7397 66.4196L48.8597 66.3196L47.5797 69.5996C47.4997 69.7996 47.4597 69.9596 47.4397 70.0996C47.4197 70.2396 47.4397 70.3396 47.4797 70.4196C47.5197 70.4996 47.5997 70.5596 47.6997 70.5796C47.7997 70.6196 47.9197 70.6396 48.0797 70.6396V70.7796C47.9397 70.7796 47.7997 70.7596 47.6597 70.7596C47.5197 70.7596 47.3797 70.7596 47.2397 70.7596C47.1197 70.7596 47.0197 70.7596 46.9197 70.7596C46.8397 70.7596 46.7597 70.7596 46.6797 70.7796V70.6396C46.7797 70.6196 46.8797 70.5596 46.9797 70.4596C47.0797 70.3796 47.1797 70.2196 47.2597 69.9996L48.9797 65.5996C48.9997 65.5996 49.0197 65.5996 49.0397 65.5996C49.0397 65.5996 49.0597 65.5996 49.0797 65.5996ZM49.9797 68.6796V68.8196H47.7997L47.8797 68.6796H49.9797Z" fill="#FEFEFE"/>
<path d="M56.2572 65.6201C56.2372 65.8001 56.2172 65.9801 56.2172 66.1601C56.2172 66.3401 56.1972 66.4601 56.1972 66.5601C56.1972 66.6801 56.1972 66.7801 56.1972 66.8801C56.1972 66.9801 56.1972 67.0801 56.2172 67.1401H56.0572C56.0172 66.8001 55.9772 66.5401 55.9172 66.3401C55.8572 66.1401 55.7572 66.0001 55.6172 65.9201C55.4772 65.8401 55.2372 65.7801 54.9372 65.7801H54.5372V69.9201C54.5372 70.1201 54.5572 70.2601 54.5972 70.3601C54.6372 70.4601 54.6972 70.5201 54.8172 70.5601C54.9172 70.6001 55.0772 70.6201 55.2772 70.6201V70.7601C55.1572 70.7601 54.9972 70.7401 54.7972 70.7401C54.5972 70.7401 54.3972 70.7401 54.1972 70.7401C53.9772 70.7401 53.7772 70.7401 53.5772 70.7401C53.3772 70.7401 53.2372 70.7401 53.1172 70.7601V70.6201C53.3172 70.6201 53.4772 70.5801 53.5772 70.5601C53.6772 70.5201 53.7572 70.4601 53.7972 70.3601C53.8372 70.2601 53.8572 70.1201 53.8572 69.9201V65.8001H53.4572C53.1572 65.8001 52.9372 65.8401 52.7772 65.9401C52.6372 66.0201 52.5172 66.1601 52.4572 66.3601C52.3972 66.5601 52.3572 66.8201 52.3172 67.1601H52.1572C52.1572 67.0801 52.1772 67.0001 52.1772 66.9001C52.1772 66.8001 52.1772 66.6801 52.1772 66.5801C52.1772 66.4801 52.1772 66.3601 52.1572 66.1801C52.1572 66.0001 52.1372 65.8401 52.1172 65.6401C52.3172 65.6401 52.5372 65.6401 52.7972 65.6601C53.0372 65.6601 53.2772 65.6601 53.5372 65.6601C53.7772 65.6601 53.9972 65.6601 54.1972 65.6601C54.3972 65.6601 54.6172 65.6601 54.8572 65.6601C55.0972 65.6601 55.3372 65.6601 55.5972 65.6601C55.8372 65.6401 56.0572 65.6401 56.2572 65.6201Z" fill="#FEFEFE"/>
<path d="M60.3203 65.6201C60.4203 65.6201 60.5603 65.6201 60.7203 65.6401C60.8803 65.6401 61.0603 65.6401 61.2203 65.6401C61.4403 65.6401 61.6803 65.6401 61.8803 65.6401C62.1003 65.6401 62.2403 65.6401 62.3203 65.6401C62.8403 65.6401 63.2203 65.7401 63.4803 65.9601C63.7403 66.1801 63.8603 66.4401 63.8603 66.7801C63.8603 66.9401 63.8203 67.1201 63.7603 67.2801C63.6803 67.4401 63.5803 67.6001 63.4003 67.7201C63.2403 67.8601 63.0203 67.9601 62.7403 68.0401V68.0601C63.1203 68.1001 63.4203 68.2001 63.6403 68.3401C63.8603 68.4801 64.0203 68.6201 64.1003 68.8001C64.1803 68.9801 64.2403 69.1601 64.2403 69.3601C64.2403 69.6401 64.1803 69.8801 64.0403 70.1001C63.9003 70.3201 63.7003 70.4801 63.4403 70.6001C63.1803 70.7201 62.8603 70.7801 62.5003 70.7801C62.4003 70.7801 62.2403 70.7801 62.0203 70.7601C61.8003 70.7601 61.5403 70.7401 61.2403 70.7401C61.0603 70.7401 60.9003 70.7401 60.7403 70.7401C60.5803 70.7401 60.4403 70.7401 60.3403 70.7601V70.6201C60.5003 70.6201 60.6403 70.6001 60.7203 70.5601C60.8003 70.5401 60.8603 70.4801 60.9003 70.3801C60.9203 70.3001 60.9403 70.1601 60.9403 69.9801V66.3801C60.9403 66.2001 60.9203 66.0601 60.9003 65.9801C60.8803 65.9001 60.8203 65.8401 60.7203 65.8001C60.6403 65.7601 60.5003 65.7601 60.3403 65.7401V65.6201H60.3203ZM62.1403 65.7801C61.9203 65.7801 61.7603 65.8201 61.7003 65.9001C61.6403 65.9801 61.6003 66.1401 61.6003 66.4001V70.0001C61.6003 70.1601 61.6203 70.3001 61.6403 70.3801C61.6603 70.4601 61.7203 70.5201 61.8003 70.5601C61.8803 70.5801 62.0003 70.6001 62.1403 70.6001C62.6203 70.6001 62.9603 70.4801 63.1803 70.2601C63.4003 70.0401 63.5003 69.7201 63.5003 69.3201C63.5003 68.9401 63.4003 68.6601 63.2003 68.4601C63.0003 68.2601 62.6603 68.1601 62.2003 68.1601H61.4403V68.0401H62.0803C62.3603 68.0401 62.6003 67.9801 62.7403 67.8801C62.9003 67.7801 63.0003 67.6201 63.0603 67.4401C63.1203 67.2601 63.1403 67.0601 63.1403 66.8601C63.1403 66.5001 63.0603 66.2401 62.9003 66.0401C62.7603 65.8601 62.5003 65.7801 62.1403 65.7801Z" fill="#FEFEFE"/>
<path d="M67.6378 65.6201V65.7601C67.4778 65.7601 67.3378 65.7801 67.2578 65.8201C67.1778 65.8601 67.1178 65.9001 67.0778 66.0001C67.0578 66.0801 67.0378 66.2201 67.0378 66.4001V70.0001C67.0378 70.1801 67.0578 70.3001 67.0778 70.4001C67.0978 70.4801 67.1578 70.5401 67.2578 70.5801C67.3378 70.6001 67.4778 70.6201 67.6378 70.6201H68.1778C68.3978 70.6201 68.5978 70.6001 68.7378 70.5401C68.8778 70.5001 68.9978 70.4201 69.0778 70.3201C69.1578 70.2201 69.2378 70.0801 69.2778 69.9001C69.3178 69.7201 69.3578 69.5201 69.3778 69.2601H69.5378C69.5178 69.4201 69.5178 69.6001 69.5178 69.8601C69.5178 69.9601 69.5178 70.0801 69.5378 70.2601C69.5378 70.4401 69.5578 70.6201 69.5778 70.8001C69.3378 70.8001 69.0378 70.7801 68.7378 70.7801C68.4178 70.7801 68.1378 70.7801 67.8978 70.7801C67.7978 70.7801 67.6578 70.7801 67.4778 70.7801C67.3178 70.7801 67.1178 70.7801 66.9378 70.7801C66.7378 70.7801 66.5378 70.7801 66.3378 70.7801C66.1378 70.7801 65.9378 70.7801 65.7578 70.8001V70.6601C65.9178 70.6601 66.0578 70.6401 66.1378 70.6001C66.2178 70.5801 66.2778 70.5201 66.3178 70.4201C66.3378 70.3401 66.3578 70.2001 66.3578 70.0201V66.4201C66.3578 66.2401 66.3378 66.1001 66.3178 66.0201C66.2978 65.9401 66.2378 65.8801 66.1378 65.8401C66.0578 65.8001 65.9178 65.8001 65.7578 65.7801V65.6401C65.8578 65.6401 65.9978 65.6401 66.1578 65.6601C66.3178 65.6601 66.4978 65.6601 66.6978 65.6601C66.8778 65.6601 67.0378 65.6601 67.2178 65.6601C67.3978 65.6401 67.5378 65.6401 67.6378 65.6201Z" fill="#FEFEFE"/>
<path d="M73.4416 65.5205C73.9016 65.5205 74.3216 65.6205 74.6616 65.8405C75.0016 66.0405 75.2816 66.3405 75.4816 66.7405C75.6816 67.1405 75.7616 67.6005 75.7616 68.1605C75.7616 68.7005 75.6616 69.1805 75.4616 69.5805C75.2616 69.9805 74.9816 70.3005 74.6416 70.5405C74.2816 70.7605 73.8816 70.8805 73.4216 70.8805C72.9616 70.8805 72.5416 70.7805 72.2016 70.5605C71.8616 70.3605 71.5816 70.0605 71.3816 69.6605C71.1816 69.2605 71.1016 68.8005 71.1016 68.2405C71.1016 67.7005 71.2016 67.2205 71.4016 66.8205C71.6016 66.4205 71.8816 66.1005 72.2216 65.8605C72.5816 65.6405 73.0016 65.5205 73.4416 65.5205ZM73.4216 65.6605C73.1016 65.6605 72.8216 65.7605 72.6016 65.9805C72.3616 66.2005 72.1816 66.5005 72.0616 66.8805C71.9416 67.2605 71.8616 67.7005 71.8616 68.2005C71.8616 68.7205 71.9416 69.1605 72.0816 69.5405C72.2216 69.9205 72.4216 70.2205 72.6616 70.4205C72.9016 70.6205 73.1816 70.7205 73.4816 70.7205C73.8016 70.7205 74.0816 70.6205 74.3016 70.4005C74.5416 70.1805 74.7216 69.8805 74.8416 69.5005C74.9616 69.1205 75.0416 68.6805 75.0416 68.1805C75.0416 67.6605 74.9616 67.2205 74.8216 66.8405C74.6816 66.4605 74.4816 66.1805 74.2416 65.9605C74.0016 65.7605 73.7216 65.6605 73.4216 65.6605Z" fill="#FEFEFE"/>
<path d="M78.982 65.541C79.222 65.541 79.422 65.561 79.542 65.621C79.662 65.681 79.782 65.741 79.882 65.801C79.942 65.841 79.982 65.861 80.022 65.881C80.062 65.901 80.102 65.901 80.122 65.901C80.162 65.901 80.202 65.881 80.222 65.821C80.242 65.761 80.262 65.681 80.282 65.581H80.442C80.442 65.661 80.422 65.761 80.422 65.881C80.422 66.001 80.402 66.141 80.402 66.341C80.402 66.521 80.402 66.781 80.402 67.081H80.242C80.222 66.841 80.182 66.621 80.082 66.421C80.002 66.201 79.862 66.041 79.702 65.901C79.542 65.761 79.302 65.701 79.042 65.701C78.782 65.701 78.562 65.781 78.402 65.941C78.242 66.101 78.142 66.301 78.142 66.561C78.142 66.781 78.202 66.961 78.302 67.101C78.422 67.241 78.562 67.381 78.762 67.501C78.942 67.621 79.162 67.741 79.382 67.881C79.642 68.041 79.862 68.181 80.062 68.341C80.262 68.501 80.422 68.661 80.522 68.841C80.642 69.021 80.702 69.241 80.702 69.501C80.702 69.821 80.622 70.061 80.482 70.281C80.342 70.481 80.142 70.641 79.922 70.741C79.702 70.841 79.422 70.901 79.142 70.901C78.882 70.901 78.682 70.881 78.522 70.821C78.362 70.761 78.242 70.701 78.142 70.641C78.042 70.581 77.942 70.541 77.902 70.541C77.862 70.541 77.822 70.561 77.802 70.621C77.782 70.681 77.762 70.761 77.742 70.861H77.582C77.582 70.761 77.602 70.641 77.602 70.501C77.602 70.361 77.602 70.181 77.602 69.961C77.602 69.741 77.602 69.461 77.602 69.121H77.762C77.782 69.421 77.842 69.681 77.922 69.941C78.022 70.201 78.142 70.401 78.342 70.541C78.522 70.701 78.782 70.761 79.102 70.761C79.262 70.761 79.422 70.721 79.562 70.661C79.702 70.601 79.822 70.501 79.922 70.341C80.022 70.201 80.062 70.021 80.062 69.781C80.062 69.581 80.022 69.401 79.922 69.261C79.822 69.121 79.702 68.981 79.522 68.841C79.342 68.721 79.142 68.581 78.922 68.441C78.682 68.301 78.482 68.161 78.282 68.021C78.082 67.881 77.922 67.701 77.802 67.521C77.682 67.321 77.622 67.101 77.622 66.821C77.622 66.541 77.682 66.301 77.822 66.121C77.942 65.941 78.122 65.801 78.342 65.701C78.522 65.601 78.742 65.541 78.982 65.541Z" fill="#FEFEFE"/>
<path d="M83.8805 65.541C84.1205 65.541 84.3205 65.561 84.4405 65.621C84.5605 65.681 84.6805 65.741 84.7805 65.801C84.8405 65.841 84.8805 65.861 84.9205 65.881C84.9605 65.901 85.0005 65.901 85.0205 65.901C85.0605 65.901 85.1005 65.881 85.1205 65.821C85.1405 65.761 85.1605 65.681 85.1805 65.581H85.3405C85.3405 65.661 85.3205 65.761 85.3205 65.881C85.3205 66.001 85.3005 66.141 85.3005 66.341C85.3005 66.521 85.3005 66.781 85.3005 67.081H85.1405C85.1205 66.841 85.0805 66.621 84.9805 66.421C84.9005 66.201 84.7605 66.041 84.6005 65.901C84.4405 65.761 84.2005 65.701 83.9405 65.701C83.6805 65.701 83.4605 65.781 83.3005 65.941C83.1405 66.101 83.0405 66.301 83.0405 66.561C83.0405 66.781 83.1005 66.961 83.2005 67.101C83.3205 67.241 83.4605 67.381 83.6605 67.501C83.8405 67.621 84.0605 67.741 84.2805 67.881C84.5405 68.041 84.7605 68.181 84.9605 68.341C85.1605 68.501 85.3205 68.661 85.4205 68.841C85.5405 69.021 85.6005 69.241 85.6005 69.501C85.6005 69.821 85.5205 70.061 85.3805 70.281C85.2405 70.481 85.0405 70.641 84.8205 70.741C84.6005 70.841 84.3205 70.901 84.0405 70.901C83.7805 70.901 83.5805 70.881 83.4205 70.821C83.2605 70.761 83.1405 70.701 83.0405 70.641C82.9405 70.581 82.8405 70.541 82.8005 70.541C82.7605 70.541 82.7205 70.561 82.7005 70.621C82.6805 70.681 82.6605 70.761 82.6405 70.861H82.4805C82.4805 70.761 82.5005 70.641 82.5005 70.501C82.5005 70.361 82.5005 70.181 82.5005 69.961C82.5005 69.741 82.5005 69.461 82.5005 69.121H82.6605C82.6805 69.421 82.7405 69.681 82.8205 69.941C82.9205 70.201 83.0405 70.401 83.2405 70.541C83.4205 70.701 83.6805 70.761 84.0005 70.761C84.1605 70.761 84.3205 70.721 84.4605 70.661C84.6005 70.601 84.7205 70.501 84.8205 70.341C84.9205 70.201 84.9605 70.021 84.9605 69.781C84.9605 69.581 84.9205 69.401 84.8205 69.261C84.7205 69.121 84.6005 68.981 84.4205 68.841C84.2405 68.721 84.0405 68.581 83.8205 68.441C83.5805 68.301 83.3805 68.161 83.1805 68.021C82.9805 67.881 82.8205 67.701 82.7005 67.521C82.5805 67.321 82.5205 67.101 82.5205 66.821C82.5205 66.541 82.5805 66.301 82.7205 66.121C82.8405 65.941 83.0205 65.801 83.2405 65.701C83.4205 65.601 83.6405 65.541 83.8805 65.541Z" fill="#FEFEFE"/>
<path d="M89.6408 65.5205C90.1008 65.5205 90.5208 65.6205 90.8608 65.8405C91.2008 66.0405 91.4808 66.3405 91.6808 66.7405C91.8808 67.1405 91.9608 67.6005 91.9608 68.1605C91.9608 68.7005 91.8608 69.1805 91.6608 69.5805C91.4608 69.9805 91.1808 70.3005 90.8408 70.5405C90.4808 70.7605 90.0808 70.8805 89.6208 70.8805C89.1608 70.8805 88.7408 70.7805 88.4008 70.5605C88.0608 70.3605 87.7808 70.0605 87.5808 69.6605C87.3808 69.2605 87.3008 68.8005 87.3008 68.2405C87.3008 67.7005 87.4008 67.2205 87.6008 66.8205C87.8008 66.4205 88.0808 66.1005 88.4208 65.8605C88.7808 65.6405 89.1808 65.5205 89.6408 65.5205ZM89.6008 65.6605C89.2808 65.6605 89.0008 65.7605 88.7808 65.9805C88.5408 66.2005 88.3608 66.5005 88.2408 66.8805C88.1208 67.2605 88.0408 67.7005 88.0408 68.2005C88.0408 68.7205 88.1208 69.1605 88.2608 69.5405C88.4008 69.9205 88.6008 70.2205 88.8408 70.4205C89.0808 70.6205 89.3608 70.7205 89.6608 70.7205C89.9808 70.7205 90.2608 70.6205 90.4808 70.4005C90.7208 70.1805 90.9008 69.8805 91.0208 69.5005C91.1408 69.1205 91.2208 68.6805 91.2208 68.1805C91.2208 67.6605 91.1408 67.2205 91.0008 66.8405C90.8608 66.4605 90.6608 66.1805 90.4208 65.9605C90.1808 65.7605 89.9008 65.6605 89.6008 65.6605Z" fill="#FEFEFE"/>
<path d="M99.3195 65.6201V65.7601C99.1595 65.7601 99.0195 65.7801 98.9395 65.8201C98.8595 65.8601 98.7995 65.9001 98.7595 66.0001C98.7395 66.0801 98.7195 66.2201 98.7195 66.4001V70.0001C98.7195 70.1801 98.7395 70.3001 98.7595 70.4001C98.7795 70.4801 98.8395 70.5401 98.9395 70.5801C99.0195 70.6001 99.1595 70.6201 99.3195 70.6401V70.7801C99.1995 70.7801 99.0595 70.7601 98.8995 70.7601C98.7395 70.7601 98.5595 70.7601 98.3795 70.7601C98.1795 70.7601 98.0195 70.7601 97.8395 70.7601C97.6795 70.7601 97.5395 70.7601 97.4395 70.7801V70.6401C97.5995 70.6401 97.7395 70.6201 97.8195 70.5801C97.8995 70.5601 97.9595 70.5001 97.9995 70.4001C98.0195 70.3201 98.0395 70.1801 98.0395 70.0001V66.0001L98.0595 66.0201L96.2595 70.8001H96.1395L94.2995 66.0801V69.9201C94.2995 70.1001 94.3195 70.2401 94.3395 70.3401C94.3795 70.4401 94.4395 70.5001 94.5395 70.5601C94.6395 70.6001 94.7795 70.6201 94.9595 70.6401V70.7801C94.8795 70.7801 94.7595 70.7601 94.6195 70.7601C94.4795 70.7601 94.3395 70.7601 94.2195 70.7601C94.0995 70.7601 93.9795 70.7601 93.8395 70.7601C93.7195 70.7601 93.6195 70.7601 93.5195 70.7801V70.6401C93.6795 70.6401 93.8195 70.6001 93.8995 70.5601C93.9795 70.5201 94.0395 70.4401 94.0795 70.3401C94.0995 70.2401 94.1195 70.1001 94.1195 69.9201V66.4001C94.1195 66.2201 94.0995 66.0801 94.0795 66.0001C94.0595 65.9201 93.9995 65.8601 93.8995 65.8201C93.8195 65.7801 93.6795 65.7801 93.5195 65.7601V65.6201C93.5995 65.6201 93.6995 65.6201 93.8395 65.6401C93.9595 65.6401 94.0795 65.6401 94.2195 65.6401C94.3195 65.6401 94.4395 65.6401 94.5595 65.6401C94.6795 65.6401 94.7795 65.6401 94.8395 65.6201L96.4995 69.9601L96.3795 70.0201L98.0395 65.6401C98.0995 65.6401 98.1595 65.6401 98.2195 65.6401C98.2795 65.6401 98.3395 65.6401 98.3995 65.6401C98.5795 65.6401 98.7395 65.6401 98.9195 65.6401C99.0595 65.6401 99.1995 65.6401 99.3195 65.6201Z" fill="#FEFEFE"/>
</svg>
