<svg width="100" height="100" viewBox="0 0 100 100" fill="none" xmlns="http://www.w3.org/2000/svg">
<path d="M13.2191 62.7001C13.0191 62.7001 12.8191 62.6601 12.6391 62.5601L1.71906 56.8201C1.29906 56.6001 1.03906 56.1801 1.03906 55.7001V43.5601C1.03906 43.1201 1.27906 42.7001 1.65906 42.4801C2.03906 42.2601 2.49906 42.2401 2.89906 42.4401L13.7991 48.1801C14.2191 48.4001 14.4791 48.8201 14.4791 49.3001V52.5001C14.4791 53.2001 13.9191 53.7601 13.2191 53.7601C12.5191 53.7601 11.9591 53.2001 11.9591 52.5001V50.0601L3.57906 45.6401V54.9201L11.9591 59.3401V57.5001C11.9591 56.8001 12.5191 56.2401 13.2191 56.2401C13.9191 56.2401 14.4791 56.8001 14.4791 57.5001V61.4401C14.4791 61.8801 14.2391 62.3001 13.8591 62.5201C13.6591 62.6401 13.4391 62.7001 13.2191 62.7001Z" fill="#FEFEFE"/>
<path d="M17.4006 62.7007C16.7006 62.7007 16.1406 62.1407 16.1406 61.4407V57.4207C16.1406 57.4007 16.1406 57.3807 16.1406 57.3607V49.5007C16.1406 49.0207 16.4006 48.5807 16.8406 48.3807L27.3806 43.1207C27.7606 42.9207 28.2406 42.9407 28.6006 43.1807C28.9806 43.4007 29.2006 43.8207 29.2006 44.2407L29.2406 52.4607C29.2406 52.9607 28.9606 53.4007 28.5206 53.6207L18.6606 58.2207V61.4607C18.6606 62.1407 18.1006 62.7007 17.4006 62.7007ZM18.6606 50.3007V55.4207L26.7206 51.6607L26.7006 46.2807L18.6606 50.3007Z" fill="#FEFEFE"/>
<path d="M14.8786 47.0398C14.6786 47.0398 14.4786 46.9998 14.2786 46.8798L3.09858 40.8798C2.67858 40.6598 2.41858 40.1998 2.43858 39.7398C2.45858 39.2798 2.73858 38.8398 3.17858 38.6398L14.5586 33.3598C14.8986 33.1998 15.2986 33.1998 15.6386 33.3798L27.1786 39.0398C27.5986 39.2398 27.8786 39.6798 27.8786 40.1598C27.8786 40.6398 27.6186 41.0798 27.1986 41.2998L22.6586 43.6398C22.0386 43.9598 21.2786 43.7198 20.9586 43.0998C20.6386 42.4798 20.8786 41.7198 21.4986 41.3998L23.8186 40.1998L15.0786 35.8998L6.51858 39.8598L14.9186 44.3598L17.9386 42.9198C18.5586 42.6198 19.3186 42.8998 19.6186 43.5198C19.9186 44.1398 19.6386 44.8998 19.0186 45.1998L15.4186 46.8998C15.2386 46.9998 15.0586 47.0398 14.8786 47.0398Z" fill="#FEFEFE"/>
<path d="M34.6406 42.6202C34.6406 38.5202 37.7406 35.7402 41.7406 35.7402C44.6606 35.7402 46.3406 37.3202 47.2806 39.0002L44.8406 40.2002C44.2806 39.1202 43.0806 38.2602 41.7206 38.2602C39.2806 38.2602 37.5406 40.1202 37.5406 42.6202C37.5406 45.1202 39.3006 46.9802 41.7206 46.9802C43.0806 46.9802 44.2806 46.1202 44.8406 45.0402L47.2806 46.2202C46.3406 47.8802 44.6406 49.4802 41.7406 49.4802C37.7406 49.5002 34.6406 46.7202 34.6406 42.6202Z" fill="#FEFEFE"/>
<path d="M48.3594 44.4394C48.3594 41.6994 50.2794 39.3994 53.4394 39.3994C56.6394 39.3994 58.5394 41.7194 58.5394 44.4394C58.5394 47.1794 56.6194 49.4994 53.4394 49.4994C50.2794 49.4994 48.3594 47.1794 48.3594 44.4394ZM55.9194 44.4394C55.9194 42.9394 55.0394 41.6394 53.4394 41.6394C51.8594 41.6394 50.9794 42.9394 50.9794 44.4394C50.9794 45.9594 51.8594 47.2594 53.4394 47.2594C55.0394 47.2594 55.9194 45.9594 55.9194 44.4394Z" fill="#FEFEFE"/>
<path d="M67.0005 49.2589V43.4389C67.0005 42.0989 66.3005 41.6389 65.2205 41.6389C64.2205 41.6389 63.4605 42.1989 63.0205 42.7589V49.2589H60.4805V39.6189H63.0205V40.8589C63.6405 40.1389 64.8405 39.3789 66.3805 39.3789C68.5205 39.3789 69.5405 40.5789 69.5405 42.4589V49.2589H67.0005Z" fill="#FEFEFE"/>
<path d="M72.682 49.2591V41.8391H71.082V39.6191H72.682V39.2191C72.682 36.9591 74.062 35.7591 75.922 35.7591C76.662 35.7591 77.302 35.9191 77.762 36.1591L77.242 38.0391C77.042 37.8991 76.762 37.8391 76.422 37.8391C75.702 37.8391 75.222 38.2991 75.222 39.2391V39.6391H77.182V41.8591H75.222V49.2791L72.682 49.2591ZM78.382 37.0791C78.382 36.2391 79.062 35.5791 79.882 35.5791C80.722 35.5791 81.402 36.2391 81.402 37.0791C81.402 37.9191 80.722 38.5991 79.882 38.5991C79.062 38.5991 78.382 37.9191 78.382 37.0791ZM78.622 49.2591V39.6191H81.162V49.2591H78.622Z" fill="#FEFEFE"/>
<path d="M84.2602 46.86V41.86H82.6602V39.64H84.2602V37H86.8002V39.64H88.7602V41.86H86.8002V46.18C86.8002 46.8 87.1202 47.26 87.6802 47.26C88.0602 47.26 88.4202 47.12 88.5602 46.96L89.1002 48.9C88.7202 49.24 88.0402 49.52 86.9802 49.52C85.1802 49.5 84.2602 48.6 84.2602 46.86Z" fill="#FEFEFE"/>
<path d="M90.418 51.7401L91.558 49.9201C92.258 50.7601 93.438 51.1001 94.458 51.1001C96.098 51.1001 97.058 49.9801 97.058 48.6201V47.6201C96.398 48.3401 95.238 49.0801 93.678 49.0801C91.558 49.0801 90.558 47.9201 90.558 46.0401V39.6201H93.098V45.0401C93.098 46.3801 93.798 46.8201 94.878 46.8201C95.858 46.8201 96.638 46.2801 97.078 45.7201V39.6201H99.618V48.6201C99.618 51.5201 97.558 53.1601 94.498 53.1601C92.818 53.1801 91.538 52.7201 90.418 51.7401Z" fill="#FEFEFE"/>
<path d="M34.6406 42.6202C34.6406 38.5202 37.7406 35.7402 41.7406 35.7402C44.6606 35.7402 46.3406 37.3202 47.2806 39.0002L44.8406 40.2002C44.2806 39.1202 43.0806 38.2602 41.7206 38.2602C39.2806 38.2602 37.5406 40.1202 37.5406 42.6202C37.5406 45.1202 39.3006 46.9802 41.7206 46.9802C43.0806 46.9802 44.2806 46.1202 44.8406 45.0402L47.2806 46.2202C46.3406 47.8802 44.6406 49.4802 41.7406 49.4802C37.7406 49.5002 34.6406 46.7202 34.6406 42.6202Z" fill="#FEFEFE"/>
<path d="M48.3594 44.4394C48.3594 41.6994 50.2794 39.3994 53.4394 39.3994C56.6394 39.3994 58.5394 41.7194 58.5394 44.4394C58.5394 47.1794 56.6194 49.4994 53.4394 49.4994C50.2794 49.4994 48.3594 47.1794 48.3594 44.4394ZM55.9194 44.4394C55.9194 42.9394 55.0394 41.6394 53.4394 41.6394C51.8594 41.6394 50.9794 42.9394 50.9794 44.4394C50.9794 45.9594 51.8594 47.2594 53.4394 47.2594C55.0394 47.2594 55.9194 45.9594 55.9194 44.4394Z" fill="#FEFEFE"/>
<path d="M67.0005 49.2589V43.4389C67.0005 42.0989 66.3005 41.6389 65.2205 41.6389C64.2205 41.6389 63.4605 42.1989 63.0205 42.7589V49.2589H60.4805V39.6189H63.0205V40.8589C63.6405 40.1389 64.8405 39.3789 66.3805 39.3789C68.5205 39.3789 69.5405 40.5789 69.5405 42.4589V49.2589H67.0005Z" fill="#FEFEFE"/>
<path d="M72.682 49.2591V41.8391H71.082V39.6191H72.682V39.2191C72.682 36.9591 74.062 35.7591 75.922 35.7591C76.662 35.7591 77.302 35.9191 77.762 36.1591L77.242 38.0391C77.042 37.8991 76.762 37.8391 76.422 37.8391C75.702 37.8391 75.222 38.2991 75.222 39.2391V39.6391H77.182V41.8591H75.222V49.2791L72.682 49.2591ZM78.382 37.0791C78.382 36.2391 79.062 35.5791 79.882 35.5791C80.722 35.5791 81.402 36.2391 81.402 37.0791C81.402 37.9191 80.722 38.5991 79.882 38.5991C79.062 38.5991 78.382 37.9191 78.382 37.0791ZM78.622 49.2591V39.6191H81.162V49.2591H78.622Z" fill="#FEFEFE"/>
<path d="M84.2602 46.86V41.86H82.6602V39.64H84.2602V37H86.8002V39.64H88.7602V41.86H86.8002V46.18C86.8002 46.8 87.1202 47.26 87.6802 47.26C88.0602 47.26 88.4202 47.12 88.5602 46.96L89.1002 48.9C88.7202 49.24 88.0402 49.52 86.9802 49.52C85.1802 49.5 84.2602 48.6 84.2602 46.86Z" fill="#FEFEFE"/>
<path d="M90.418 51.7401L91.558 49.9201C92.258 50.7601 93.438 51.1001 94.458 51.1001C96.098 51.1001 97.058 49.9801 97.058 48.6201V47.6201C96.398 48.3401 95.238 49.0801 93.678 49.0801C91.558 49.0801 90.558 47.9201 90.558 46.0401V39.6201H93.098V45.0401C93.098 46.3801 93.798 46.8201 94.878 46.8201C95.858 46.8201 96.638 46.2801 97.078 45.7201V39.6201H99.618V48.6201C99.618 51.5201 97.558 53.1601 94.498 53.1601C92.818 53.1801 91.538 52.7201 90.418 51.7401Z" fill="#FEFEFE"/>
<path d="M34.9414 57.6997C34.9414 55.8997 36.3014 54.6797 38.0614 54.6797C39.3414 54.6797 40.0814 55.3797 40.5014 56.0997L39.4414 56.6197C39.2014 56.1397 38.6614 55.7797 38.0814 55.7797C37.0214 55.7797 36.2414 56.5997 36.2414 57.6997C36.2414 58.7997 37.0214 59.6197 38.0814 59.6197C38.6814 59.6197 39.2014 59.2397 39.4414 58.7797L40.5014 59.2997C40.0814 60.0197 39.3414 60.7397 38.0614 60.7397C36.3014 60.7197 34.9414 59.4797 34.9414 57.6997Z" fill="#FEFEFE"/>
<path d="M44.1214 60.6203V60.0803C43.7814 60.5003 43.3414 60.7203 42.8214 60.7203C41.7614 60.7203 40.9414 59.9203 40.9414 58.5003C40.9414 57.1203 41.7414 56.2803 42.8214 56.2803C43.3214 56.2803 43.7814 56.4803 44.1214 56.9203V56.3803H45.2414V60.6003L44.1214 60.6203ZM44.1214 59.2403V57.7603C43.9414 57.4803 43.5414 57.2603 43.1614 57.2603C42.5214 57.2603 42.0814 57.7603 42.0814 58.4803C42.0814 59.2203 42.5214 59.7203 43.1614 59.7203C43.5214 59.7203 43.9414 59.5203 44.1214 59.2403Z" fill="#FEFEFE"/>
<path d="M47.4598 60.0603V62.2203H46.3398V56.3803H47.4598V56.9203C47.7798 56.5003 48.2398 56.2803 48.7598 56.2803C49.8398 56.2803 50.6398 57.0803 50.6398 58.5003C50.6398 59.9203 49.8598 60.7203 48.7598 60.7203C48.2598 60.7203 47.7998 60.5003 47.4598 60.0603ZM49.4798 58.5003C49.4798 57.7803 49.0398 57.2803 48.3998 57.2803C48.0398 57.2803 47.6398 57.4803 47.4398 57.7603V59.2403C47.6198 59.5203 48.0398 59.7403 48.3998 59.7403C49.0398 59.7203 49.4798 59.2203 49.4798 58.5003Z" fill="#FEFEFE"/>
<path d="M51.3398 55.2606C51.3398 54.9006 51.6398 54.6006 51.9998 54.6006C52.3598 54.6006 52.6598 54.8806 52.6598 55.2606C52.6598 55.6206 52.3598 55.9206 51.9998 55.9206C51.6398 55.9206 51.3398 55.6206 51.3398 55.2606ZM51.4398 60.6206V56.4006H52.5598V60.6206H51.4398Z" fill="#FEFEFE"/>
<path d="M53.8797 59.5607V57.3607H53.1797V56.3807H53.8797V55.2207H54.9997V56.3807H55.8597V57.3607H54.9997V59.2607C54.9997 59.5407 55.1397 59.7407 55.3797 59.7407C55.5397 59.7407 55.6997 59.6807 55.7597 59.6007L55.9997 60.4407C55.8397 60.5807 55.5397 60.7207 55.0797 60.7207C54.2997 60.7207 53.8797 60.3207 53.8797 59.5607Z" fill="#FEFEFE"/>
<path d="M59.5198 60.6203V60.0803C59.1798 60.5003 58.7398 60.7203 58.2198 60.7203C57.1598 60.7203 56.3398 59.9203 56.3398 58.5003C56.3398 57.1203 57.1398 56.2803 58.2198 56.2803C58.7198 56.2803 59.1798 56.4803 59.5198 56.9203V56.3803H60.6398V60.6003L59.5198 60.6203ZM59.5198 59.2403V57.7603C59.3398 57.4803 58.9398 57.2603 58.5598 57.2603C57.9198 57.2603 57.4798 57.7603 57.4798 58.4803C57.4798 59.2203 57.9198 59.7203 58.5598 59.7203C58.9398 59.7203 59.3398 59.5203 59.5198 59.2403Z" fill="#FEFEFE"/>
<path d="M61.7422 59.5603V54.7803H62.8622V59.2603C62.8622 59.5403 63.0022 59.7403 63.2422 59.7403C63.4022 59.7403 63.5622 59.6803 63.6222 59.6003L63.8622 60.4403C63.7022 60.5803 63.3822 60.7203 62.9422 60.7203C62.1622 60.7203 61.7422 60.3203 61.7422 59.5603Z" fill="#FEFEFE"/>
<path d="M66.6406 60.6203V54.7803H69.3806C70.6406 54.7803 71.3406 55.6403 71.3406 56.6603C71.3406 57.6803 70.6406 58.5403 69.3806 58.5403H67.9006V60.6203H66.6406ZM70.0606 56.6603C70.0606 56.1603 69.6806 55.8803 69.2006 55.8803H67.8806V57.4403H69.2006C69.6806 57.4403 70.0606 57.1403 70.0606 56.6603Z" fill="#FEFEFE"/>
<path d="M74.8402 60.6203V60.0803C74.5002 60.5003 74.0602 60.7203 73.5402 60.7203C72.4802 60.7203 71.6602 59.9203 71.6602 58.5003C71.6602 57.1203 72.4602 56.2803 73.5402 56.2803C74.0402 56.2803 74.5002 56.4803 74.8402 56.9203V56.3803H75.9602V60.6003L74.8402 60.6203ZM74.8402 59.2403V57.7603C74.6602 57.4803 74.2602 57.2603 73.8802 57.2603C73.2402 57.2603 72.8002 57.7603 72.8002 58.4803C72.8002 59.2203 73.2402 59.7203 73.8802 59.7203C74.2402 59.7203 74.6402 59.5203 74.8402 59.2403Z" fill="#FEFEFE"/>
<path d="M77.0586 60.6203V56.4003H78.1786V56.9603C78.4786 56.6003 78.9986 56.2803 79.5186 56.2803V57.3603C79.4386 57.3403 79.3386 57.3403 79.2186 57.3403C78.8586 57.3403 78.3586 57.5403 78.1786 57.8203V60.6203H77.0586Z" fill="#FEFEFE"/>
<path d="M80.4422 59.5607V57.3607H79.7422V56.3807H80.4422V55.2207H81.5622V56.3807H82.4222V57.3607H81.5622V59.2607C81.5622 59.5407 81.7022 59.7407 81.9422 59.7407C82.1022 59.7407 82.2622 59.6807 82.3222 59.6007L82.5622 60.4407C82.4022 60.5807 82.1022 60.7207 81.6422 60.7207C80.8422 60.7207 80.4422 60.3207 80.4422 59.5607Z" fill="#FEFEFE"/>
<path d="M86.0202 60.6203V58.0603C86.0202 57.4803 85.7202 57.2803 85.2402 57.2803C84.8002 57.2803 84.4602 57.5203 84.2802 57.7803V60.6403H83.1602V56.4203H84.2802V56.9603C84.5602 56.6403 85.0802 56.3203 85.7602 56.3203C86.7002 56.3203 87.1402 56.8403 87.1402 57.6603V60.6403L86.0202 60.6203Z" fill="#FEFEFE"/>
<path d="M87.9609 58.5003C87.9609 57.2803 88.8809 56.2803 90.1409 56.2803C91.4009 56.2803 92.2609 57.2203 92.2609 58.6003V58.8603H89.1209C89.2009 59.3803 89.6209 59.8003 90.3409 59.8003C90.7009 59.8003 91.1809 59.6603 91.4609 59.3803L91.9609 60.1203C91.5409 60.5003 90.8809 60.7003 90.2209 60.7003C88.9409 60.7203 87.9609 59.8403 87.9609 58.5003ZM90.1609 57.1803C89.4609 57.1803 89.1809 57.6603 89.1209 58.0803H91.2009C91.1609 57.6803 90.8809 57.1803 90.1609 57.1803Z" fill="#FEFEFE"/>
<path d="M93.082 60.6203V56.4003H94.202V56.9603C94.502 56.6003 95.022 56.2803 95.542 56.2803V57.3603C95.462 57.3403 95.362 57.3403 95.242 57.3403C94.882 57.3403 94.382 57.5403 94.202 57.8203V60.6203H93.082Z" fill="#FEFEFE"/>
<path d="M95.8594 60.0603L96.3394 59.2603C96.6594 59.5603 97.2794 59.8403 97.7994 59.8403C98.2794 59.8403 98.4994 59.6603 98.4994 59.4003C98.4994 58.7003 95.9994 59.2803 95.9994 57.6203C95.9994 56.9203 96.6194 56.2803 97.7394 56.2803C98.4394 56.2803 99.0194 56.5203 99.4394 56.8603L98.9994 57.6403C98.7394 57.3803 98.2594 57.1403 97.7394 57.1403C97.3394 57.1403 97.0794 57.3203 97.0794 57.5603C97.0794 58.1803 99.5994 57.6603 99.5994 59.3603C99.5994 60.1403 98.9394 60.7003 97.7594 60.7003C97.0194 60.7203 96.2994 60.4803 95.8594 60.0603Z" fill="#FEFEFE"/>
<path d="M34.9414 57.6997C34.9414 55.8997 36.3014 54.6797 38.0614 54.6797C39.3414 54.6797 40.0814 55.3797 40.5014 56.0997L39.4414 56.6197C39.2014 56.1397 38.6614 55.7797 38.0814 55.7797C37.0214 55.7797 36.2414 56.5997 36.2414 57.6997C36.2414 58.7997 37.0214 59.6197 38.0814 59.6197C38.6814 59.6197 39.2014 59.2397 39.4414 58.7797L40.5014 59.2997C40.0814 60.0197 39.3414 60.7397 38.0614 60.7397C36.3014 60.7197 34.9414 59.4797 34.9414 57.6997Z" fill="#FEFEFE"/>
<path d="M44.1214 60.6203V60.0803C43.7814 60.5003 43.3414 60.7203 42.8214 60.7203C41.7614 60.7203 40.9414 59.9203 40.9414 58.5003C40.9414 57.1203 41.7414 56.2803 42.8214 56.2803C43.3214 56.2803 43.7814 56.4803 44.1214 56.9203V56.3803H45.2414V60.6003L44.1214 60.6203ZM44.1214 59.2403V57.7603C43.9414 57.4803 43.5414 57.2603 43.1614 57.2603C42.5214 57.2603 42.0814 57.7603 42.0814 58.4803C42.0814 59.2203 42.5214 59.7203 43.1614 59.7203C43.5214 59.7203 43.9414 59.5203 44.1214 59.2403Z" fill="#FEFEFE"/>
<path d="M47.4598 60.0603V62.2203H46.3398V56.3803H47.4598V56.9203C47.7798 56.5003 48.2398 56.2803 48.7598 56.2803C49.8398 56.2803 50.6398 57.0803 50.6398 58.5003C50.6398 59.9203 49.8598 60.7203 48.7598 60.7203C48.2598 60.7203 47.7998 60.5003 47.4598 60.0603ZM49.4798 58.5003C49.4798 57.7803 49.0398 57.2803 48.3998 57.2803C48.0398 57.2803 47.6398 57.4803 47.4398 57.7603V59.2403C47.6198 59.5203 48.0398 59.7403 48.3998 59.7403C49.0398 59.7203 49.4798 59.2203 49.4798 58.5003Z" fill="#FEFEFE"/>
<path d="M51.3398 55.2606C51.3398 54.9006 51.6398 54.6006 51.9998 54.6006C52.3598 54.6006 52.6598 54.8806 52.6598 55.2606C52.6598 55.6206 52.3598 55.9206 51.9998 55.9206C51.6398 55.9206 51.3398 55.6206 51.3398 55.2606ZM51.4398 60.6206V56.4006H52.5598V60.6206H51.4398Z" fill="#FEFEFE"/>
<path d="M53.8797 59.5607V57.3607H53.1797V56.3807H53.8797V55.2207H54.9997V56.3807H55.8597V57.3607H54.9997V59.2607C54.9997 59.5407 55.1397 59.7407 55.3797 59.7407C55.5397 59.7407 55.6997 59.6807 55.7597 59.6007L55.9997 60.4407C55.8397 60.5807 55.5397 60.7207 55.0797 60.7207C54.2997 60.7207 53.8797 60.3207 53.8797 59.5607Z" fill="#FEFEFE"/>
<path d="M59.5198 60.6203V60.0803C59.1798 60.5003 58.7398 60.7203 58.2198 60.7203C57.1598 60.7203 56.3398 59.9203 56.3398 58.5003C56.3398 57.1203 57.1398 56.2803 58.2198 56.2803C58.7198 56.2803 59.1798 56.4803 59.5198 56.9203V56.3803H60.6398V60.6003L59.5198 60.6203ZM59.5198 59.2403V57.7603C59.3398 57.4803 58.9398 57.2603 58.5598 57.2603C57.9198 57.2603 57.4798 57.7603 57.4798 58.4803C57.4798 59.2203 57.9198 59.7203 58.5598 59.7203C58.9398 59.7203 59.3398 59.5203 59.5198 59.2403Z" fill="#FEFEFE"/>
<path d="M61.7422 59.5603V54.7803H62.8622V59.2603C62.8622 59.5403 63.0022 59.7403 63.2422 59.7403C63.4022 59.7403 63.5622 59.6803 63.6222 59.6003L63.8622 60.4403C63.7022 60.5803 63.3822 60.7203 62.9422 60.7203C62.1622 60.7203 61.7422 60.3203 61.7422 59.5603Z" fill="#FEFEFE"/>
<path d="M66.6406 60.6203V54.7803H69.3806C70.6406 54.7803 71.3406 55.6403 71.3406 56.6603C71.3406 57.6803 70.6406 58.5403 69.3806 58.5403H67.9006V60.6203H66.6406ZM70.0606 56.6603C70.0606 56.1603 69.6806 55.8803 69.2006 55.8803H67.8806V57.4403H69.2006C69.6806 57.4403 70.0606 57.1403 70.0606 56.6603Z" fill="#FEFEFE"/>
<path d="M74.8402 60.6203V60.0803C74.5002 60.5003 74.0602 60.7203 73.5402 60.7203C72.4802 60.7203 71.6602 59.9203 71.6602 58.5003C71.6602 57.1203 72.4602 56.2803 73.5402 56.2803C74.0402 56.2803 74.5002 56.4803 74.8402 56.9203V56.3803H75.9602V60.6003L74.8402 60.6203ZM74.8402 59.2403V57.7603C74.6602 57.4803 74.2602 57.2603 73.8802 57.2603C73.2402 57.2603 72.8002 57.7603 72.8002 58.4803C72.8002 59.2203 73.2402 59.7203 73.8802 59.7203C74.2402 59.7203 74.6402 59.5203 74.8402 59.2403Z" fill="#FEFEFE"/>
<path d="M77.0586 60.6203V56.4003H78.1786V56.9603C78.4786 56.6003 78.9986 56.2803 79.5186 56.2803V57.3603C79.4386 57.3403 79.3386 57.3403 79.2186 57.3403C78.8586 57.3403 78.3586 57.5403 78.1786 57.8203V60.6203H77.0586Z" fill="#FEFEFE"/>
<path d="M80.4422 59.5607V57.3607H79.7422V56.3807H80.4422V55.2207H81.5622V56.3807H82.4222V57.3607H81.5622V59.2607C81.5622 59.5407 81.7022 59.7407 81.9422 59.7407C82.1022 59.7407 82.2622 59.6807 82.3222 59.6007L82.5622 60.4407C82.4022 60.5807 82.1022 60.7207 81.6422 60.7207C80.8422 60.7207 80.4422 60.3207 80.4422 59.5607Z" fill="#FEFEFE"/>
<path d="M86.0202 60.6203V58.0603C86.0202 57.4803 85.7202 57.2803 85.2402 57.2803C84.8002 57.2803 84.4602 57.5203 84.2802 57.7803V60.6403H83.1602V56.4203H84.2802V56.9603C84.5602 56.6403 85.0802 56.3203 85.7602 56.3203C86.7002 56.3203 87.1402 56.8403 87.1402 57.6603V60.6403L86.0202 60.6203Z" fill="#FEFEFE"/>
<path d="M87.9609 58.5003C87.9609 57.2803 88.8809 56.2803 90.1409 56.2803C91.4009 56.2803 92.2609 57.2203 92.2609 58.6003V58.8603H89.1209C89.2009 59.3803 89.6209 59.8003 90.3409 59.8003C90.7009 59.8003 91.1809 59.6603 91.4609 59.3803L91.9609 60.1203C91.5409 60.5003 90.8809 60.7003 90.2209 60.7003C88.9409 60.7203 87.9609 59.8403 87.9609 58.5003ZM90.1609 57.1803C89.4609 57.1803 89.1809 57.6603 89.1209 58.0803H91.2009C91.1609 57.6803 90.8809 57.1803 90.1609 57.1803Z" fill="#FEFEFE"/>
<path d="M93.082 60.6203V56.4003H94.202V56.9603C94.502 56.6003 95.022 56.2803 95.542 56.2803V57.3603C95.462 57.3403 95.362 57.3403 95.242 57.3403C94.882 57.3403 94.382 57.5403 94.202 57.8203V60.6203H93.082Z" fill="#FEFEFE"/>
<path d="M95.8594 60.0603L96.3394 59.2603C96.6594 59.5603 97.2794 59.8403 97.7994 59.8403C98.2794 59.8403 98.4994 59.6603 98.4994 59.4003C98.4994 58.7003 95.9994 59.2803 95.9994 57.6203C95.9994 56.9203 96.6194 56.2803 97.7394 56.2803C98.4394 56.2803 99.0194 56.5203 99.4394 56.8603L98.9994 57.6403C98.7394 57.3803 98.2594 57.1403 97.7394 57.1403C97.3394 57.1403 97.0794 57.3203 97.0794 57.5603C97.0794 58.1803 99.5994 57.6603 99.5994 59.3603C99.5994 60.1403 98.9394 60.7003 97.7594 60.7003C97.0194 60.7203 96.2994 60.4803 95.8594 60.0603Z" fill="#FEFEFE"/>
</svg>
