<svg width="72" height="72" viewBox="0 0 72 72" fill="none" xmlns="http://www.w3.org/2000/svg">
<path d="M46.9759 24.2788C46.0255 21.874 44.0671 19.7572 41.2303 16.4596C37.3855 11.9812 37.3279 10.6276 36.6367 8.09323C36.6367 8.09323 36.6367 3.09643 36.6367 3.08203C37.2271 7.61803 40.6831 14.1124 44.5423 17.6548C43.9951 16.5172 44.4415 14.8612 44.8879 13.6948C44.7151 17.1364 47.8111 20.1748 48.9775 23.5156C49.1647 24.0628 50.2447 26.5252 49.1359 29.146C48.1999 31.3492 44.5279 33.7972 40.6399 35.1652C40.6399 35.0788 49.8847 31.6228 46.9759 24.2788Z" fill="#FEFEFE"/>
<path d="M26.3123 24.2788C27.2627 21.874 29.2211 19.7572 32.0579 16.4596C35.9027 11.9812 35.9603 10.6276 36.6515 8.09323C36.6515 8.09323 36.6515 3.09643 36.6515 3.08203C36.0467 7.63243 32.5907 14.1124 28.7315 17.6548C29.2787 16.5172 28.8323 14.8612 28.3859 13.6948C28.5587 17.1364 25.4627 20.1748 24.2963 23.5156C24.1091 24.0628 23.0291 26.5252 24.1379 29.146C25.0739 31.3492 28.7171 33.754 32.6051 35.122C32.6051 35.0212 23.3891 31.6228 26.3123 24.2788Z" fill="#FEFEFE"/>
<path d="M45.0569 41.3419C45.7913 41.8171 46.5833 42.1914 47.4329 42.4506C48.2825 42.7098 49.1753 42.8107 50.1833 42.7963C52.1273 42.7819 54.1289 42.2635 55.6841 40.9243C56.4617 40.2619 57.1241 39.3978 57.6137 38.4186C58.0025 37.6266 58.2905 36.7339 58.4633 35.8123C58.4489 35.8123 58.4345 35.8123 58.4345 35.7979C58.4201 35.8843 58.3913 35.9707 58.3625 36.0715C58.1753 36.7483 57.8729 37.7562 57.1673 38.8506C56.4761 39.945 55.3529 41.1114 53.7113 41.817C52.8905 42.177 51.9401 42.4075 50.9033 42.5083C50.3849 42.5515 49.8377 42.5658 49.2761 42.537C48.7145 42.5226 48.1961 42.4362 47.6633 42.321C46.5833 42.0618 45.5321 41.5578 44.4953 40.809C43.4585 40.0602 42.4649 39.0955 41.4713 37.9579C41.0825 37.5115 40.6937 37.0506 40.3049 36.561C40.2905 36.5898 40.2761 36.6187 40.2617 36.6619C40.5497 37.0219 40.8521 37.3963 41.1689 37.7563C42.3209 39.0955 43.5737 40.3915 45.0569 41.3419Z" fill="#FEFEFE"/>
<path d="M44.8562 40.708C45.8498 41.428 46.8722 41.9032 47.909 42.1624C48.917 42.4072 50.069 42.436 51.077 42.3496C52.085 42.2632 53.0066 42.0184 53.813 41.6728C55.4258 40.9816 56.5346 39.8296 57.197 38.7496C57.8738 37.6696 58.1906 36.6904 58.3634 36.028C58.3922 35.9416 58.4066 35.8696 58.421 35.7832C58.421 35.7832 58.421 35.7832 58.4066 35.7832C58.1618 36.6904 57.8594 37.5256 57.4418 38.2888C56.9234 39.2248 56.2754 40.0168 55.5122 40.636C54.0002 41.86 52.1426 42.3064 50.2994 42.3208C49.853 42.3208 49.349 42.3064 48.9458 42.2488C48.5282 42.2056 48.1106 42.1192 47.7218 42.004C46.9298 41.7736 46.1954 41.4424 45.4898 41.0104C44.093 40.1464 42.8546 38.9224 41.717 37.6264C41.4146 37.2808 41.1122 36.9352 40.8242 36.5752C41.1986 37.0504 41.5586 37.5112 41.933 37.9288C42.8978 39.052 43.8626 40.0024 44.8562 40.708Z" fill="#FEFEFE"/>
<path d="M41.1964 38.5619C42.2044 39.7139 43.2412 40.7075 44.35 41.4563C45.4444 42.2195 46.6108 42.7235 47.7772 42.9539C48.9292 43.1843 50.1388 43.1555 51.2188 43.0259C52.2988 42.8819 53.278 42.5795 54.1132 42.1619C55.798 41.3123 56.878 40.0307 57.4828 38.8787C58.102 37.7267 58.3324 36.7187 58.462 36.0419C58.4764 35.9555 58.4908 35.8835 58.5052 35.8115H58.4908C58.1308 37.8419 57.2524 39.6851 55.87 40.9379C54.358 42.3491 52.3564 42.9539 50.398 43.0403C49.4044 43.0835 48.454 43.0259 47.5756 42.8099C46.6828 42.5939 45.8476 42.2339 45.07 41.7875C43.5148 40.8803 42.19 39.5987 40.9948 38.2739C40.6636 37.8995 40.3324 37.5251 40.0156 37.1363C40.4044 37.6403 40.7932 38.1155 41.1964 38.5619Z" fill="#FEFEFE"/>
<path d="M44.586 42.1036C45.4068 42.5932 46.2852 42.9964 47.2356 43.2412C48.186 43.486 49.1939 43.558 50.2307 43.5148C52.2899 43.4284 54.4356 42.766 56.0196 41.2396C57.4596 39.886 58.2948 37.9132 58.5252 35.8252C58.5107 35.8252 58.5108 35.8252 58.4964 35.8252C58.482 35.9116 58.4676 35.998 58.4531 36.0844C58.3235 36.7756 58.0932 37.798 57.4596 38.9788C56.826 40.1452 55.7316 41.47 54.0036 42.3196C53.1396 42.7516 52.1315 43.054 51.0227 43.198C50.4755 43.27 49.8851 43.3132 49.2947 43.2988C48.7043 43.2988 48.114 43.2412 47.5092 43.1116C46.2996 42.8668 45.1043 42.334 43.9667 41.542C42.8291 40.7644 41.7635 39.742 40.7267 38.5756C40.4099 38.2156 40.0932 37.8412 39.7764 37.4668C39.762 37.4956 39.7331 37.51 39.7188 37.5388C39.9491 37.8124 40.1796 38.1004 40.4244 38.374C41.6196 39.7564 42.9588 41.0956 44.586 42.1036Z" fill="#FEFEFE"/>
<path d="M44.1225 42.8668C45.0153 43.3852 45.9945 43.8028 47.0457 44.0332C48.0969 44.278 49.2057 44.3212 50.3001 44.2348C51.3945 44.1484 52.5033 43.9036 53.5545 43.4716C54.6057 43.0396 55.5705 42.3916 56.3625 41.542C57.8025 40.0156 58.5225 37.942 58.5801 35.8252H58.5657C58.5657 35.9116 58.5513 35.9836 58.5513 36.0844C58.4793 36.7756 58.3209 37.8412 57.7449 39.094C57.4569 39.7132 57.0537 40.39 56.4921 41.038C55.9305 41.686 55.1961 42.3052 54.2889 42.8092C53.3817 43.3132 52.3161 43.6876 51.1497 43.8892C49.9689 44.0764 48.6873 44.1628 47.3481 43.918C46.0089 43.6876 44.6697 43.126 43.4313 42.3052C42.1929 41.4844 41.0409 40.4188 39.9753 39.2236C39.6729 38.8924 39.3705 38.5324 39.0681 38.1868C39.0393 38.2012 39.0249 38.2156 38.9961 38.2444C39.2121 38.5036 39.4425 38.7628 39.6729 39.022C40.9113 40.4188 42.3369 41.8156 44.1225 42.8668Z" fill="#FEFEFE"/>
<path d="M40.4628 39.2092C41.514 40.39 42.6372 41.4268 43.8468 42.2188C45.0564 43.0108 46.3524 43.5436 47.6484 43.7596C48.2964 43.8748 48.93 43.9036 49.5492 43.8892C50.1684 43.8748 50.7732 43.8172 51.3492 43.7164C52.5012 43.5148 53.538 43.1548 54.4164 42.6508C55.2948 42.1612 56.0004 41.5564 56.5476 40.9084C57.0948 40.2748 57.498 39.6124 57.7716 39.0076C58.3332 37.7692 58.4916 36.7468 58.5636 36.0556C58.578 35.9692 58.578 35.8972 58.578 35.8252C58.5636 35.8252 58.5636 35.8252 58.5492 35.8252C58.362 37.87 57.5988 39.8284 56.202 41.2396C55.4388 42.0172 54.5316 42.622 53.538 43.0252C52.5444 43.4284 51.5076 43.6588 50.4564 43.7452C49.4052 43.8316 48.3684 43.8028 47.3892 43.6012C46.3956 43.3996 45.474 43.0252 44.61 42.55C42.8964 41.5996 41.4852 40.2604 40.2468 38.9068C39.9444 38.5756 39.6564 38.2444 39.3828 37.9132C39.7284 38.3596 40.0884 38.7916 40.4628 39.2092Z" fill="#FEFEFE"/>
<path d="M43.6429 43.6324C44.6077 44.1652 45.6877 44.6116 46.8397 44.842C47.9917 45.0868 49.2157 45.1012 50.3533 44.9716C51.5053 44.842 52.6861 44.554 53.7949 44.05C54.8893 43.546 55.9117 42.7972 56.7037 41.8756C57.4957 40.954 58.0573 39.8452 58.3597 38.6932C58.6045 37.7716 58.6909 36.8068 58.6477 35.8564C58.6477 35.9428 58.6477 36.0292 58.6477 36.1156C58.6333 36.8212 58.5469 37.9156 58.0429 39.2548C57.7837 39.9172 57.4093 40.6516 56.8333 41.3572C56.2717 42.0628 55.5229 42.7684 54.5869 43.3444C53.6509 43.9204 52.5277 44.3668 51.2749 44.6116C50.6557 44.7412 50.0077 44.8132 49.3309 44.8564C48.6541 44.8996 47.9197 44.8708 47.1997 44.7556C45.7309 44.5396 44.2477 43.9492 42.9085 43.0852C41.5693 42.2212 40.3453 41.1124 39.2221 39.9028C38.8765 39.5284 38.5309 39.1396 38.1997 38.7364C38.1709 38.7508 38.1421 38.7652 38.1133 38.7652C38.3725 39.0676 38.6317 39.3844 38.9053 39.6868C40.2013 41.0836 41.6989 42.538 43.6429 43.6324Z" fill="#FEFEFE"/>
<path d="M39.7157 39.843C40.8245 41.0526 42.0053 42.1326 43.3301 42.9678C44.6405 43.803 46.0805 44.3502 47.5061 44.5518C48.2117 44.6526 48.9173 44.667 49.5653 44.6238C50.2277 44.595 50.8613 44.5086 51.4661 44.379C52.6757 44.1198 53.7845 43.6878 54.6917 43.1262C55.6133 42.5646 56.3333 41.8734 56.8805 41.1822C57.4277 40.4766 57.8021 39.771 58.0469 39.123C58.5509 37.8126 58.6229 36.747 58.6373 36.0702C58.6373 35.9838 58.6373 35.9118 58.6373 35.8398C58.6229 35.8398 58.6085 35.8398 58.5941 35.8398C58.5797 37.9134 57.9173 39.987 56.5349 41.5566C55.7717 42.4206 54.8213 43.1118 53.7845 43.587C52.7477 44.0766 51.6245 44.3502 50.5301 44.4798C49.4357 44.6094 48.3125 44.6094 47.2181 44.4078C46.1381 44.2062 45.1013 43.8174 44.1653 43.3278C42.2933 42.3342 40.7957 40.9518 39.4997 39.5694C39.1829 39.2238 38.8805 38.8782 38.5781 38.5326C38.9525 38.9646 39.3269 39.411 39.7157 39.843Z" fill="#FEFEFE"/>
<path d="M58.6634 35.8259C58.721 36.7619 58.649 37.6979 58.433 38.6195C58.1594 39.7715 57.641 40.8803 56.8778 41.8307C56.1146 42.7811 55.121 43.5587 54.0266 44.1203C52.9322 44.6819 51.7514 44.9987 50.5994 45.1715C50.009 45.2579 49.4474 45.3011 48.8426 45.3155C48.2378 45.3155 47.633 45.2723 47.0426 45.1715C45.8618 44.9843 44.7242 44.5811 43.7162 44.0627C41.6858 43.0259 40.1018 41.5859 38.7626 40.1747C38.3594 39.7571 37.985 39.3251 37.625 38.9075C38.057 39.4403 38.5034 39.9731 38.9786 40.4627C40.1306 41.7011 41.3978 42.8387 42.8234 43.7027C44.2346 44.5667 45.833 45.1427 47.3738 45.3299C48.137 45.4307 48.929 45.4307 49.5914 45.3587C50.2826 45.3011 50.9594 45.2003 51.593 45.0419C52.8746 44.7395 54.0266 44.2355 54.977 43.5875C55.9274 42.9539 56.6618 42.1907 57.209 41.4275C57.7418 40.6643 58.1018 39.9011 58.3178 39.2099C58.7642 37.8275 58.7498 36.7331 58.721 36.0419C58.721 35.9843 58.7066 35.9267 58.7066 35.8835C58.7066 35.8547 58.7066 35.8259 58.6922 35.8115C58.6922 35.8259 58.6778 35.8259 58.6634 35.8259Z" fill="#FEFEFE"/>
<path d="M58.3052 39.354C58.0604 40.0596 57.7148 40.8372 57.1532 41.6148C56.5916 42.3924 55.8284 43.17 54.8492 43.8036C53.87 44.4516 52.6892 44.9556 51.3644 45.258C50.702 45.4164 50.0252 45.5172 49.3196 45.5748C48.5996 45.6324 47.8076 45.618 47.0156 45.5172C45.4172 45.3156 43.8044 44.6964 42.3644 43.7892C40.91 42.8964 39.6284 41.7444 38.462 40.4916C38.0012 40.002 37.5692 39.498 37.1516 38.994C37.1228 38.994 37.094 39.0084 37.0652 39.0084C37.0652 39.0084 37.0652 39.0084 37.0508 39.0228C37.4108 39.4404 37.7708 39.8724 38.1596 40.29C39.4988 41.7444 41.0828 43.2564 43.1852 44.3796C44.222 44.9412 45.4028 45.3876 46.6556 45.618C47.9084 45.8628 49.2332 45.834 50.414 45.6612C51.638 45.4884 52.8764 45.1572 54.0284 44.5668C55.1804 43.9908 56.246 43.1556 57.038 42.1476C57.83 41.1252 58.3628 39.9444 58.6076 38.7348C58.7948 37.7988 58.8236 36.8484 58.7228 35.9268C58.7228 35.9844 58.7372 36.0276 58.7372 36.0852C58.766 36.8196 58.766 37.9284 58.3052 39.354Z" fill="#FEFEFE"/>
<path d="M58.7058 35.9116C58.7058 35.926 58.7058 35.9404 58.7058 35.9404C58.7058 35.8972 58.7058 35.8684 58.6914 35.8252C58.7058 35.854 58.7058 35.8828 58.7058 35.9116Z" fill="#FEFEFE"/>
<path d="M37.5977 38.9072L37.6121 38.9216C37.6121 38.9216 37.6121 38.9072 37.5977 38.9072Z" fill="#FEFEFE"/>
<path d="M58.7235 36.07C58.7523 36.7756 58.7667 37.8556 58.3203 39.238C58.0899 39.9292 57.7443 40.6924 57.2115 41.4556C56.6787 42.2188 55.9299 42.9676 54.9795 43.6156C54.0291 44.2492 52.8771 44.7676 51.5955 45.07C50.9475 45.2284 50.2851 45.3292 49.5939 45.3868C48.9171 45.4444 48.1251 45.4444 47.3763 45.358C45.8211 45.1852 44.2371 44.6092 42.8259 43.7308C41.4003 42.8668 40.1331 41.7292 38.9811 40.4908C38.5059 39.9868 38.0595 39.4684 37.6275 38.9356L37.6131 38.9212C37.4691 38.9644 37.3107 38.9932 37.1523 39.022C37.5843 39.526 38.0163 40.03 38.4627 40.5196C39.6291 41.7724 40.9107 42.9244 42.3651 43.8172C43.8051 44.71 45.4323 45.3292 47.0163 45.5452C47.8083 45.6604 48.6003 45.6604 49.3203 45.6028C50.0259 45.5452 50.7171 45.4444 51.3651 45.286C52.6755 44.9836 53.8707 44.4796 54.8499 43.8316C55.8291 43.1836 56.5923 42.4204 57.1539 41.6428C57.7155 40.8652 58.0611 40.0876 58.3059 39.382C58.7667 37.9564 58.7523 36.8476 58.7235 36.1276C58.7235 36.07 58.7235 36.0268 58.7091 35.9692C58.7091 35.9548 58.7091 35.9404 58.7091 35.9404C58.7235 35.9548 58.7235 36.0124 58.7235 36.07Z" fill="#FEFEFE"/>
<path d="M58.7235 36.07C58.7523 36.7756 58.7667 37.8556 58.3203 39.238C58.0899 39.9292 57.7443 40.6924 57.2115 41.4556C56.6787 42.2188 55.9299 42.9676 54.9795 43.6156C54.0291 44.2492 52.8771 44.7676 51.5955 45.07C50.9475 45.2284 50.2851 45.3292 49.5939 45.3868C48.9171 45.4444 48.1251 45.4444 47.3763 45.358C45.8211 45.1852 44.2371 44.6092 42.8259 43.7308C41.4003 42.8668 40.1331 41.7292 38.9811 40.4908C38.5059 39.9868 38.0595 39.4684 37.6275 38.9356L37.6131 38.9212C37.4691 38.9644 37.3107 38.9932 37.1523 39.022C37.5843 39.526 38.0163 40.03 38.4627 40.5196C39.6291 41.7724 40.9107 42.9244 42.3651 43.8172C43.8051 44.71 45.4323 45.3292 47.0163 45.5452C47.8083 45.6604 48.6003 45.6604 49.3203 45.6028C50.0259 45.5452 50.7171 45.4444 51.3651 45.286C52.6755 44.9836 53.8707 44.4796 54.8499 43.8316C55.8291 43.1836 56.5923 42.4204 57.1539 41.6428C57.7155 40.8652 58.0611 40.0876 58.3059 39.382C58.7667 37.9564 58.7523 36.8476 58.7235 36.1276C58.7235 36.07 58.7235 36.0268 58.7091 35.9692C58.7091 35.9548 58.7091 35.9404 58.7091 35.9404C58.7235 35.9548 58.7235 36.0124 58.7235 36.07Z" fill="#FEFEFE"/>
<path d="M58.6367 36.07C58.6223 36.7612 58.5503 37.8124 58.0463 39.1228C57.7871 39.7708 57.4271 40.4764 56.8799 41.182C56.3327 41.8732 55.6127 42.5644 54.6911 43.126C53.7839 43.6876 52.6895 44.134 51.4655 44.3788C50.8607 44.5084 50.2271 44.5804 49.5647 44.6236C48.9167 44.6668 48.2111 44.6524 47.5055 44.5516C46.0799 44.35 44.6399 43.8028 43.3295 42.9676C42.0191 42.1324 40.8239 41.0524 39.7151 39.8428C39.3263 39.4108 38.9519 38.9644 38.5775 38.518C38.4479 38.59 38.3327 38.6476 38.2031 38.7052C38.5343 39.1084 38.8799 39.4972 39.2255 39.8716C40.3487 41.0956 41.5583 42.2044 42.9119 43.054C44.2511 43.918 45.7343 44.5084 47.2031 44.7244C47.9375 44.8396 48.6575 44.8684 49.3343 44.8252C50.0111 44.7964 50.6591 44.71 51.2783 44.5804C52.5167 44.3356 53.6543 43.8892 54.5903 43.3132C55.5263 42.7372 56.2751 42.046 56.8367 41.326C57.3983 40.606 57.7727 39.886 58.0463 39.2236C58.5647 37.8844 58.6367 36.8044 58.6511 36.0844C58.6511 35.9836 58.6511 35.8972 58.6511 35.8252C58.6367 35.8972 58.6367 35.9836 58.6367 36.07Z" fill="#FEFEFE"/>
<path d="M58.6367 36.07C58.6223 36.7612 58.5503 37.8124 58.0463 39.1228C57.7871 39.7708 57.4271 40.4764 56.8799 41.182C56.3327 41.8732 55.6127 42.5644 54.6911 43.126C53.7839 43.6876 52.6895 44.134 51.4655 44.3788C50.8607 44.5084 50.2271 44.5804 49.5647 44.6236C48.9167 44.6668 48.2111 44.6524 47.5055 44.5516C46.0799 44.35 44.6399 43.8028 43.3295 42.9676C42.0191 42.1324 40.8239 41.0524 39.7151 39.8428C39.3263 39.4108 38.9519 38.9644 38.5775 38.518C38.4479 38.59 38.3327 38.6476 38.2031 38.7052C38.5343 39.1084 38.8799 39.4972 39.2255 39.8716C40.3487 41.0956 41.5583 42.2044 42.9119 43.054C44.2511 43.918 45.7343 44.5084 47.2031 44.7244C47.9375 44.8396 48.6575 44.8684 49.3343 44.8252C50.0111 44.7964 50.6591 44.71 51.2783 44.5804C52.5167 44.3356 53.6543 43.8892 54.5903 43.3132C55.5263 42.7372 56.2751 42.046 56.8367 41.326C57.3983 40.606 57.7727 39.886 58.0463 39.2236C58.5647 37.8844 58.6367 36.8044 58.6511 36.0844C58.6511 35.9836 58.6511 35.8972 58.6511 35.8252C58.6367 35.8972 58.6367 35.9836 58.6367 36.07Z" fill="#FEFEFE"/>
<path d="M58.5496 36.0556C58.4776 36.7324 58.3192 37.7692 57.7576 39.0076C57.4696 39.6268 57.0808 40.2748 56.5336 40.9084C55.9864 41.542 55.2664 42.1468 54.4024 42.6508C53.524 43.1404 52.4872 43.5148 51.3352 43.7164C50.7592 43.8172 50.1544 43.8748 49.5352 43.8892C48.916 43.9036 48.2824 43.8748 47.6344 43.7596C46.3384 43.5436 45.0424 43.0108 43.8328 42.2188C42.6232 41.4268 41.5 40.39 40.4488 39.2092C40.0744 38.806 39.7144 38.374 39.3688 37.9276C39.268 38.0284 39.1672 38.1148 39.0664 38.1868C39.3688 38.5468 39.6568 38.8924 39.9736 39.2236C41.0536 40.4188 42.1912 41.4844 43.4296 42.3052C44.668 43.126 46.0072 43.6876 47.3464 43.918C48.6856 44.1484 49.9672 44.0764 51.148 43.8892C52.3288 43.6876 53.3944 43.3132 54.2872 42.8092C55.1944 42.3052 55.9144 41.686 56.4904 41.038C57.052 40.39 57.4552 39.7132 57.7432 39.094C58.3192 37.8268 58.4776 36.7756 58.5496 36.0844C58.564 35.998 58.564 35.9116 58.564 35.8252C58.564 35.8972 58.5496 35.9692 58.5496 36.0556Z" fill="#FEFEFE"/>
<path d="M58.5496 36.0556C58.4776 36.7324 58.3192 37.7692 57.7576 39.0076C57.4696 39.6268 57.0808 40.2748 56.5336 40.9084C55.9864 41.542 55.2664 42.1468 54.4024 42.6508C53.524 43.1404 52.4872 43.5148 51.3352 43.7164C50.7592 43.8172 50.1544 43.8748 49.5352 43.8892C48.916 43.9036 48.2824 43.8748 47.6344 43.7596C46.3384 43.5436 45.0424 43.0108 43.8328 42.2188C42.6232 41.4268 41.5 40.39 40.4488 39.2092C40.0744 38.806 39.7144 38.374 39.3688 37.9276C39.268 38.0284 39.1672 38.1148 39.0664 38.1868C39.3688 38.5468 39.6568 38.8924 39.9736 39.2236C41.0536 40.4188 42.1912 41.4844 43.4296 42.3052C44.668 43.126 46.0072 43.6876 47.3464 43.918C48.6856 44.1484 49.9672 44.0764 51.148 43.8892C52.3288 43.6876 53.3944 43.3132 54.2872 42.8092C55.1944 42.3052 55.9144 41.686 56.4904 41.038C57.052 40.39 57.4552 39.7132 57.7432 39.094C58.3192 37.8268 58.4776 36.7756 58.5496 36.0844C58.564 35.998 58.564 35.9116 58.564 35.8252C58.564 35.8972 58.5496 35.9692 58.5496 36.0556Z" fill="#FEFEFE"/>
<path d="M58.4646 36.0414C58.335 36.7182 58.1046 37.7262 57.4854 38.8782C56.8662 40.0302 55.8006 41.3118 54.1158 42.1614C53.2806 42.579 52.3014 42.8814 51.2214 43.0254C50.1414 43.155 48.9318 43.1838 47.7798 42.9534C46.6134 42.723 45.4614 42.219 44.3526 41.4558C43.2438 40.707 42.207 39.699 41.199 38.5614C40.7958 38.1006 40.407 37.6254 40.0182 37.1358C39.9462 37.251 39.8598 37.3662 39.7734 37.4814C40.0902 37.8702 40.407 38.2302 40.7238 38.5902C41.7606 39.7566 42.8262 40.779 43.9638 41.5566C45.1014 42.3342 46.2966 42.867 47.5062 43.1262C48.111 43.2558 48.7014 43.3134 49.2918 43.3134C49.8966 43.3134 50.4726 43.2846 51.0198 43.2126C52.1286 43.0686 53.1366 42.7518 54.0006 42.3342C55.7286 41.4702 56.8374 40.1598 57.4566 38.9934C58.0902 37.8126 58.3206 36.7758 58.4502 36.099C58.4646 36.0126 58.479 35.9262 58.4934 35.8398C58.479 35.883 58.479 35.9694 58.4646 36.0414Z" fill="#FEFEFE"/>
<path d="M58.4646 36.0414C58.335 36.7182 58.1046 37.7262 57.4854 38.8782C56.8662 40.0302 55.8006 41.3118 54.1158 42.1614C53.2806 42.579 52.3014 42.8814 51.2214 43.0254C50.1414 43.155 48.9318 43.1838 47.7798 42.9534C46.6134 42.723 45.4614 42.219 44.3526 41.4558C43.2438 40.707 42.207 39.699 41.199 38.5614C40.7958 38.1006 40.407 37.6254 40.0182 37.1358C39.9462 37.251 39.8598 37.3662 39.7734 37.4814C40.0902 37.8702 40.407 38.2302 40.7238 38.5902C41.7606 39.7566 42.8262 40.779 43.9638 41.5566C45.1014 42.3342 46.2966 42.867 47.5062 43.1262C48.111 43.2558 48.7014 43.3134 49.2918 43.3134C49.8966 43.3134 50.4726 43.2846 51.0198 43.2126C52.1286 43.0686 53.1366 42.7518 54.0006 42.3342C55.7286 41.4702 56.8374 40.1598 57.4566 38.9934C58.0902 37.8126 58.3206 36.7758 58.4502 36.099C58.4646 36.0126 58.479 35.9262 58.4934 35.8398C58.479 35.883 58.479 35.9694 58.4646 36.0414Z" fill="#FEFEFE"/>
<path d="M40.8353 36.5748C40.7057 36.4164 40.5905 36.258 40.4609 36.0996V36.114C40.5761 36.258 40.7057 36.4164 40.8353 36.5748Z" fill="#FEFEFE"/>
<path d="M58.3623 36.0419C58.1895 36.7043 57.8727 37.6835 57.1959 38.7635C56.5191 39.8435 55.4103 40.9811 53.8119 41.6867C53.0055 42.0323 52.0839 42.2627 51.0759 42.3635C50.0679 42.4499 48.9159 42.4211 47.9079 42.1763C46.8711 41.9315 45.8487 41.4419 44.8551 40.7219C43.8615 40.0019 42.8967 39.0515 41.9463 37.9283C41.5719 37.4963 41.2119 37.0499 40.8375 36.5747C40.7079 36.4163 40.5927 36.2723 40.4631 36.1139C40.4199 36.2723 40.3767 36.4163 40.3047 36.5747C40.6935 37.0643 41.0823 37.5251 41.4711 37.9715C42.4647 39.1091 43.4583 40.0739 44.4951 40.8227C45.5319 41.5715 46.5975 42.0755 47.6631 42.3347C48.2103 42.4643 48.7287 42.5363 49.2759 42.5507C49.8375 42.5795 50.3847 42.5651 50.9031 42.5219C51.9399 42.4211 52.8903 42.1907 53.7111 41.8307C55.3671 41.1251 56.4903 39.9587 57.1671 38.8643C57.8583 37.7555 58.1751 36.7619 58.3623 36.0851C58.3911 35.9843 58.4055 35.8979 58.4343 35.8115C58.4055 35.8691 58.3911 35.9555 58.3623 36.0419Z" fill="#FEFEFE"/>
<path d="M58.3623 36.0419C58.1895 36.7043 57.8727 37.6835 57.1959 38.7635C56.5191 39.8435 55.4103 40.9811 53.8119 41.6867C53.0055 42.0323 52.0839 42.2627 51.0759 42.3635C50.0679 42.4499 48.9159 42.4211 47.9079 42.1763C46.8711 41.9315 45.8487 41.4419 44.8551 40.7219C43.8615 40.0019 42.8967 39.0515 41.9463 37.9283C41.5719 37.4963 41.2119 37.0499 40.8375 36.5747C40.7079 36.4163 40.5927 36.2723 40.4631 36.1139C40.4199 36.2723 40.3767 36.4163 40.3047 36.5747C40.6935 37.0643 41.0823 37.5251 41.4711 37.9715C42.4647 39.1091 43.4583 40.0739 44.4951 40.8227C45.5319 41.5715 46.5975 42.0755 47.6631 42.3347C48.2103 42.4643 48.7287 42.5363 49.2759 42.5507C49.8375 42.5795 50.3847 42.5651 50.9031 42.5219C51.9399 42.4211 52.8903 42.1907 53.7111 41.8307C55.3671 41.1251 56.4903 39.9587 57.1671 38.8643C57.8583 37.7555 58.1751 36.7619 58.3623 36.0851C58.3911 35.9843 58.4055 35.8979 58.4343 35.8115C58.4055 35.8691 58.3911 35.9555 58.3623 36.0419Z" fill="#FEFEFE"/>
<path d="M40.393 33.9827C41.9338 32.0819 45.3034 28.3667 48.2122 27.9923C48.2122 27.9923 56.3914 26.1923 58.4218 34.3715C58.465 34.3427 58.5802 35.4083 58.6378 35.3939C58.681 35.3795 58.5802 35.3363 58.7098 34.2563C58.9114 32.6579 58.9402 28.8275 55.1098 26.1779C55.1098 26.1779 49.2058 22.2755 43.0426 25.8611C42.0058 26.4659 40.2922 27.4019 37.0234 31.2035C37.8874 31.3187 38.7082 31.6931 39.3706 32.3267C39.8602 32.8019 40.2058 33.3635 40.393 33.9827Z" fill="#FEFEFE"/>
<path d="M32.7059 36.6189C31.0499 38.5917 27.9971 41.8173 25.3043 42.1629C25.3043 42.1629 17.1683 43.9629 15.1667 35.7549C15.0803 35.7981 14.9939 35.8269 14.8931 35.8269C14.6771 37.3965 14.6195 41.2701 18.4643 43.9629C18.4643 43.9629 24.3251 47.8653 30.4451 44.2797C31.4675 43.6749 33.1523 42.7533 36.3491 39.0237C35.3411 38.9949 34.3475 38.6205 33.5843 37.8717C33.1955 37.5117 32.9075 37.0797 32.7059 36.6189Z" fill="#FEFEFE"/>
<path d="M40.0183 37.1365L40.0039 37.1221C40.0039 37.1221 40.0039 37.1365 40.0183 37.1365Z" fill="#FEFEFE"/>
<path d="M40.0183 37.1365L40.0039 37.1221C40.0039 37.1221 40.0039 37.1365 40.0183 37.1365Z" fill="#FEFEFE"/>
<path d="M35.438 29.8627C34.0988 28.4083 32.5148 26.8963 30.4124 25.7731C29.3756 25.2115 28.1948 24.7651 26.942 24.5347C25.6892 24.2899 24.3644 24.3187 23.1836 24.4915C21.9596 24.6643 20.7212 24.9955 19.5692 25.5859C18.4172 26.1619 17.3516 26.9971 16.5596 28.0051C15.7676 29.0275 15.2348 30.2083 14.99 31.4179C14.7884 32.4259 14.7596 33.4483 14.918 34.4419C14.9468 34.6435 14.9756 34.8307 15.0188 35.0179C14.99 34.8163 14.9612 34.6291 14.9468 34.4275C14.8604 33.4627 14.9324 32.4835 15.1628 31.5331C15.4364 30.3811 15.9548 29.2723 16.718 28.3219C17.4812 27.3715 18.4748 26.5939 19.5692 26.0323C20.6636 25.4707 21.8444 25.1539 22.9964 24.9811C23.5868 24.8947 24.1484 24.8515 24.7532 24.8371C25.358 24.8371 25.9628 24.8803 26.5532 24.9811C27.734 25.1683 28.8716 25.5715 29.8796 26.0899C31.91 27.1267 33.494 28.5667 34.8332 29.9779C35.222 30.3955 35.5964 30.7987 35.942 31.2163C36.1292 31.1875 36.3164 31.1731 36.5036 31.1731C36.518 31.1587 36.518 31.1587 36.5324 31.1443C36.1868 30.7123 35.8268 30.2803 35.438 29.8627Z" fill="#FEFEFE"/>
<path d="M14.9934 34.428C14.9934 32.3256 15.6414 30.2088 17.0526 28.6104C17.8158 27.7464 18.7662 27.0552 19.803 26.58C20.8398 26.0904 21.963 25.8168 23.0574 25.6872C24.1518 25.5576 25.275 25.5576 26.3694 25.7592C27.4494 25.9608 28.4862 26.3496 29.4222 26.8392C31.2942 27.8328 32.7918 29.2152 34.0878 30.5976C34.3614 30.9 34.635 31.188 34.8942 31.4904C35.0526 31.4184 35.2254 31.3608 35.3982 31.3032C35.1678 31.0296 34.923 30.756 34.6782 30.4824C33.3822 29.0568 31.8846 27.6024 29.9406 26.508C28.9758 25.9752 27.8958 25.5288 26.7438 25.2984C25.5918 25.0536 24.3678 25.0392 23.2302 25.1688C22.0782 25.2984 20.8974 25.5864 19.7886 26.0904C18.6942 26.5944 17.6718 27.3432 16.8798 28.2648C16.0878 29.1864 15.5262 30.2952 15.2238 31.4472C14.9646 32.412 14.8782 33.4056 14.9502 34.3848C14.9646 34.5864 14.979 34.7736 15.0078 34.9752C15.0078 34.8168 14.9934 34.6296 14.9934 34.428Z" fill="#FEFEFE"/>
<path d="M15.144 34.4426C15.3888 33.5066 15.7056 32.6426 16.1376 31.865C16.656 30.929 17.304 30.137 18.0672 29.5178C19.5792 28.2938 21.4368 27.8474 23.28 27.833C23.7264 27.833 24.2304 27.8474 24.6336 27.905C25.0512 27.9482 25.4688 28.0346 25.8576 28.1498C26.6496 28.3802 27.384 28.7114 28.0896 29.1434C29.4864 30.0074 30.7248 31.2314 31.8624 32.5274C32.1792 32.8874 32.4816 33.2474 32.784 33.6218C32.856 33.449 32.9424 33.2906 33.0288 33.1322C32.8272 32.8874 32.6256 32.6426 32.424 32.3978C31.272 31.0586 30.0192 29.7626 28.536 28.8122C27.8016 28.337 27.0096 27.9626 26.16 27.7034C25.3104 27.4442 24.4176 27.3434 23.4096 27.3578C21.4656 27.3722 19.464 27.8906 17.9088 29.2298C17.1312 29.8922 16.4688 30.7562 15.9792 31.7354C15.576 32.5562 15.288 33.4634 15.1008 34.4282C15.0576 34.6154 15.0288 34.817 15 35.0186C15.0432 34.817 15.1008 34.6298 15.144 34.4426Z" fill="#FEFEFE"/>
<path d="M15.0915 34.4301C15.4371 32.3565 16.3299 30.4845 17.7267 29.2173C19.2387 27.8061 21.2403 27.2013 23.1987 27.1149C24.1923 27.0717 25.1427 27.1293 26.0211 27.3453C26.9139 27.5613 27.7491 27.9213 28.5267 28.3677C30.0819 29.2749 31.4067 30.5565 32.6019 31.8813C32.8467 32.1549 33.0771 32.4285 33.3219 32.7021C33.4227 32.5725 33.5379 32.4429 33.6531 32.3277C33.4947 32.1405 33.3363 31.9533 33.1779 31.7661C31.9827 30.3981 30.6435 29.0445 29.0019 28.0509C28.1811 27.5613 27.3027 27.1581 26.3523 26.9133C25.4019 26.6685 24.3939 26.5965 23.3571 26.6397C21.2979 26.7261 19.1523 27.3885 17.5683 28.9149C16.1139 30.2973 15.2787 32.2989 15.0627 34.4157C15.0483 34.6173 15.0339 34.8045 15.0195 35.0061C15.0339 34.8189 15.0627 34.6317 15.0915 34.4301Z" fill="#FEFEFE"/>
<path d="M15.0432 34.4289C15.216 32.3409 15.9792 30.3393 17.3904 28.9137C18.1536 28.1361 19.0608 27.5313 20.0544 27.1281C21.048 26.7249 22.0848 26.4945 23.136 26.4081C24.1872 26.3217 25.224 26.3505 26.2032 26.5521C27.1968 26.7537 28.1184 27.1281 28.9824 27.6033C30.696 28.5537 32.1072 29.8929 33.3456 31.2465C33.576 31.5057 33.8064 31.7649 34.0224 32.0097C34.152 31.9089 34.296 31.8081 34.44 31.7217C34.2672 31.5201 34.0944 31.3185 33.9216 31.1169C32.6688 29.7201 31.2576 28.3233 29.472 27.2721C28.5792 26.7537 27.6 26.3361 26.5488 26.1057C25.4976 25.8609 24.3888 25.8177 23.2944 25.9041C22.2 25.9905 21.0912 26.2353 20.04 26.6673C18.9888 27.0993 18.024 27.7473 17.232 28.5969C15.7632 30.1377 15.0432 32.2689 15 34.4145C15 34.6161 15 34.8033 15 35.0049C15.0144 34.8177 15.0288 34.6161 15.0432 34.4289Z" fill="#FEFEFE"/>
<path d="M36.5464 37.7431C37.9699 37.7431 39.124 36.5891 39.124 35.1655C39.124 33.7419 37.9699 32.5879 36.5464 32.5879C35.1228 32.5879 33.9688 33.7419 33.9688 35.1655C33.9688 36.5891 35.1228 37.7431 36.5464 37.7431Z" fill="#FEFEFE"/>
<path d="M15.0327 36.1573C15.4542 36.1573 15.7959 35.8156 15.7959 35.3941C15.7959 34.9726 15.4542 34.6309 15.0327 34.6309C14.6112 34.6309 14.2695 34.9726 14.2695 35.3941C14.2695 35.8156 14.6112 36.1573 15.0327 36.1573Z" fill="#FEFEFE"/>
<path d="M58.5796 36.1573C59.0011 36.1573 59.3428 35.8156 59.3428 35.3941C59.3428 34.9726 59.0011 34.6309 58.5796 34.6309C58.1581 34.6309 57.8164 34.9726 57.8164 35.3941C57.8164 35.8156 58.1581 36.1573 58.5796 36.1573Z" fill="#FEFEFE"/>
<path d="M6.509 57.756C6.0914 57.756 5.7314 57.7272 5.4002 57.6696C5.069 57.612 4.781 57.54 4.5218 57.4536C4.2626 57.3672 4.0322 57.252 3.8162 57.1368C3.6146 57.0216 3.413 56.892 3.2402 56.7624L3.125 55.6824H3.1826C3.2546 55.884 3.3986 56.0856 3.6002 56.316C3.8162 56.532 4.061 56.7336 4.3634 56.9208C4.6658 57.108 4.997 57.252 5.3714 57.3816C5.7458 57.4968 6.1202 57.5544 6.4946 57.5544C7.0274 57.5544 7.445 57.4968 7.7618 57.3816C8.0786 57.2664 8.3234 57.108 8.4962 56.9208C8.669 56.7336 8.7842 56.532 8.8418 56.316C8.8994 56.1 8.9282 55.884 8.9282 55.6824C8.9282 55.3944 8.8562 55.164 8.6978 54.9624C8.5394 54.7752 8.3378 54.6024 8.0786 54.4728C7.8194 54.3432 7.5314 54.228 7.2002 54.1272C6.869 54.0264 6.5378 53.94 6.1922 53.8536C5.8466 53.7672 5.5154 53.6664 5.1842 53.5656C4.853 53.4648 4.565 53.3352 4.3058 53.1768C4.0466 53.0184 3.845 52.8312 3.6866 52.6152C3.5282 52.3992 3.4562 52.1112 3.4562 51.7944C3.4562 51.5352 3.5138 51.3048 3.6146 51.0744C3.7154 50.844 3.8882 50.6424 4.1042 50.4696C4.3202 50.2968 4.5938 50.1528 4.925 50.052C5.2562 49.9512 5.645 49.8936 6.077 49.8936C6.4658 49.8936 6.8258 49.9224 7.1426 49.98C7.4594 50.0376 7.7474 50.1096 7.9922 50.196C8.237 50.2824 8.4674 50.3976 8.6546 50.5128C8.8418 50.628 9.0146 50.7576 9.1586 50.8872L9.2738 51.9672H9.2162C9.1442 51.7656 9.029 51.564 8.8418 51.3336C8.6546 51.1176 8.4242 50.916 8.165 50.7288C7.8914 50.5416 7.5746 50.3976 7.229 50.268C6.8834 50.1528 6.4946 50.0952 6.077 50.0952C5.7314 50.0952 5.429 50.1384 5.1842 50.2248C4.925 50.3112 4.7234 50.4264 4.565 50.5704C4.4066 50.7144 4.277 50.8872 4.205 51.0744C4.1186 51.2616 4.0898 51.4776 4.0898 51.6936C4.0898 51.9528 4.1618 52.1544 4.3202 52.3272C4.4786 52.5 4.6802 52.644 4.9394 52.7592C5.1986 52.8888 5.4866 52.9896 5.8178 53.076C6.149 53.1624 6.4802 53.2632 6.8258 53.3496C7.1714 53.4504 7.5026 53.5512 7.8338 53.652C8.165 53.7672 8.453 53.8968 8.7122 54.0552C8.9714 54.2136 9.173 54.4152 9.3314 54.6456C9.4898 54.876 9.5618 55.1496 9.5618 55.4952C9.5618 55.812 9.5186 56.1144 9.4178 56.388C9.3314 56.6616 9.1586 56.892 8.9282 57.108C8.6978 57.3096 8.381 57.468 7.9922 57.5832C7.589 57.6984 7.0994 57.756 6.509 57.756Z" fill="#FEFEFE"/>
<path d="M15.1617 57.7557C14.6145 57.7557 14.1105 57.6549 13.6353 57.4533C13.1601 57.2517 12.7425 56.9637 12.3825 56.6037C12.0225 56.2437 11.7489 55.8261 11.5329 55.3509C11.3313 54.8757 11.2305 54.3573 11.2305 53.8101C11.2305 53.2773 11.3313 52.7589 11.5329 52.2837C11.7345 51.8085 12.0225 51.3909 12.3825 51.0309C12.7425 50.6709 13.1601 50.3973 13.6353 50.1813C14.1105 49.9797 14.6289 49.8789 15.1617 49.8789C15.6945 49.8789 16.2129 49.9797 16.6881 50.1813C17.1633 50.3829 17.5809 50.6709 17.9409 51.0309C18.2865 51.3909 18.5745 51.8085 18.7761 52.2837C18.9777 52.7589 19.0785 53.2629 19.0785 53.8101C19.0785 54.3573 18.9777 54.8613 18.7761 55.3509C18.5745 55.8261 18.2865 56.2437 17.9409 56.6037C17.5953 56.9637 17.1777 57.2373 16.6881 57.4533C16.2129 57.6549 15.6945 57.7557 15.1617 57.7557ZM18.3729 54.0693C18.3729 53.6229 18.2865 53.1621 18.1281 52.6869C17.9697 52.2117 17.7393 51.7941 17.4513 51.4053C17.1633 51.0165 16.8033 50.7141 16.3713 50.4549C15.9537 50.2101 15.4641 50.0805 14.9313 50.0805C14.5281 50.0805 14.1537 50.1669 13.7937 50.3397C13.4337 50.5125 13.1169 50.7429 12.8289 51.0597C12.5553 51.3621 12.3393 51.7365 12.1665 52.1685C12.0081 52.6005 11.9217 53.0757 11.9217 53.5941C11.9217 54.0405 12.0081 54.5013 12.1665 54.9765C12.3249 55.4517 12.5553 55.8693 12.8433 56.2581C13.1313 56.6469 13.4913 56.9637 13.9233 57.2085C14.3553 57.4533 14.8305 57.5685 15.3489 57.5685C15.7521 57.5685 16.1265 57.4821 16.4865 57.3093C16.8465 57.1365 17.1633 56.9061 17.4513 56.5893C17.7249 56.2869 17.9409 55.9125 18.1137 55.4805C18.2865 55.0629 18.3729 54.5877 18.3729 54.0693Z" fill="#FEFEFE"/>
<path d="M21.3555 50.0654V50.0222H22.5075V50.0654C22.3923 50.1374 22.3203 50.2238 22.2915 50.3246C22.2771 50.4254 22.2627 50.5118 22.2627 50.5838V54.8894C22.2627 55.2782 22.2915 55.6382 22.3635 55.9694C22.4355 56.3006 22.5507 56.5742 22.6947 56.8046C22.8531 57.035 23.0403 57.2222 23.2851 57.3374C23.5155 57.467 23.8035 57.5246 24.1347 57.5246C24.4803 57.5246 24.7827 57.467 25.0419 57.3662C25.3011 57.251 25.5171 57.107 25.7043 56.9342C25.8915 56.747 26.0355 56.531 26.1507 56.2862C26.2659 56.0414 26.3523 55.7678 26.4243 55.4942C26.4963 55.2206 26.5395 54.9326 26.5683 54.6446C26.5971 54.3566 26.6115 54.0686 26.6115 53.795V50.5694C26.6115 50.4974 26.5971 50.411 26.5827 50.3102C26.5683 50.2094 26.4963 50.123 26.3667 50.051V50.0078H27.5187V50.051C27.4035 50.123 27.3315 50.2094 27.3027 50.3102C27.2883 50.411 27.2739 50.4974 27.2739 50.5694V57.0206C27.2739 57.0926 27.2883 57.179 27.3027 57.2798C27.3171 57.3806 27.3891 57.467 27.5187 57.539V57.5822H26.3667V57.539C26.4819 57.467 26.5539 57.3806 26.5827 57.2798C26.5971 57.179 26.6115 57.0926 26.6115 57.0206V55.5374C26.5395 55.8686 26.4531 56.1566 26.3235 56.4302C26.1939 56.7038 26.0355 56.9342 25.8339 57.1214C25.6323 57.3086 25.4019 57.467 25.1139 57.5678C24.8403 57.6686 24.5235 57.7262 24.1491 57.7262C23.7459 57.7262 23.4003 57.683 23.0835 57.5822C22.7667 57.4814 22.5075 57.3374 22.2915 57.107C22.0755 56.891 21.9027 56.603 21.7875 56.2286C21.6723 55.8686 21.6147 55.4078 21.6147 54.8606V50.555C21.6147 50.483 21.6003 50.3966 21.5859 50.2958C21.5427 50.2382 21.4707 50.1374 21.3555 50.0654Z" fill="#FEFEFE"/>
<path d="M29.8516 57.581C29.9668 57.509 30.0388 57.4226 30.0676 57.3218C30.082 57.221 30.0964 57.1346 30.0964 57.0626V50.6114C30.0964 50.5394 30.082 50.453 30.0676 50.3522C30.0532 50.2514 29.9812 50.165 29.8516 50.093V50.0498H32.4868C33.0196 50.0498 33.4804 50.1074 33.8692 50.2082C34.258 50.3234 34.5748 50.4674 34.8196 50.669C35.0644 50.8562 35.2516 51.0866 35.3812 51.3458C35.5108 51.605 35.5684 51.893 35.5684 52.1954C35.5684 52.4978 35.5108 52.7858 35.3812 53.045C35.2516 53.3042 35.0788 53.5346 34.8196 53.7218C34.5748 53.909 34.258 54.0674 33.8692 54.1682C33.4804 54.2834 33.0196 54.3266 32.4868 54.3266H30.7732V57.0482C30.7732 57.1202 30.7876 57.2066 30.802 57.3074C30.8164 57.4082 30.8884 57.4946 31.018 57.5666V57.6098H29.866L29.8516 57.581ZM30.7588 50.2082V54.1394H32.2852C32.7748 54.1394 33.1924 54.0818 33.5092 53.9522C33.8404 53.8226 34.0996 53.6642 34.2868 53.4626C34.4884 53.261 34.618 53.045 34.7044 52.7858C34.7908 52.541 34.8196 52.2818 34.8196 52.0226C34.8196 51.4322 34.6324 50.9858 34.2724 50.669C33.9124 50.3522 33.3076 50.1938 32.458 50.1938L30.7588 50.2082Z" fill="#FEFEFE"/>
<path d="M37.8125 57.6105V57.5673C37.9277 57.4953 37.9997 57.4089 38.0285 57.3081C38.0429 57.2073 38.0573 57.1209 38.0573 57.0489V50.5977C38.0573 50.5257 38.0429 50.4393 38.0285 50.3385C38.0141 50.2377 37.9421 50.1513 37.8125 50.0793V50.0361H38.9645V50.0793C38.8493 50.1513 38.7773 50.2377 38.7485 50.3385C38.7341 50.4393 38.7197 50.5257 38.7197 50.5977V53.5929H43.1549V50.5977C43.1549 50.5257 43.1405 50.4393 43.1261 50.3385C43.1117 50.2377 43.0397 50.1513 42.9101 50.0793V50.0361H44.0621V50.0793C43.9469 50.1513 43.8749 50.2377 43.8461 50.3385C43.8317 50.4393 43.8173 50.5257 43.8173 50.5977V57.0489C43.8173 57.1209 43.8317 57.2073 43.8461 57.3081C43.8605 57.4089 43.9325 57.4953 44.0621 57.5673V57.6105H42.9101V57.5673C43.0253 57.4953 43.0973 57.4089 43.1261 57.3081C43.1405 57.2073 43.1549 57.1209 43.1549 57.0489V53.7801H38.7341V57.0489C38.7341 57.1209 38.7485 57.2073 38.7629 57.3081C38.7773 57.4089 38.8493 57.4953 38.9789 57.5673V57.6105H37.8125Z" fill="#FEFEFE"/>
<path d="M53.1784 55.6968L53.0632 56.7768C52.9336 56.9064 52.7896 57.0216 52.6312 57.1512C52.4728 57.2664 52.2856 57.3816 52.0696 57.468C51.8536 57.5544 51.6088 57.6408 51.3208 57.684C51.0328 57.7272 50.7016 57.7704 50.2984 57.7704C49.7512 57.7704 49.2472 57.6696 48.772 57.468C48.2968 57.2664 47.8792 56.9784 47.5192 56.6184C47.1592 56.2584 46.8856 55.8408 46.6696 55.3656C46.468 54.8904 46.3672 54.372 46.3672 53.8248C46.3672 53.292 46.468 52.7736 46.6696 52.2984C46.8712 51.8232 47.1592 51.4056 47.5192 51.0456C47.8792 50.6856 48.2968 50.412 48.772 50.196C49.2472 49.9944 49.7656 49.8936 50.2984 49.8936C50.6152 49.8936 50.9032 49.9224 51.1624 49.98C51.4216 50.0376 51.652 50.1096 51.868 50.196C52.084 50.2824 52.2712 50.3976 52.4296 50.5128C52.6024 50.628 52.7464 50.7576 52.876 50.8872L52.9912 51.9672H52.9336C52.8616 51.7656 52.7608 51.5496 52.588 51.3336C52.4296 51.1176 52.228 50.9016 51.9832 50.7288C51.7384 50.5416 51.4648 50.3976 51.1336 50.268C50.8168 50.1384 50.4568 50.0808 50.068 50.0808C49.6648 50.0808 49.2904 50.1672 48.9304 50.34C48.5704 50.5128 48.2536 50.7432 47.9656 51.06C47.692 51.3624 47.476 51.7368 47.3032 52.1688C47.1448 52.6008 47.0584 53.076 47.0584 53.5944C47.0584 53.6376 47.0584 53.6808 47.0584 53.7384C47.0584 53.7816 47.0584 53.8392 47.0728 53.8824C47.2456 54.012 47.4184 54.1128 47.5912 54.1704C47.764 54.228 47.9224 54.2568 48.0952 54.2568C48.3832 54.2568 48.6712 54.1848 48.9592 54.0408C49.2328 53.8968 49.5208 53.7528 49.7944 53.58C50.068 53.4072 50.356 53.2632 50.644 53.1192C50.932 52.9752 51.22 52.9032 51.508 52.9032C51.7384 52.9032 51.9832 52.9608 52.228 53.076C52.4728 53.1912 52.7176 53.3928 52.9768 53.6952L52.8904 53.7672C52.732 53.6088 52.5736 53.508 52.4152 53.436C52.2568 53.3784 52.0984 53.3352 51.9544 53.3352C51.6952 53.3352 51.436 53.4072 51.1768 53.5368C50.9176 53.6664 50.6584 53.8248 50.3848 53.9976C50.1112 54.1704 49.8232 54.3144 49.5352 54.4584C49.2472 54.588 48.9304 54.66 48.6136 54.66C48.3832 54.66 48.1384 54.6168 47.8936 54.516C47.6488 54.4296 47.3896 54.2568 47.116 54.0264C47.1592 54.4584 47.2744 54.876 47.4616 55.2936C47.6488 55.7112 47.8792 56.0856 48.1672 56.4312C48.4552 56.7624 48.8008 57.036 49.1896 57.252C49.5784 57.468 50.0248 57.5688 50.5144 57.5688C50.8456 57.5688 51.1624 57.5112 51.436 57.3816C51.724 57.252 51.9832 57.108 52.1992 56.9208C52.4296 56.7336 52.6168 56.532 52.7752 56.316C52.9336 56.1 53.0488 55.884 53.1208 55.6824L53.1784 55.6968Z" fill="#FEFEFE"/>
<path d="M55.2578 57.581C55.373 57.509 55.445 57.4226 55.4738 57.3218C55.4882 57.221 55.5026 57.1346 55.5026 57.0626V50.6114C55.5026 50.5394 55.4882 50.453 55.4738 50.3522C55.4594 50.2514 55.3874 50.165 55.2578 50.093V50.0498H57.893C58.4258 50.0498 58.8866 50.093 59.2754 50.1938C59.6642 50.2946 59.981 50.4242 60.2258 50.597C60.4706 50.7698 60.6578 50.9714 60.7874 51.2162C60.917 51.461 60.9746 51.7202 60.9746 52.0082C60.9746 52.6274 60.7442 53.117 60.2978 53.477C59.8514 53.8226 59.1314 54.0242 58.1666 54.053C58.4978 54.1538 58.757 54.3122 58.9586 54.5282C59.1458 54.7442 59.3042 54.9602 59.4338 55.205C59.5634 55.4498 59.6642 55.6946 59.7362 55.9538C59.8226 56.213 59.909 56.4434 60.0098 56.6594C60.1106 56.8754 60.2402 57.0338 60.3986 57.1778C60.557 57.3074 60.773 57.3794 61.0322 57.3794C61.2194 57.3794 61.3922 57.3362 61.5218 57.2642C61.6514 57.1778 61.8242 57.0482 62.0114 56.861L62.0978 56.933C61.8962 57.221 61.6946 57.4514 61.493 57.5954C61.2914 57.7394 61.0322 57.8114 60.7298 57.8114C60.341 57.8114 60.0386 57.725 59.837 57.5378C59.6354 57.3506 59.477 57.1202 59.3618 56.8466C59.2466 56.573 59.1602 56.2706 59.0882 55.9538C59.0162 55.637 58.9154 55.3346 58.8002 55.061C58.685 54.7874 58.4978 54.557 58.2674 54.3698C58.037 54.1826 57.7058 54.0962 57.2882 54.0962H56.237V57.1202C56.237 57.1922 56.2514 57.2786 56.2658 57.3794C56.2802 57.4802 56.3522 57.5666 56.4818 57.6386V57.6818H55.3298L55.2578 57.581ZM57.7058 53.837C58.1954 53.837 58.613 53.7794 58.9298 53.6786C59.261 53.5778 59.5202 53.4338 59.7074 53.261C59.909 53.0882 60.0386 52.8866 60.125 52.6562C60.2114 52.4402 60.2402 52.1954 60.2402 51.965C60.2402 51.3458 60.053 50.8994 59.693 50.6114C59.333 50.3378 58.7282 50.1938 57.8786 50.1938H56.165V53.8226L57.7058 53.837Z" fill="#FEFEFE"/>
<path d="M63.793 50.0361H66.025C66.5578 50.0361 67.0186 50.0793 67.4074 50.1801C67.7962 50.2809 68.113 50.4105 68.3578 50.5833C68.6026 50.7561 68.7898 50.9721 68.9194 51.2169C69.049 51.4617 69.1066 51.7353 69.1066 52.0233C69.1066 52.3113 69.0346 52.5705 68.905 52.8297C68.7754 53.0745 68.5594 53.2905 68.2858 53.4777C68.7034 53.6649 69.0202 53.9241 69.2074 54.2553C69.409 54.5865 69.4954 54.9465 69.4954 55.3641C69.4954 55.6809 69.4378 55.9833 69.3082 56.2569C69.1786 56.5305 69.0058 56.7609 68.7466 56.9769C68.5018 57.1785 68.185 57.3369 67.7962 57.4521C67.4074 57.5673 66.9466 57.6249 66.4138 57.6249H63.793V57.5817C63.9082 57.5097 63.9802 57.4233 64.009 57.3225C64.0234 57.2217 64.0378 57.1353 64.0378 57.0633V50.6121C64.0378 50.5401 64.0234 50.4537 64.009 50.3529C63.9946 50.2521 63.9226 50.1657 63.793 50.0937V50.0361ZM64.7146 50.2089V57.4377H66.4282C67.2778 57.4377 67.8826 57.2649 68.2426 56.9337C68.6026 56.6025 68.7898 56.1273 68.7898 55.5225C68.7898 55.1769 68.7178 54.8457 68.5882 54.5145C68.4586 54.1833 68.2282 53.9097 67.897 53.6937C67.6666 53.7945 67.393 53.8809 67.0762 53.9385C66.7594 53.9961 66.4138 54.0249 66.025 54.0249H65.8666C65.6218 54.0249 65.449 53.9961 65.3338 53.9241C65.2186 53.8521 65.1754 53.7369 65.1754 53.5785C65.1754 53.4201 65.233 53.3193 65.3338 53.2473C65.449 53.1753 65.6218 53.1465 65.8666 53.1465H66.4282C66.6874 53.1465 66.9322 53.1609 67.1626 53.1897C67.393 53.2185 67.5946 53.2617 67.7962 53.3049C68.0122 53.1177 68.1562 52.8873 68.257 52.6569C68.3434 52.4121 68.401 52.1673 68.401 51.9225C68.401 51.3465 68.2138 50.9289 67.8538 50.6409C67.4938 50.3673 66.889 50.2233 66.0394 50.2233L64.7146 50.2089ZM66.025 53.8377H66.0538C66.3706 53.8377 66.6586 53.8089 66.889 53.7513C67.1338 53.6937 67.3354 53.6073 67.5226 53.4921C67.3642 53.4345 67.2058 53.3913 67.0186 53.3625C66.8458 53.3337 66.6442 53.3193 66.4138 53.3193H66.0106C65.7514 53.3193 65.593 53.3337 65.4922 53.3625C65.4058 53.3913 65.3626 53.4633 65.3626 53.5785C65.3626 53.6937 65.4058 53.7657 65.4922 53.7945C65.6074 53.8233 65.7658 53.8377 66.025 53.8377Z" fill="#FEFEFE"/>
<path d="M1.85938 59.7578L10.485 59.7002L19.1106 59.6714L36.3618 59.6426L53.613 59.6714L62.2386 59.7002L70.8642 59.7578L62.2386 59.8298L53.613 59.8586L36.3618 59.8874L19.1106 59.8586L10.485 59.8298L1.85938 59.7578Z" fill="#FEFEFE"/>
<path d="M1.85938 67.8796L10.485 67.822L19.1106 67.7788L36.3618 67.75L53.613 67.7788L62.2386 67.822L70.8642 67.8796L62.2386 67.9372L53.613 67.9804L36.3618 68.0092L19.1106 67.9804L10.485 67.9372L1.85938 67.8796Z" fill="#FEFEFE"/>
<path d="M3.33841 63.0703C3.36721 63.1135 3.42481 63.1567 3.49681 63.1999C3.55441 63.2287 3.61201 63.2719 3.69841 63.3007C3.78481 63.3295 3.87121 63.3583 3.98641 63.4015C4.18801 63.4591 4.37521 63.5311 4.50481 63.6031C4.64881 63.6751 4.76401 63.7615 4.86481 63.8911C4.96561 64.0063 5.00881 64.1647 5.00881 64.3519C5.00881 64.5247 4.96561 64.6831 4.87921 64.8271C4.79281 64.9711 4.66321 65.0863 4.49041 65.1583C4.33201 65.2447 4.14481 65.2879 3.92881 65.2879H3.81361C3.29521 65.2879 2.90641 64.9855 2.63281 64.3807L3.05041 64.1647C3.16561 64.3807 3.29521 64.5535 3.41041 64.6543C3.54001 64.7695 3.68401 64.8271 3.87121 64.8271C3.97201 64.8271 4.07281 64.8127 4.17361 64.7695C4.27441 64.7263 4.34641 64.6687 4.40401 64.5967C4.46161 64.5247 4.49041 64.4527 4.49041 64.3807C4.49041 64.2943 4.46161 64.2223 4.38961 64.1647C4.33201 64.1071 4.24561 64.0495 4.15921 64.0063C4.07281 63.9631 3.94321 63.9199 3.78481 63.8623C3.56881 63.7903 3.39601 63.7183 3.26641 63.6607C3.13681 63.5887 3.02161 63.5023 2.92081 63.3871C2.82001 63.2719 2.77681 63.1279 2.77681 62.9407C2.77681 62.7679 2.82001 62.6239 2.90641 62.4799C2.99281 62.3503 3.12241 62.2351 3.28081 62.1631C3.43921 62.0911 3.61201 62.0479 3.81361 62.0479C4.04401 62.0479 4.24561 62.1055 4.43281 62.2207C4.60561 62.3359 4.79281 62.5231 4.95121 62.7823L4.56241 63.0127C4.46161 62.8831 4.37521 62.7823 4.31761 62.7247C4.26001 62.6671 4.18801 62.6095 4.11601 62.5807C4.02961 62.5375 3.94321 62.5231 3.84241 62.5231C3.68401 62.5231 3.55441 62.5663 3.45361 62.6383C3.35281 62.7103 3.29521 62.8111 3.29521 62.9263C3.29521 62.9695 3.30961 63.0127 3.33841 63.0703Z" fill="#FEFEFE"/>
<path d="M8.78294 62.2492C9.04214 62.3932 9.24374 62.5804 9.38774 62.8252C9.53174 63.07 9.60374 63.3436 9.60374 63.6316C9.60374 63.9196 9.53174 64.1932 9.38774 64.4524C9.24374 64.6972 9.04214 64.8988 8.78294 65.0428C8.52374 65.1868 8.25014 65.2588 7.94774 65.2588C7.64534 65.2588 7.35734 65.1868 7.09814 65.0428C6.83894 64.8988 6.63734 64.6972 6.49334 64.4524C6.34934 64.2076 6.27734 63.934 6.27734 63.646C6.27734 63.358 6.34934 63.0844 6.50774 62.8396C6.65174 62.5948 6.86774 62.3932 7.11254 62.2492C7.37174 62.1052 7.64534 62.0332 7.94774 62.0332C8.25014 62.0332 8.52374 62.1052 8.78294 62.2492ZM8.50934 64.6396C8.68214 64.5388 8.82614 64.3948 8.94134 64.2076C9.04214 64.0204 9.09974 63.8332 9.09974 63.6316C9.09974 63.43 9.04214 63.2428 8.94134 63.07C8.84054 62.8972 8.69654 62.7676 8.52374 62.6668C8.35094 62.566 8.14934 62.5228 7.93334 62.5228C7.71734 62.5228 7.51574 62.566 7.34294 62.6668C7.15574 62.7676 7.02614 62.8972 6.91094 63.07C6.81014 63.2428 6.75254 63.43 6.75254 63.6316C6.75254 63.8332 6.81014 64.0348 6.91094 64.2076C7.01174 64.3804 7.15574 64.5244 7.34294 64.6396C7.51574 64.7404 7.71734 64.798 7.93334 64.798C8.14934 64.798 8.33654 64.7548 8.50934 64.6396Z" fill="#FEFEFE"/>
<path d="M13.3061 62.3932C13.3061 62.6236 13.3061 62.8108 13.3061 62.926V63.5596C13.3061 63.8044 13.3061 63.9628 13.3061 64.0348C13.2917 64.2796 13.2341 64.4956 13.1189 64.6828C13.0037 64.87 12.8597 65.014 12.6869 65.1148C12.4997 65.2156 12.2981 65.2732 12.0821 65.2732C11.8805 65.2732 11.6933 65.23 11.5061 65.1436C11.3189 65.0572 11.1749 64.942 11.0597 64.7836C10.9445 64.6252 10.8725 64.438 10.8581 64.2364C10.8437 64.1644 10.8438 64.006 10.8438 63.7468C10.8438 63.3724 10.8438 63.0844 10.8438 62.8972C10.8438 62.7676 10.8438 62.5804 10.8438 62.3212V62.0332H11.3333V63.4588V63.5596V63.7756C11.3333 63.9772 11.3477 64.15 11.3765 64.294C11.4053 64.438 11.4773 64.5532 11.5925 64.654C11.7077 64.7548 11.8517 64.798 12.0533 64.798C12.2837 64.798 12.4709 64.726 12.6005 64.5964C12.7301 64.4524 12.8021 64.2508 12.8021 63.9772V62.0476H13.3061V62.1484V62.3932Z" fill="#FEFEFE"/>
<path d="M16.6061 65.0575V65.2879H14.5469V62.0479H15.0365V64.8271H16.6061V64.9279V65.0575Z" fill="#FEFEFE"/>
<path d="M19.9854 62.5087H18.3438V63.3871H19.9854V63.8767H18.3438V65.2879H17.8398V62.0479H19.9854V62.5087Z" fill="#FEFEFE"/>
<path d="M23.689 62.3932C23.689 62.6236 23.689 62.8108 23.689 62.926V63.5596C23.689 63.8044 23.689 63.9628 23.689 64.0348C23.6746 64.2796 23.617 64.4956 23.5018 64.6828C23.3866 64.87 23.2426 65.014 23.0698 65.1148C22.8826 65.2156 22.681 65.2732 22.465 65.2732C22.2634 65.2732 22.0762 65.23 21.889 65.1436C21.7018 65.0572 21.5578 64.942 21.4426 64.7836C21.3274 64.6252 21.2554 64.438 21.241 64.2364C21.2266 64.1644 21.2266 64.006 21.2266 63.7468C21.2266 63.3724 21.2266 63.0844 21.2266 62.8972C21.2266 62.7676 21.2266 62.5804 21.2266 62.3212V62.0332H21.7162V63.4588V63.5596V63.7756C21.7162 63.9772 21.7306 64.15 21.7594 64.294C21.7882 64.438 21.8602 64.5532 21.9754 64.654C22.0762 64.7548 22.2346 64.798 22.4362 64.798C22.6666 64.798 22.8538 64.726 22.9834 64.5964C23.113 64.4524 23.185 64.2508 23.185 63.9772V62.0476H23.689V62.1484V62.3932Z" fill="#FEFEFE"/>
<path d="M26.9811 65.0575V65.2879H24.9219V62.0479H25.4115V64.8271H26.9811V64.9279V65.0575Z" fill="#FEFEFE"/>
<path d="M31.0064 63.0703C31.0352 63.1135 31.0928 63.1567 31.1648 63.1999C31.2224 63.2287 31.28 63.2719 31.3664 63.3007C31.4384 63.3295 31.5392 63.3583 31.6544 63.4015C31.856 63.4591 32.0432 63.5311 32.1728 63.6031C32.3168 63.6751 32.432 63.7615 32.5328 63.8911C32.6336 64.0063 32.6768 64.1647 32.6768 64.3519C32.6768 64.5247 32.6336 64.6831 32.5472 64.8271C32.4608 64.9711 32.3312 65.0863 32.1584 65.1583C32 65.2447 31.8128 65.2879 31.5968 65.2879H31.4816C30.9632 65.2879 30.5744 64.9855 30.3008 64.3807L30.7184 64.1647C30.8336 64.3807 30.9632 64.5535 31.0784 64.6543C31.208 64.7695 31.352 64.8271 31.5392 64.8271C31.64 64.8271 31.7408 64.8127 31.8416 64.7695C31.9424 64.7263 32.0144 64.6687 32.072 64.5967C32.1296 64.5247 32.1584 64.4527 32.1584 64.3807C32.1584 64.2943 32.1296 64.2223 32.0576 64.1647C32 64.1071 31.9136 64.0495 31.8272 64.0063C31.7408 63.9631 31.6112 63.9199 31.4528 63.8623C31.2368 63.7903 31.064 63.7183 30.9344 63.6607C30.8048 63.5887 30.6896 63.5023 30.5888 63.3871C30.488 63.2719 30.4448 63.1279 30.4448 62.9407C30.4448 62.7679 30.488 62.6239 30.5744 62.4799C30.6608 62.3503 30.7904 62.2351 30.9488 62.1631C31.1072 62.0911 31.28 62.0479 31.4816 62.0479C31.712 62.0479 31.9136 62.1055 32.1008 62.2207C32.2736 62.3359 32.4608 62.5231 32.6192 62.7823L32.2304 63.0127C32.1296 62.8831 32.0432 62.7823 31.9856 62.7247C31.928 62.6671 31.856 62.6095 31.784 62.5807C31.6976 62.5375 31.6112 62.5231 31.5104 62.5231C31.352 62.5231 31.2224 62.5663 31.1216 62.6383C31.0208 62.7103 30.9632 62.8111 30.9632 62.9263C30.9488 62.9695 30.9632 63.0127 31.0064 63.0703Z" fill="#FEFEFE"/>
<path d="M33.9141 65.2732V62.0332H34.4037V65.2732H33.9141Z" fill="#FEFEFE"/>
<path d="M35.6406 65.2739V62.0339L37.0518 62.0195C37.2534 62.0195 37.4118 62.0627 37.5558 62.1635C37.6998 62.2499 37.8006 62.3795 37.8726 62.5379C37.9446 62.6963 37.9878 62.8691 37.9878 63.0707C37.9878 63.2579 37.959 63.4307 37.887 63.5891C37.815 63.7475 37.7142 63.8771 37.5702 63.9779C37.4262 64.0787 37.2534 64.1219 37.0518 64.1219L36.1302 64.1363V65.2739H35.6406ZM36.6486 63.6323H36.7494C36.9222 63.6323 37.0662 63.6179 37.167 63.6035C37.2678 63.5891 37.3398 63.5315 37.3974 63.4451C37.455 63.3587 37.4838 63.2435 37.4838 63.0707C37.4838 62.8979 37.4406 62.7683 37.3686 62.6675C37.2966 62.5667 37.1814 62.5235 37.0518 62.5235H36.1302V63.6323H36.6486Z" fill="#FEFEFE"/>
<path d="M39.9009 63.0703C39.9297 63.1135 39.9873 63.1567 40.0593 63.1999C40.1169 63.2287 40.1745 63.2719 40.2609 63.3007C40.3473 63.3295 40.4337 63.3583 40.5489 63.4015C40.7505 63.4591 40.9377 63.5311 41.0673 63.6031C41.2113 63.6751 41.3265 63.7615 41.4273 63.8911C41.5281 64.0063 41.5713 64.1647 41.5713 64.3519C41.5713 64.5247 41.5281 64.6831 41.4417 64.8271C41.3553 64.9711 41.2257 65.0863 41.0529 65.1583C40.8945 65.2447 40.7073 65.2879 40.4913 65.2879H40.3761C39.8577 65.2879 39.4689 64.9855 39.1953 64.3807L39.6129 64.1647C39.7281 64.3807 39.8577 64.5535 39.9729 64.6543C40.1025 64.7695 40.2465 64.8271 40.4337 64.8271C40.5345 64.8271 40.6353 64.8127 40.7361 64.7695C40.8369 64.7263 40.9089 64.6687 40.9665 64.5967C41.0241 64.5247 41.0529 64.4527 41.0529 64.3807C41.0529 64.2943 41.0241 64.2223 40.9521 64.1647C40.8945 64.1071 40.8081 64.0495 40.7217 64.0063C40.6353 63.9631 40.5057 63.9199 40.3473 63.8623C40.1313 63.7903 39.9585 63.7183 39.8289 63.6607C39.6993 63.5887 39.5841 63.5023 39.4833 63.3871C39.3825 63.2719 39.3393 63.1279 39.3393 62.9407C39.3393 62.7679 39.3825 62.6239 39.4689 62.4799C39.5553 62.3503 39.6849 62.2351 39.8433 62.1631C40.0017 62.0911 40.1745 62.0479 40.3761 62.0479C40.6065 62.0479 40.8081 62.1055 40.9953 62.2207C41.1681 62.3359 41.3553 62.5231 41.5137 62.7823L41.1249 63.0127C41.0241 62.8831 40.9377 62.7823 40.8801 62.7247C40.8225 62.6671 40.7505 62.6095 40.6785 62.5807C40.5921 62.5375 40.5057 62.5231 40.4049 62.5231C40.2465 62.5231 40.1169 62.5663 40.0161 62.6383C39.9153 62.7103 39.8577 62.8111 39.8577 62.9263C39.8577 62.9695 39.8721 63.0127 39.9009 63.0703Z" fill="#FEFEFE"/>
<path d="M47.4197 62.2492C47.6789 62.3932 47.8805 62.5804 48.0245 62.8252C48.1685 63.07 48.2405 63.3436 48.2405 63.6316C48.2405 63.9196 48.1685 64.1932 48.0245 64.4524C47.8805 64.6972 47.6789 64.8988 47.4197 65.0428C47.1605 65.1868 46.8869 65.2588 46.5845 65.2588C46.2821 65.2588 45.9941 65.1868 45.7349 65.0428C45.4757 64.8988 45.2741 64.6972 45.1301 64.4524C44.9861 64.2076 44.9141 63.934 44.9141 63.646C44.9141 63.358 44.9861 63.0844 45.1445 62.8396C45.2885 62.5948 45.5045 62.3932 45.7493 62.2492C46.0085 62.1052 46.2821 62.0332 46.5845 62.0332C46.8869 62.0332 47.1605 62.1052 47.4197 62.2492ZM47.1605 64.6396C47.3333 64.5388 47.4773 64.3948 47.5925 64.2076C47.6933 64.0204 47.7509 63.8332 47.7509 63.6316C47.7509 63.43 47.6933 63.2428 47.5925 63.07C47.4917 62.8972 47.3477 62.7676 47.1749 62.6668C47.0021 62.566 46.8005 62.5228 46.5845 62.5228C46.3685 62.5228 46.1669 62.566 45.9941 62.6668C45.8069 62.7676 45.6773 62.8972 45.5621 63.07C45.4613 63.2428 45.4037 63.43 45.4037 63.6316C45.4037 63.8332 45.4613 64.0348 45.5621 64.2076C45.6629 64.3804 45.8069 64.5244 45.9941 64.6396C46.1669 64.7404 46.3685 64.798 46.5845 64.798C46.7861 64.8124 46.9877 64.7548 47.1605 64.6396Z" fill="#FEFEFE"/>
<path d="M51.6222 62.5087H49.9806V63.3871H51.6222V63.8767H49.9806V65.2879H49.4766V62.0479H51.6222V62.5087Z" fill="#FEFEFE"/>
<path d="M55.6275 63.0703C55.6563 63.1135 55.7139 63.1567 55.7859 63.1999C55.8435 63.2287 55.9011 63.2719 55.9875 63.3007C56.0595 63.3295 56.1603 63.3583 56.2755 63.4015C56.4771 63.4591 56.6643 63.5311 56.7939 63.6031C56.9379 63.6751 57.0531 63.7615 57.1539 63.8911C57.2547 64.0063 57.2979 64.1647 57.2979 64.3519C57.2979 64.5247 57.2547 64.6831 57.1683 64.8271C57.0819 64.9711 56.9523 65.0863 56.7795 65.1583C56.6211 65.2447 56.4339 65.2879 56.2179 65.2879H56.1027C55.5843 65.2879 55.1955 64.9855 54.9219 64.3807L55.3395 64.1647C55.4547 64.3807 55.5843 64.5535 55.6995 64.6543C55.8291 64.7695 55.9731 64.8271 56.1603 64.8271C56.2611 64.8271 56.3619 64.8127 56.4627 64.7695C56.5635 64.7263 56.6355 64.6687 56.6931 64.5967C56.7507 64.5247 56.7795 64.4527 56.7795 64.3807C56.7795 64.2943 56.7507 64.2223 56.6787 64.1647C56.6211 64.1071 56.5347 64.0495 56.4483 64.0063C56.3619 63.9631 56.2323 63.9199 56.0739 63.8623C55.8579 63.7903 55.6851 63.7183 55.5555 63.6607C55.4259 63.5887 55.3107 63.5023 55.2099 63.3871C55.1091 63.2719 55.0659 63.1279 55.0659 62.9407C55.0659 62.7679 55.1091 62.6239 55.1955 62.4799C55.2819 62.3503 55.4115 62.2351 55.5699 62.1631C55.7283 62.0911 55.9011 62.0479 56.1027 62.0479C56.3331 62.0479 56.5347 62.1055 56.7219 62.2207C56.8947 62.3359 57.0819 62.5231 57.2403 62.7823L56.8515 63.0127C56.7507 62.8831 56.6643 62.7823 56.6067 62.7247C56.5491 62.6671 56.4771 62.6095 56.4051 62.5807C56.3187 62.5375 56.2323 62.5231 56.1315 62.5231C55.9731 62.5231 55.8435 62.5663 55.7427 62.6383C55.6419 62.7103 55.5843 62.8111 55.5843 62.9263C55.5843 62.9695 55.5987 63.0127 55.6275 63.0703Z" fill="#FEFEFE"/>
<path d="M61.072 62.2492C61.3312 62.3932 61.5328 62.5804 61.6768 62.8252C61.8208 63.07 61.8928 63.3436 61.8928 63.6316C61.8928 63.9196 61.8208 64.1932 61.6768 64.4524C61.5328 64.6972 61.3312 64.8988 61.072 65.0428C60.8128 65.1868 60.5392 65.2588 60.2368 65.2588C59.9344 65.2588 59.6464 65.1868 59.3872 65.0428C59.128 64.8988 58.9264 64.6972 58.7824 64.4524C58.6384 64.2076 58.5664 63.934 58.5664 63.646C58.5664 63.358 58.6384 63.0844 58.7968 62.8396C58.9408 62.5948 59.1568 62.3932 59.4016 62.2492C59.6608 62.1052 59.9344 62.0332 60.2368 62.0332C60.5392 62.0332 60.8128 62.1052 61.072 62.2492ZM60.8128 64.6396C60.9856 64.5388 61.1296 64.3948 61.2448 64.2076C61.3456 64.0204 61.4032 63.8332 61.4032 63.6316C61.4032 63.43 61.3456 63.2428 61.2448 63.07C61.144 62.8972 61 62.7676 60.8272 62.6668C60.6544 62.566 60.4528 62.5228 60.2368 62.5228C60.0208 62.5228 59.8192 62.566 59.6464 62.6668C59.4592 62.7676 59.3296 62.8972 59.2144 63.07C59.1136 63.2428 59.056 63.43 59.056 63.6316C59.056 63.8332 59.1136 64.0348 59.2144 64.2076C59.3152 64.3804 59.4592 64.5244 59.6464 64.6396C59.8192 64.7404 60.0208 64.798 60.2368 64.798C60.4384 64.8124 60.64 64.7548 60.8128 64.6396Z" fill="#FEFEFE"/>
<path d="M65.6213 64.0204V63.4588V63.1276V62.926C65.5061 63.1132 65.3333 63.3868 65.1029 63.7612C64.9157 64.078 64.7429 64.3516 64.6133 64.5676L64.5269 64.4092C64.1957 63.8476 63.9077 63.358 63.6341 62.9404C63.6341 63.07 63.6341 63.3004 63.6341 63.646V64.0636V64.6252C63.6341 64.9276 63.6341 65.1436 63.6341 65.2732H63.1445C63.1445 64.7404 63.1445 64.366 63.1445 64.1356V63.1276C63.1445 62.6236 63.1445 62.2492 63.1445 62.0332H63.6629C64.0085 62.5804 64.3253 63.0988 64.6277 63.6028C64.7429 63.4156 64.9013 63.1852 65.0741 62.8828C65.2037 62.6524 65.3909 62.3788 65.6069 62.0332H66.1253V65.2732H65.6357V64.6108L65.6213 64.0204Z" fill="#FEFEFE"/>
<path d="M68.1837 62.0332H68.6589C68.7741 62.3212 69.0477 62.998 69.4365 64.0492L69.8973 65.2732H69.3645L68.9901 64.294H67.8525L67.5069 65.2732H66.9453L68.1837 62.0332ZM68.4285 62.8108L68.3277 63.0844L68.1837 63.4732L68.0541 63.8044H68.8029L68.4285 62.8108Z" fill="#FEFEFE"/>
</svg>
