<svg width="100" height="100" viewBox="0 0 100 100" fill="none" xmlns="http://www.w3.org/2000/svg">
<mask id="mask0_427_1017" style="mask-type:luminance" maskUnits="userSpaceOnUse" x="0" y="33" width="99" height="33">
<path d="M98.6422 33.2568H0.742188V65.1968H98.6422V33.2568Z" fill="white"/>
</mask>
<g mask="url(#mask0_427_1017)">
<path d="M24.0606 51.8576L23.9806 51.8176C22.7206 51.1176 21.3606 51.1176 19.9606 51.1576C19.2606 51.1776 18.5606 51.1776 17.8606 51.1776C16.9206 51.1776 15.9806 51.1776 15.0406 51.1576V51.8776C16.4206 51.8976 17.7806 51.8976 19.1606 51.8776C20.0206 51.8576 20.9006 51.7976 21.7606 51.8976C22.1406 51.9376 22.5606 52.0176 22.9406 52.1776C23.2406 52.2976 23.5406 52.4376 23.7606 52.5776C23.8206 52.4376 23.8606 52.3576 23.9206 52.2176C24.0006 52.0776 24.0406 51.9776 24.0606 51.8576ZM18.8006 53.9376V53.6176C18.8006 53.2776 18.7806 52.9176 18.8006 52.5776H18.1006C18.1006 52.8176 18.1006 53.0776 18.1006 53.3176C18.1006 53.6176 18.1006 53.9376 18.1206 54.2376C18.3406 54.1576 18.5806 54.0576 18.8006 53.9376ZM18.2406 55.7176C19.3006 55.4176 20.3006 54.8376 21.1406 53.9976C21.3406 53.7976 21.5206 53.5976 21.7006 53.3776C21.8606 53.1576 22.0206 52.9576 22.1606 52.7176C22.0406 52.6976 21.9206 52.6776 21.7806 52.6576C21.6406 52.6376 21.5206 52.6376 21.3806 52.6176C20.6806 53.6576 19.7006 54.4176 18.5806 54.8576C17.4806 55.2976 16.2406 55.4176 15.0206 55.1376C15.0006 55.2576 14.9806 55.3776 14.9606 55.4776C14.9406 55.5976 14.9206 55.7176 14.8806 55.8176C15.9806 56.0576 17.1406 56.0376 18.2406 55.7176ZM19.7806 58.1776C19.8606 58.1376 19.9406 58.1176 20.0406 58.0776C20.2606 57.9976 20.4606 57.8976 20.6606 57.7976C20.0406 57.4776 19.5206 56.9576 19.1806 56.1576C18.9406 56.2576 18.7006 56.3376 18.4606 56.3976C18.6206 56.8576 18.8606 57.2776 19.1806 57.6376C19.3606 57.8576 19.5606 58.0376 19.7806 58.1776ZM25.9006 59.0176C25.9206 58.7176 25.9206 58.4176 25.9406 58.1176C26.0206 56.7376 26.0806 55.0176 25.6006 53.7576C25.4406 54.0776 25.2606 54.4176 25.0406 54.7376C25.1206 55.0576 25.1606 55.3776 25.2006 55.7176C25.2206 55.8576 25.2206 55.9776 25.2206 56.1176V56.1776V56.2176V56.2376V56.2576C25.2406 56.9776 25.2206 57.7376 25.2006 58.2776C25.1006 58.2776 23.9406 58.2976 23.9406 58.2976C23.8606 58.2976 23.7806 58.2976 23.6806 58.2976C23.3406 58.5776 23.0006 58.8176 22.6406 59.0576C23.3606 59.0976 24.0806 59.0576 24.7406 59.0376L25.1006 59.0176C25.3806 59.0376 25.6406 59.0176 25.9006 59.0176ZM10.7206 57.8976C10.4006 57.9776 10.0806 58.0176 9.74063 58.0576C9.60063 58.0776 9.48063 58.0776 9.34062 58.0976H9.28063H9.24063H9.22062H9.20063C8.48063 58.1176 7.72063 58.0976 7.18063 58.0776C7.18063 57.9776 7.16062 56.8176 7.16062 56.8176C7.16062 56.7376 7.16062 56.6576 7.16062 56.5776C6.88063 56.2376 6.64063 55.8976 6.40063 55.5376C6.36063 56.2576 6.40063 56.9576 6.42063 57.6376L6.44063 57.9976C6.46063 58.2576 6.46063 58.5176 6.48063 58.7776C6.78063 58.7976 7.08063 58.7976 7.38063 58.8176C8.76063 58.8976 10.4806 58.9576 11.7406 58.4776C11.3606 58.2976 11.0406 58.1176 10.7206 57.8976ZM22.2606 59.6376C18.4406 61.7976 13.6806 61.7176 9.94063 59.3776C9.52063 59.4176 9.08063 59.4376 8.64062 59.4376C13.0606 62.7376 19.1406 62.8376 23.6406 59.6976C23.3606 59.6976 23.0806 59.6976 22.8006 59.6776L22.2606 59.6376ZM12.9406 56.6176C13.0806 56.6776 13.1606 56.7176 13.3006 56.7776C13.4206 56.8176 13.5206 56.8576 13.6406 56.8976L13.6806 56.8176C14.3806 55.5576 14.3806 54.1976 14.3406 52.7976C14.3206 52.0976 14.3206 51.3976 14.3206 50.6976C14.3206 49.7576 14.3206 48.8176 14.3206 47.8776H13.6006C13.5806 49.2576 13.5806 50.6176 13.6006 51.9976C13.6206 52.8576 13.6806 53.7376 13.5806 54.5976C13.5406 54.9776 13.4606 55.3976 13.3006 55.7776C13.2406 56.0976 13.1006 56.3776 12.9406 56.6176ZM6.22063 59.3376C0.640625 53.7576 0.640625 44.6976 6.22063 39.1176C11.8006 33.5376 20.8606 33.5376 26.4406 39.1176C32.0206 44.6976 32.0206 53.7576 26.4406 59.3376C20.8606 64.9176 11.7806 64.9176 6.22063 59.3376ZM27.0606 38.4976C21.1406 32.5776 11.5006 32.5776 5.58063 38.4976C-0.339375 44.4176 -0.339375 54.0576 5.58063 59.9776C11.5006 65.8976 21.1206 65.8976 27.0606 59.9776C32.9806 54.0376 32.9806 44.4176 27.0606 38.4976ZM21.8806 40.4176C22.2006 40.3376 22.5206 40.2976 22.8606 40.2576C23.0006 40.2376 23.1206 40.2376 23.2606 40.2376H23.3206H23.3606H23.3806H23.4006C24.1206 40.2176 24.8806 40.2376 25.4206 40.2576C25.4206 40.3576 25.4406 41.5176 25.4406 41.5176C25.4406 41.5976 25.4406 41.6776 25.4406 41.7776C25.7206 42.1176 25.9606 42.4576 26.2006 42.8176C26.2406 42.0976 26.2006 41.3776 26.1806 40.7176L26.1606 40.3576C26.1406 40.0976 26.1406 39.8376 26.1406 39.5776C25.8406 39.5576 25.5406 39.5576 25.2406 39.5376C23.8606 39.4576 22.1406 39.3976 20.8806 39.8776C21.2406 40.0376 21.5606 40.2176 21.8806 40.4176ZM24.5806 54.0576L24.6406 53.9576C25.9806 51.5976 26.1406 49.3576 25.6206 46.7376L25.5806 46.5376C25.4206 46.7376 25.2406 46.9176 25.0206 47.0776L24.9806 47.0976C25.3806 49.5376 25.3206 51.3576 24.0606 53.5776C23.9606 53.7376 23.8606 53.8976 23.7606 54.0576C23.0006 55.2176 22.0206 56.1176 20.8606 56.8776L20.7606 56.9376C20.9806 57.0976 21.2206 57.2376 21.4606 57.3376C21.9006 56.9976 22.3406 56.6576 22.7606 56.2776C23.4806 55.6376 24.1006 54.8776 24.5806 54.0576ZM5.82063 55.0576C3.68063 51.2576 3.76063 46.5376 6.08063 42.7976C6.04063 42.3776 6.02063 41.9376 6.02063 41.4976C2.74063 45.8976 2.64062 51.9576 5.76063 56.4576C5.76063 56.1976 5.76063 55.9376 5.78063 55.6576L5.82063 55.0576ZM7.00063 44.5576C7.16063 44.2176 7.34062 43.8976 7.56062 43.5776C7.48062 43.2576 7.44063 42.9376 7.40063 42.5976C7.38063 42.4776 7.38063 42.3376 7.38063 42.1976V42.1376V42.0976V42.0776C7.36063 41.3576 7.38063 40.5976 7.40063 40.0576C7.50063 40.0576 8.66063 40.0376 8.68063 40.0376C8.76063 40.0376 8.84062 40.0376 8.92062 40.0376C9.26062 39.7576 9.60063 39.5176 9.96062 39.2776C9.24062 39.2376 8.54062 39.2776 7.86062 39.2976L7.50063 39.3176C7.24063 39.3376 6.98063 39.3376 6.72062 39.3576C6.70062 39.6576 6.70063 39.9576 6.68063 40.2576C6.58063 41.5776 6.52063 43.2976 7.00063 44.5576ZM10.3806 38.6776C14.2006 36.5176 18.9606 36.5976 22.7006 38.9376C23.1206 38.8976 23.5606 38.8976 24.0006 38.8976C19.5806 35.5776 13.5006 35.4976 8.98063 38.6376C9.24063 38.6376 9.52063 38.6376 9.78063 38.6576L10.3806 38.6776ZM14.4206 42.6576C13.3606 42.9576 12.3606 43.5376 11.5206 44.3776C11.3206 44.5776 11.1406 44.7776 10.9806 44.9976C10.8206 45.2176 10.6606 45.4176 10.5206 45.6576C10.8006 45.6976 11.0606 45.7176 11.3406 45.6976C12.0406 44.6976 13.0006 43.9576 14.1006 43.5176C15.2006 43.0776 16.4406 42.9776 17.6606 43.2376C17.6806 43.1176 17.7006 42.9976 17.7206 42.8976C17.7406 42.7776 17.7606 42.6776 17.8006 42.5576C16.6606 42.2976 15.5206 42.3376 14.4206 42.6576ZM20.5006 43.8176C20.3006 43.6576 20.0606 43.4976 19.8406 43.3576C19.8206 43.4776 19.8006 43.5976 19.7806 43.7376C19.7606 43.8776 19.7606 43.9976 19.7406 44.1376C20.7806 44.8376 21.5406 45.8176 21.9806 46.9376C22.4206 48.0376 22.5406 49.2776 22.2606 50.4976C22.3806 50.5176 22.5006 50.5376 22.6006 50.5576C22.7206 50.5776 22.8406 50.5976 22.9406 50.6376C23.1806 49.5376 23.1406 48.3776 22.8206 47.2776C22.5006 46.2176 21.9406 45.2176 21.1006 44.3776C20.9406 44.1776 20.7206 43.9976 20.5006 43.8176ZM23.5606 47.0376C24.0206 46.8776 24.4406 46.6376 24.8006 46.3176C25.0006 46.1376 25.1806 45.9376 25.3406 45.7376C25.3006 45.6576 25.2806 45.5776 25.2406 45.4776C25.1606 45.2576 25.0606 45.0576 24.9606 44.8576C24.6406 45.4776 24.1206 45.9976 23.3206 46.3376C23.4006 46.5576 23.4806 46.7976 23.5606 47.0376ZM7.66062 51.2776C7.28062 48.8376 7.32063 47.0176 8.58063 44.7976C8.68063 44.6376 8.78063 44.4576 8.88063 44.3176C9.64062 43.1576 10.6206 42.2576 11.7806 41.4976L11.8806 41.4376C11.6606 41.2776 11.4206 41.1576 11.1806 41.0376C10.7406 41.3776 10.2806 41.7176 9.88063 42.0976C9.18062 42.7376 8.56063 43.4976 8.08063 44.3176L8.02062 44.4176C6.68062 46.7576 6.52063 49.0176 7.04063 51.6176L7.08063 51.8176C7.24063 51.6176 7.42063 51.4376 7.64062 51.2776H7.66062ZM12.1406 54.5376C12.3606 54.6976 12.5806 54.8576 12.8006 54.9976C12.8206 54.8776 12.8406 54.7576 12.8606 54.6176C12.8806 54.4776 12.8806 54.3576 12.9006 54.2176C11.8606 53.5176 11.1006 52.5376 10.6606 51.4176C10.2206 50.3176 10.1006 49.0776 10.3806 47.8576C10.2606 47.8376 10.1406 47.8176 10.0406 47.7976C9.92062 47.7776 9.80062 47.7576 9.70063 47.7176C9.46062 48.8176 9.50062 49.9776 9.82062 51.0776C10.1406 52.1376 10.7006 53.1376 11.5406 53.9776C11.7206 54.1976 11.9206 54.3776 12.1406 54.5376ZM26.7806 43.1776C28.9606 47.0176 28.8806 51.7976 26.5206 55.5576C26.5606 55.9776 26.5606 56.4176 26.5606 56.8576C29.9006 52.4176 29.9806 46.3176 26.8206 41.7976C26.8206 42.0776 26.8206 42.3776 26.8006 42.6576L26.7806 43.1776ZM11.5606 57.5176C13.9206 58.8576 16.1606 59.0176 18.7806 58.4976L18.9606 58.4576C18.7806 58.2976 18.6006 58.1176 18.4206 57.8976L18.4006 57.8576C15.9606 58.2376 14.1406 58.1976 11.9406 56.9376C11.7806 56.8376 11.6206 56.7376 11.4606 56.6376C10.3006 55.8776 9.40063 54.8976 8.64062 53.7376L8.58063 53.6576C8.42063 53.8776 8.30062 54.1176 8.20062 54.3576C8.54063 54.7976 8.88063 55.2376 9.24063 55.6576C9.88062 56.3576 10.6406 56.9776 11.4606 57.4576L11.5606 57.5176ZM21.0806 40.8776C18.7406 39.5376 16.2006 39.3176 13.8806 39.8976L13.7006 39.9376C13.8806 40.0976 14.0606 40.2776 14.2206 40.4776L14.2606 40.5176C16.5006 40.0776 18.5206 40.1776 20.7206 41.4376C20.8806 41.5376 21.0606 41.6376 21.2006 41.7376C22.3606 42.4976 23.2606 43.4776 24.0206 44.6376L24.0606 44.7176C24.2206 44.4976 24.3406 44.2576 24.4406 44.0176C24.1006 43.5776 23.7806 43.1376 23.4006 42.7376C22.7606 42.0376 22.0006 41.4176 21.1806 40.9376L21.0806 40.8776ZM9.10063 51.3176C8.64062 51.4776 8.22062 51.7176 7.86062 52.0376C7.66062 52.2176 7.48063 52.4176 7.32062 52.6176C7.36062 52.6976 7.38063 52.7776 7.42063 52.8776C7.50063 53.0776 7.60063 53.2976 7.70062 53.4976C8.02063 52.8776 8.54063 52.3576 9.34062 52.0176C9.26062 51.7976 9.18062 51.5576 9.10063 51.3176ZM12.8806 40.1776C12.8006 40.2176 12.7206 40.2376 12.6206 40.2776C12.4006 40.3576 12.2006 40.4576 12.0006 40.5576C12.6206 40.8776 13.1406 41.3976 13.4606 42.1976C13.7006 42.0976 13.9206 42.0176 14.1606 41.9576C14.0006 41.4976 13.7606 41.0776 13.4406 40.7176C13.2806 40.5176 13.1006 40.3376 12.8806 40.1776ZM12.9406 51.6576V50.9576C12.7006 50.9576 12.4406 50.9576 12.2006 50.9576C11.9006 50.9576 11.6006 50.9576 11.2806 50.9776C11.3606 51.2176 11.4606 51.4376 11.5806 51.6776C11.6806 51.6776 11.8006 51.6776 11.9006 51.6776C12.2406 51.6576 12.6006 51.6576 12.9406 51.6576ZM19.0406 43.7176C19.0806 43.3376 19.1606 42.9176 19.3206 42.5376C19.4406 42.2376 19.5806 41.9376 19.7206 41.6976C19.5806 41.6376 19.5006 41.5976 19.3606 41.5376C19.2406 41.4976 19.1406 41.4576 19.0206 41.4176L18.9806 41.4976C18.2806 42.7576 18.2806 44.1176 18.3206 45.5176C18.3406 46.2176 18.3406 46.9176 18.3406 47.6176C18.3406 48.5576 18.3406 49.4976 18.3406 50.4176H19.0606C19.0806 49.0376 19.0806 47.6776 19.0606 46.2976C19.0206 45.4576 18.9406 44.5776 19.0406 43.7176ZM21.3806 47.4176C21.3006 47.1776 21.2006 46.9576 21.0806 46.7176C20.9806 46.7176 20.8606 46.7176 20.7606 46.7176C20.4206 46.7176 20.0606 46.7376 19.7206 46.7176V47.4176C19.9606 47.4176 20.2206 47.4176 20.4606 47.4176C20.7606 47.4376 21.0606 47.4376 21.3806 47.4176ZM8.60063 46.4776L8.68063 46.5176C9.94063 47.2176 11.3006 47.2176 12.7006 47.1776C13.4006 47.1576 14.1006 47.1576 14.8006 47.1576C15.7406 47.1576 16.6806 47.1576 17.6206 47.1776V46.4576C16.2406 46.4376 14.8606 46.4376 13.5006 46.4576C12.6406 46.4776 11.7606 46.5376 10.9006 46.4376C10.5206 46.3976 10.1006 46.3176 9.72062 46.1576C9.42062 46.0376 9.12063 45.8976 8.90062 45.7576C8.84062 45.8976 8.80063 45.9776 8.74062 46.1176C8.68062 46.2376 8.64062 46.3576 8.60063 46.4776ZM14.5806 45.8176C14.5806 45.5776 14.5806 45.3176 14.5806 45.0776C14.5806 44.7776 14.5806 44.4576 14.5606 44.1576C14.3206 44.2376 14.0806 44.3376 13.8606 44.4576C13.8606 44.5576 13.8606 44.6776 13.8606 44.7776C13.8606 45.1176 13.8806 45.4776 13.8606 45.8176H14.5806Z" fill="#FEFEFE"/>
</g>
<mask id="mask1_427_1017" style="mask-type:luminance" maskUnits="userSpaceOnUse" x="0" y="33" width="99" height="33">
<path d="M98.6422 33.2568H0.742188V65.1968H98.6422V33.2568Z" fill="white"/>
</mask>
<g mask="url(#mask1_427_1017)">
<path d="M37.5172 37.1777V47.9777H43.2172V48.7377H36.6172V37.1777H37.5172Z" fill="#FEFEFE"/>
</g>
<mask id="mask2_427_1017" style="mask-type:luminance" maskUnits="userSpaceOnUse" x="0" y="33" width="99" height="33">
<path d="M98.6422 33.2568H0.742188V65.1968H98.6422V33.2568Z" fill="white"/>
</mask>
<g mask="url(#mask2_427_1017)">
<path d="M53.1009 48.0591C54.5409 48.0591 55.7609 47.5591 56.7409 46.5791C57.7209 45.5991 58.2209 44.3991 58.2209 42.9591C58.2209 41.5191 57.7209 40.3191 56.7409 39.3391C55.7409 38.3591 54.5409 37.8591 53.1009 37.8591C51.6609 37.8591 50.4409 38.3591 49.4409 39.3391C48.4409 40.3191 47.9409 41.5391 47.9409 42.9591C47.9409 44.3791 48.4409 45.5991 49.4409 46.5791C50.4409 47.5591 51.6609 48.0591 53.1009 48.0591ZM53.0609 37.0391C54.7609 37.0391 56.2209 37.6191 57.4009 38.7591C58.5809 39.8991 59.1809 41.2991 59.1809 42.9591C59.1809 44.5991 58.5809 45.9991 57.4009 47.1591C56.2209 48.2991 54.7609 48.8791 53.0609 48.8791C51.3609 48.8791 49.9209 48.2991 48.7409 47.1591C47.5609 46.0191 46.9609 44.6191 46.9609 42.9591C46.9609 41.2991 47.5609 39.8991 48.7409 38.7591C49.9209 37.6191 51.3609 37.0391 53.0609 37.0391Z" fill="#FEFEFE"/>
</g>
<mask id="mask3_427_1017" style="mask-type:luminance" maskUnits="userSpaceOnUse" x="0" y="33" width="99" height="33">
<path d="M98.6422 33.2568H0.742188V65.1968H98.6422V33.2568Z" fill="white"/>
</mask>
<g mask="url(#mask3_427_1017)">
<path d="M71.8998 37.1777V37.9377H67.5798V48.7377H66.6598V37.9377H62.3398V37.1777H71.8998Z" fill="#FEFEFE"/>
</g>
<mask id="mask4_427_1017" style="mask-type:luminance" maskUnits="userSpaceOnUse" x="0" y="33" width="99" height="33">
<path d="M98.6422 33.2568H0.742188V65.1968H98.6422V33.2568Z" fill="white"/>
</mask>
<g mask="url(#mask4_427_1017)">
<path d="M85.2791 37.1777H86.1791V43.4777C86.1791 45.1977 85.7391 46.5377 84.8391 47.4777C83.9391 48.4177 82.7791 48.8777 81.3591 48.8777C79.9391 48.8777 78.7791 48.4177 77.8791 47.4977C76.9791 46.5777 76.5391 45.2977 76.5391 43.6977V37.1977H77.4391V43.6777C77.4391 45.0577 77.7991 46.1377 78.5391 46.9177C79.2591 47.6977 80.2191 48.0777 81.3591 48.0777C82.5191 48.0777 83.4791 47.6777 84.1991 46.8977C84.9191 46.1177 85.2991 44.9977 85.2991 43.5577V37.1777H85.2791Z" fill="#FEFEFE"/>
</g>
<mask id="mask5_427_1017" style="mask-type:luminance" maskUnits="userSpaceOnUse" x="0" y="33" width="99" height="33">
<path d="M98.6422 33.2568H0.742188V65.1968H98.6422V33.2568Z" fill="white"/>
</mask>
<g mask="url(#mask5_427_1017)">
<path d="M97.7192 37.7588V38.7388C96.7192 38.1588 95.8592 37.8588 95.1392 37.8588C94.4392 37.8588 93.8592 38.0788 93.3992 38.4988C92.9392 38.9188 92.6992 39.4388 92.6992 40.0588C92.6992 40.4988 92.8392 40.8988 93.1192 41.2588C93.3992 41.6188 93.9792 41.9588 94.8392 42.2988C95.7192 42.6188 96.3592 42.8988 96.7592 43.1188C97.1592 43.3388 97.4992 43.6588 97.7792 44.0788C98.0592 44.4988 98.1992 45.0388 98.1992 45.6988C98.1992 46.5788 97.8792 47.3388 97.2192 47.9388C96.5592 48.5588 95.7792 48.8588 94.8392 48.8588C93.8792 48.8588 92.8992 48.5188 91.8792 47.8588V46.8188C92.9992 47.6388 93.9592 48.0588 94.7992 48.0588C95.4792 48.0588 96.0592 47.8388 96.5192 47.3988C96.9992 46.9588 97.2192 46.4188 97.2192 45.7588C97.2192 45.2788 97.0792 44.8188 96.7792 44.4388C96.4792 44.0388 95.8992 43.6788 94.9992 43.3388C94.0992 42.9988 93.4792 42.7188 93.0792 42.5188C92.6992 42.3188 92.3592 42.0188 92.0992 41.6188C91.8392 41.2388 91.6992 40.7388 91.6992 40.1188C91.6992 39.2788 92.0192 38.5388 92.6792 37.9588C93.3192 37.3588 94.1192 37.0588 95.0192 37.0588C95.9592 37.0388 96.8392 37.2788 97.7192 37.7588Z" fill="#FEFEFE"/>
</g>
<mask id="mask6_427_1017" style="mask-type:luminance" maskUnits="userSpaceOnUse" x="0" y="33" width="99" height="33">
<path d="M98.6422 33.2568H0.742188V65.1968H98.6422V33.2568Z" fill="white"/>
</mask>
<g mask="url(#mask6_427_1017)">
<path d="M36.5586 59.7784H37.5786C37.9386 59.7784 38.2586 59.7384 38.5786 59.6384C38.8786 59.5584 39.1586 59.4184 39.3786 59.2384C39.5986 59.0584 39.7786 58.8184 39.9186 58.5384C40.0586 58.2584 40.1186 57.9384 40.1186 57.5384C40.1186 57.1584 40.0586 56.8184 39.9186 56.5384C39.7786 56.2584 39.5986 56.0184 39.3786 55.8384C39.1586 55.6584 38.8786 55.5184 38.5786 55.4384C38.2786 55.3584 37.9386 55.2984 37.5786 55.2984H36.5586V59.7784ZM36.0586 54.8984H37.7186C38.1786 54.8984 38.5786 54.9584 38.8986 55.0584C39.2186 55.1784 39.4986 55.3184 39.6986 55.4984C39.9186 55.6784 40.0786 55.8784 40.1986 56.0784C40.3186 56.2984 40.4186 56.4984 40.4786 56.6984C40.5386 56.8984 40.5786 57.0784 40.5786 57.2384C40.5986 57.3984 40.5986 57.5184 40.5986 57.5784C40.5986 57.6384 40.5986 57.7584 40.5786 57.9184C40.5586 58.0784 40.5186 58.2584 40.4786 58.4584C40.4186 58.6584 40.3386 58.8584 40.1986 59.0784C40.0786 59.2984 39.8986 59.4984 39.6986 59.6584C39.4786 59.8384 39.2186 59.9784 38.8986 60.0984C38.5786 60.2184 38.1786 60.2784 37.7186 60.2784H36.0586V54.8984Z" fill="#FEFEFE"/>
</g>
<mask id="mask7_427_1017" style="mask-type:luminance" maskUnits="userSpaceOnUse" x="0" y="33" width="99" height="33">
<path d="M98.6422 33.2568H0.742188V65.1968H98.6422V33.2568Z" fill="white"/>
</mask>
<g mask="url(#mask7_427_1017)">
<path d="M43.5391 54.8984H46.8191V55.3384H44.0391V57.2384H46.6391V57.6984H44.0391V59.7784H46.9391V60.2384H43.5391V54.8984Z" fill="#FEFEFE"/>
</g>
<mask id="mask8_427_1017" style="mask-type:luminance" maskUnits="userSpaceOnUse" x="0" y="33" width="99" height="33">
<path d="M98.6422 33.2568H0.742188V65.1968H98.6422V33.2568Z" fill="white"/>
</mask>
<g mask="url(#mask8_427_1017)">
<path d="M49.082 54.8984H49.622L51.342 59.5784L53.082 54.8984H53.602L51.582 60.2384H51.082L49.082 54.8984Z" fill="#FEFEFE"/>
</g>
<mask id="mask9_427_1017" style="mask-type:luminance" maskUnits="userSpaceOnUse" x="0" y="33" width="99" height="33">
<path d="M98.6422 33.2568H0.742188V65.1968H98.6422V33.2568Z" fill="white"/>
</mask>
<g mask="url(#mask9_427_1017)">
<path d="M56.1406 54.8984H59.4006V55.3384H56.6406V57.2384H59.2406V57.6984H56.6406V59.7784H59.5206V60.2384H56.1406V54.8984Z" fill="#FEFEFE"/>
</g>
<mask id="mask10_427_1017" style="mask-type:luminance" maskUnits="userSpaceOnUse" x="0" y="33" width="99" height="33">
<path d="M98.6422 33.2568H0.742188V65.1968H98.6422V33.2568Z" fill="white"/>
</mask>
<g mask="url(#mask10_427_1017)">
<path d="M62.4414 54.8984H62.9214V59.7784H65.4214V60.2384H62.4414V54.8984Z" fill="#FEFEFE"/>
</g>
<mask id="mask11_427_1017" style="mask-type:luminance" maskUnits="userSpaceOnUse" x="0" y="33" width="99" height="33">
<path d="M98.6422 33.2568H0.742188V65.1968H98.6422V33.2568Z" fill="white"/>
</mask>
<g mask="url(#mask11_427_1017)">
<path d="M68.1797 57.5578C68.1797 57.8978 68.2397 58.1978 68.3397 58.4778C68.4397 58.7578 68.5997 59.0178 68.7997 59.2178C68.9997 59.4378 69.2397 59.5978 69.5197 59.7178C69.7997 59.8378 70.1197 59.8978 70.4597 59.8978C70.7997 59.8978 71.1197 59.8378 71.3997 59.7178C71.6797 59.5978 71.9197 59.4378 72.1197 59.2178C72.3197 58.9978 72.4597 58.7578 72.5797 58.4778C72.6797 58.1978 72.7397 57.8778 72.7397 57.5578C72.7397 57.2178 72.6797 56.9178 72.5797 56.6178C72.4797 56.3378 72.3197 56.0778 72.1197 55.8778C71.9197 55.6578 71.6797 55.4978 71.3997 55.3778C71.1197 55.2578 70.7997 55.1978 70.4597 55.1978C70.1197 55.1978 69.7997 55.2578 69.5197 55.3778C69.2397 55.4978 68.9997 55.6578 68.7997 55.8778C68.5997 56.0978 68.4597 56.3378 68.3397 56.6178C68.2197 56.9178 68.1797 57.2378 68.1797 57.5578ZM67.6797 57.5578C67.6797 57.1578 67.7397 56.7778 67.8797 56.4378C68.0197 56.0978 68.1997 55.7978 68.4397 55.5578C68.6797 55.2978 68.9797 55.1178 69.3197 54.9778C69.6597 54.8378 70.0397 54.7578 70.4397 54.7578C70.8397 54.7578 71.2197 54.8378 71.5597 54.9778C71.8997 55.1178 72.1997 55.3178 72.4397 55.5578C72.6797 55.7978 72.8797 56.0978 72.9997 56.4378C73.1397 56.7778 73.1997 57.1578 73.1997 57.5578C73.1997 57.9578 73.1397 58.3378 72.9997 58.6978C72.8597 59.0378 72.6797 59.3378 72.4397 59.5978C72.1997 59.8378 71.8997 60.0378 71.5597 60.1778C71.2197 60.3178 70.8397 60.3778 70.4397 60.3778C70.0397 60.3778 69.6597 60.2978 69.3197 60.1778C68.9797 60.0378 68.6797 59.8378 68.4397 59.5978C68.1997 59.3578 67.9997 59.0578 67.8797 58.6978C67.7397 58.3578 67.6797 57.9778 67.6797 57.5578Z" fill="#FEFEFE"/>
</g>
<mask id="mask12_427_1017" style="mask-type:luminance" maskUnits="userSpaceOnUse" x="0" y="33" width="99" height="33">
<path d="M98.6422 33.2568H0.742188V65.1968H98.6422V33.2568Z" fill="white"/>
</mask>
<g mask="url(#mask12_427_1017)">
<path d="M76.6372 57.2384H77.7772C77.9172 57.2384 78.0572 57.2184 78.1972 57.1984C78.3372 57.1584 78.4572 57.1184 78.5572 57.0384C78.6572 56.9584 78.7372 56.8784 78.8172 56.7384C78.8772 56.6184 78.9172 56.4584 78.9172 56.2984C78.9172 56.1184 78.8772 55.9784 78.8172 55.8584C78.7572 55.7384 78.6572 55.6384 78.5572 55.5584C78.4572 55.4784 78.3172 55.4184 78.1772 55.3984C78.0372 55.3584 77.8972 55.3384 77.7572 55.3384H76.6572V57.2384H76.6372ZM76.1372 54.8984H77.6772C77.8572 54.8984 78.0572 54.9184 78.2572 54.9584C78.4572 54.9984 78.6572 55.0784 78.8172 55.1784C78.9772 55.2784 79.1172 55.4184 79.2372 55.6184C79.3372 55.7984 79.3972 56.0384 79.3972 56.3184C79.3972 56.5584 79.3572 56.7784 79.2572 56.9384C79.1772 57.1184 79.0572 57.2584 78.8972 57.3784C78.7572 57.4984 78.5772 57.5784 78.3772 57.6384C78.1772 57.6984 77.9772 57.7184 77.7772 57.7184H76.6172V60.2584H76.1172V54.8984H76.1372Z" fill="#FEFEFE"/>
</g>
<mask id="mask13_427_1017" style="mask-type:luminance" maskUnits="userSpaceOnUse" x="0" y="33" width="99" height="33">
<path d="M98.6422 33.2568H0.742188V65.1968H98.6422V33.2568Z" fill="white"/>
</mask>
<g mask="url(#mask13_427_1017)">
<path d="M82.3008 54.8984H85.5808V55.3384H82.8008V57.2384H85.4008V57.6984H82.8008V59.7784H85.7008V60.2384H82.3008V54.8984Z" fill="#FEFEFE"/>
</g>
<mask id="mask14_427_1017" style="mask-type:luminance" maskUnits="userSpaceOnUse" x="0" y="33" width="99" height="33">
<path d="M98.6422 33.2568H0.742188V65.1968H98.6422V33.2568Z" fill="white"/>
</mask>
<g mask="url(#mask14_427_1017)">
<path d="M89.1016 57.2384H90.1616C90.4216 57.2384 90.6416 57.1984 90.8016 57.1384C90.9616 57.0784 91.1016 56.9984 91.1816 56.8984C91.2816 56.7984 91.3416 56.6984 91.3616 56.5984C91.4016 56.4784 91.4016 56.3784 91.4016 56.2984C91.4016 56.1984 91.3816 56.0984 91.3616 55.9984C91.3216 55.8784 91.2616 55.7784 91.1816 55.6784C91.0816 55.5784 90.9616 55.4984 90.8016 55.4384C90.6416 55.3784 90.4216 55.3384 90.1616 55.3384H89.1016V57.2384ZM88.6016 54.8984H90.0016C90.0816 54.8984 90.1616 54.8984 90.2816 54.8984C90.4016 54.8984 90.5416 54.9184 90.6816 54.9384C90.8216 54.9584 90.9616 54.9984 91.1216 55.0584C91.2616 55.1184 91.4016 55.1984 91.5216 55.2984C91.6416 55.3984 91.7416 55.5384 91.8016 55.6984C91.8816 55.8584 91.9216 56.0584 91.9216 56.2784C91.9216 56.5384 91.8816 56.7384 91.7816 56.9184C91.7016 57.0784 91.5816 57.2184 91.4416 57.3184C91.3016 57.4184 91.1616 57.4984 91.0016 57.5584C90.8416 57.6184 90.6816 57.6384 90.5416 57.6584L92.1016 60.2184H91.5416L90.0416 57.6784H89.1216V60.2184H88.6016V54.8984Z" fill="#FEFEFE"/>
</g>
<mask id="mask15_427_1017" style="mask-type:luminance" maskUnits="userSpaceOnUse" x="0" y="33" width="99" height="33">
<path d="M98.6422 33.2568H0.742188V65.1968H98.6422V33.2568Z" fill="white"/>
</mask>
<g mask="url(#mask15_427_1017)">
<path d="M95.042 59.2583C95.182 59.4783 95.342 59.6583 95.562 59.7583C95.762 59.8583 96.002 59.9183 96.282 59.9183C96.442 59.9183 96.602 59.8983 96.742 59.8383C96.882 59.7783 97.022 59.7183 97.122 59.6183C97.222 59.5183 97.322 59.4183 97.382 59.2983C97.442 59.1783 97.482 59.0183 97.482 58.8583C97.482 58.6783 97.442 58.5183 97.362 58.3983C97.282 58.2783 97.182 58.1783 97.042 58.0983C96.902 58.0183 96.762 57.9583 96.602 57.8983C96.442 57.8383 96.262 57.7783 96.102 57.7383C95.922 57.6783 95.762 57.6183 95.602 57.5583C95.442 57.4783 95.302 57.3983 95.162 57.2783C95.022 57.1583 94.922 57.0183 94.842 56.8583C94.762 56.6783 94.722 56.4783 94.722 56.2183C94.722 55.9783 94.762 55.7783 94.862 55.5783C94.962 55.3983 95.082 55.2383 95.242 55.1183C95.402 54.9983 95.582 54.8983 95.782 54.8383C95.982 54.7783 96.202 54.7383 96.442 54.7383C96.742 54.7383 97.002 54.7983 97.262 54.8983C97.502 54.9983 97.722 55.1783 97.902 55.4183L97.462 55.7183C97.342 55.5383 97.182 55.4183 97.022 55.3183C96.862 55.2183 96.642 55.1783 96.422 55.1783C96.262 55.1783 96.102 55.1983 95.962 55.2383C95.822 55.2783 95.682 55.3383 95.582 55.4383C95.482 55.5183 95.382 55.6183 95.322 55.7583C95.262 55.8783 95.222 56.0383 95.222 56.1983C95.222 56.4583 95.282 56.6783 95.422 56.8183C95.562 56.9583 95.722 57.0783 95.942 57.1583C96.142 57.2383 96.362 57.3183 96.602 57.3783C96.842 57.4383 97.062 57.5183 97.262 57.6383C97.462 57.7383 97.642 57.8983 97.782 58.0783C97.922 58.2583 97.982 58.5183 97.982 58.8583C97.982 59.0983 97.942 59.3183 97.842 59.4983C97.762 59.6783 97.622 59.8383 97.482 59.9783C97.322 60.1183 97.142 60.1983 96.942 60.2783C96.742 60.3383 96.522 60.3783 96.322 60.3783C95.962 60.3783 95.642 60.3183 95.342 60.1983C95.042 60.0783 94.782 59.8583 94.582 59.5783L95.042 59.2583Z" fill="#FEFEFE"/>
</g>
</svg>
