<svg width="100" height="100" viewBox="0 0 100 100" fill="none" xmlns="http://www.w3.org/2000/svg">
<path d="M51.7986 33.3362C51.9986 32.4162 51.7986 31.6762 50.9586 31.2962C50.5986 31.1562 50.1986 31.0762 49.7386 31.0762C47.7586 31.0762 44.7586 32.3562 41.7186 34.3362C38.3786 36.4562 31.8386 42.7962 30.7986 47.6162C30.6786 48.1962 30.6386 48.7162 30.6986 49.2362C30.8986 50.6962 31.7786 51.2362 33.0186 51.2362C36.1386 51.2362 41.4986 47.6362 43.9386 46.0562C45.0186 45.3362 46.1786 44.6562 47.0586 44.4162H47.1786C48.0586 44.4162 48.0386 45.5562 47.8786 46.3162C47.8186 46.5762 47.7586 46.7962 47.6986 46.8962C49.1186 46.2162 48.9786 46.2362 50.5986 45.5162L50.6586 45.6962C48.8386 46.5162 49.0586 46.5362 47.4986 47.2962C45.1186 52.0562 38.4786 60.2362 32.8386 62.9962C31.9386 63.3562 30.8986 63.5762 29.9786 63.5762C28.4786 63.5762 27.2786 62.9362 27.6386 61.2562C27.6986 60.9762 27.7986 60.6562 27.9786 60.2962C28.7786 58.5362 30.8986 56.3362 35.0386 53.6362C37.6386 51.9562 40.9786 50.0962 45.3586 47.9762C45.7186 47.3962 46.2386 46.5562 46.4386 46.1562C46.1186 46.3162 45.5986 46.6762 44.7786 47.2162C41.9986 49.0562 35.9386 52.9562 32.0786 52.9562C30.2786 52.9562 28.9386 52.1162 28.6586 49.7762C28.6186 49.2362 28.6786 48.6962 28.7986 48.1362C29.9586 42.6962 37.3586 36.6562 41.5186 33.9762C44.6586 31.9562 47.7386 30.6162 49.8386 30.6162C50.3586 30.6162 50.8186 30.6962 51.1986 30.8762C52.1786 31.3162 52.3986 32.1562 52.1786 33.1562C51.5386 36.1962 46.7786 40.8162 46.7586 40.8362L46.6786 40.7562C46.7186 40.7762 51.1786 36.2162 51.7986 33.3362ZM35.2186 53.9962C31.1786 56.6362 29.1386 58.7362 28.3586 60.4162C28.1986 60.7562 28.0986 61.0362 28.0386 61.3162C27.7786 62.5162 28.4986 62.9362 29.5586 62.9362C30.4186 62.9362 31.5386 62.6362 32.4786 62.2562C36.2386 60.4962 42.6986 52.0762 44.9586 48.5762C40.8786 50.5962 37.6786 52.3962 35.2186 53.9962Z" fill="#FEFEFE"/>
<path d="M55.2005 44.7557C54.8405 44.7557 54.3005 44.8757 53.3805 45.3357C51.8205 46.1357 51.2205 46.8357 51.1405 47.1757C51.1205 47.2757 51.1405 47.3357 51.1805 47.3757C51.2005 47.3957 51.2405 47.3957 51.2605 47.3957C51.6605 47.3957 53.3605 46.4757 54.2405 46.1757C54.5005 46.0957 54.6805 46.0557 54.8405 46.0557C55.2405 46.0557 55.2805 46.3557 55.3005 46.7957C55.3605 47.1157 55.5005 47.2757 55.8205 47.2757C56.0805 47.2757 56.4605 47.1757 57.0005 46.9757C58.2605 46.5157 59.9405 45.2557 59.9405 45.2557C59.9405 45.2557 60.0005 45.2357 60.0205 45.2357C60.0605 45.2357 60.0805 45.2357 60.0605 45.2757L60.0405 45.3157C59.9805 45.4357 57.7805 47.2557 56.3205 47.7557C55.8605 47.9157 55.5005 47.9757 55.2205 47.9757C54.6405 47.9757 54.4405 47.6957 54.3605 47.3357C54.3205 47.1757 54.2205 47.0957 54.0805 47.0957C53.7605 47.0957 53.2405 47.4357 52.5805 47.7557C51.9805 48.0957 50.7405 48.5757 49.8605 48.5757C49.3805 48.5757 48.9805 48.4357 48.8405 48.0357C48.7605 47.7957 48.7405 47.5157 48.8005 47.2357C49.0005 46.2557 50.0805 45.1357 51.3205 44.2357C52.4605 43.3957 53.6805 43.0557 54.5605 43.0557C54.9205 43.0557 55.2205 43.1157 55.4405 43.2157C55.9605 43.4757 56.1805 43.9757 56.1005 44.3957C56.0605 44.5957 55.9405 44.7757 55.7205 44.9357C55.7405 44.9357 55.6405 44.7557 55.2005 44.7557Z" fill="#FEFEFE"/>
<path d="M60.6593 44.476C60.9393 44.476 61.1793 44.596 61.2193 44.696C61.2393 44.716 61.2193 44.756 61.2193 44.776C61.1593 45.036 60.6593 45.636 60.2993 46.316C60.1593 46.556 60.0593 46.776 60.0193 46.956C59.9593 47.276 60.0793 47.456 60.5593 47.456C60.6793 47.456 60.8593 47.436 61.0593 47.396C62.3793 47.156 64.1993 45.696 64.4993 45.556C64.5993 45.496 64.6593 45.476 64.6793 45.476C64.7393 45.476 64.7193 45.516 64.7193 45.536V45.556C62.8593 47.236 60.8993 48.136 59.7593 48.136C59.3793 48.136 59.0993 48.036 58.9393 47.816C58.7993 47.616 58.7793 47.316 58.8593 46.996C59.0793 45.996 60.0193 44.716 60.0193 44.716C60.2193 44.556 60.4393 44.476 60.6593 44.476ZM62.3193 41.876H62.3793C62.6193 41.876 62.7993 42.016 62.7393 42.256C62.7193 42.356 62.6593 42.456 62.5593 42.576C62.3193 42.876 61.7593 43.176 61.4393 43.176C61.3193 43.176 61.2193 43.116 61.1993 42.996C61.1993 42.936 61.1993 42.896 61.2193 42.856C61.2993 42.476 61.8193 42.056 61.8193 42.056C61.8193 42.056 61.9593 41.916 62.3193 41.876Z" fill="#FEFEFE"/>
<path d="M70.7404 38.7367C70.7004 38.9367 70.5404 39.1767 70.3004 39.4367C69.7804 40.0167 67.3604 42.5767 65.8004 44.6167C65.6004 44.8967 65.2404 45.3967 65.0404 45.6967C66.5004 44.5967 69.4204 42.3167 70.1004 41.9167C70.3404 41.7767 70.5004 41.7167 70.6204 41.7167C70.9604 41.7167 71.0204 42.0767 70.9604 42.3567C70.9404 42.4567 70.9004 42.5167 70.8804 42.5967C70.6404 42.9767 69.0804 43.2567 68.1604 43.9567C67.4604 44.4967 65.6604 45.9967 64.7604 46.5967V46.6167C64.7404 46.6767 64.8204 46.6767 64.9204 46.6767H65.0604C66.3404 46.6967 71.3604 46.7967 71.3604 47.0967C71.3204 47.2767 67.8404 47.3567 65.6604 47.3567C64.9204 47.3567 64.3404 47.3567 64.0804 47.3367C62.9404 48.9567 62.0204 50.5767 61.5204 51.1167C61.2804 51.3967 61.0404 51.4967 60.8204 51.4967C60.6204 51.4967 60.4404 51.3767 60.3604 51.1767C60.3004 51.0767 60.3004 50.9767 60.3404 50.8167C60.4404 50.3567 60.9204 49.5767 61.7804 48.2367C63.5404 45.5167 66.4404 41.8567 68.6804 39.2367C69.1204 38.6767 69.0804 38.5767 69.5204 38.2967C69.7604 38.1567 69.9604 38.1367 70.1004 38.1367C70.2204 38.1367 70.2804 38.1567 70.2804 38.1567C70.6804 38.2967 70.8004 38.4967 70.7404 38.7367Z" fill="#FEFEFE"/>
<path d="M73.1367 42.416C73.3967 42.416 73.5767 42.556 73.6567 42.716C73.6767 42.776 73.6767 42.836 73.6367 42.936C73.5367 43.396 72.9567 44.256 72.3967 45.116C71.8167 45.976 70.8367 47.416 70.7767 47.656C70.7767 47.696 70.7967 47.696 70.7967 47.696H70.8367C71.0767 47.576 74.2367 44.136 74.8767 44.136H74.9367C75.2567 44.236 75.2967 44.536 75.1967 44.996C75.1167 45.336 74.9967 45.716 74.8167 46.136C74.7367 46.296 74.6967 46.456 74.6767 46.556C74.6167 46.796 74.6767 46.916 74.7967 46.916C74.9767 46.916 75.3367 46.656 75.7967 46.156C76.7367 45.156 77.1767 44.276 77.1767 44.276C77.1767 44.276 76.9167 43.996 77.0367 43.436C77.0567 43.336 77.0767 43.236 77.1367 43.116C77.2967 42.736 77.5967 42.536 77.8367 42.536C78.0767 42.536 78.2767 42.716 78.2167 43.016C78.1567 43.316 77.9967 43.716 77.6967 44.236C77.9767 44.496 78.3367 44.576 78.6967 44.576C79.1367 44.576 79.5367 44.456 79.6167 44.436H79.6567C79.6967 44.436 79.7167 44.436 79.7167 44.456C79.7167 44.476 79.6767 44.516 79.6767 44.516C79.1967 44.716 78.7967 44.796 78.4567 44.796C78.0367 44.796 77.7367 44.676 77.5367 44.536C77.2167 45.076 76.7567 45.736 76.0967 46.496C75.1167 47.636 74.2167 48.196 73.6967 48.196C73.4167 48.196 73.2567 48.076 73.2367 47.796C73.2167 47.676 73.2167 47.496 73.2567 47.336C73.3967 46.636 73.8767 45.716 73.9367 45.456C73.9367 45.416 73.9567 45.376 73.9167 45.376L73.8767 45.416C73.4967 45.736 71.7367 47.596 70.7767 48.716C70.2767 49.296 69.7167 49.596 69.3367 49.596C68.9767 49.596 68.7567 49.316 68.8367 48.716V48.596C69.1167 47.296 71.9767 43.356 71.9767 43.356C72.3767 42.636 72.7967 42.416 73.1367 42.416Z" fill="#FEFEFE"/>
<path d="M83.7005 44.7557C83.3405 44.7557 82.8005 44.8757 81.8805 45.3357C80.3205 46.1357 79.7205 46.8357 79.6405 47.1757C79.6205 47.2757 79.6405 47.3357 79.6805 47.3757C79.7005 47.3957 79.7405 47.3957 79.7605 47.3957C80.1605 47.3957 81.8605 46.4757 82.7405 46.1757C83.0005 46.0957 83.1805 46.0557 83.3405 46.0557C83.7405 46.0557 83.7805 46.3557 83.8005 46.7957C83.8605 47.1157 84.0005 47.2757 84.3205 47.2757C84.5805 47.2757 84.9605 47.1757 85.5005 46.9757C86.7605 46.5157 88.4405 45.2557 88.4405 45.2557C88.4405 45.2557 88.5005 45.2357 88.5205 45.2357C88.5605 45.2357 88.5805 45.2357 88.5605 45.2757L88.5405 45.3157C88.4805 45.4357 86.2805 47.2557 84.8205 47.7557C84.3605 47.9157 84.0005 47.9757 83.7205 47.9757C83.1405 47.9757 82.9405 47.6957 82.8605 47.3357C82.8205 47.1757 82.7205 47.0957 82.5805 47.0957C82.2605 47.0957 81.7405 47.4357 81.0805 47.7557C80.4805 48.0957 79.2405 48.5757 78.3605 48.5757C77.8805 48.5757 77.4805 48.4357 77.3405 48.0357C77.2605 47.7957 77.2405 47.5157 77.3005 47.2357C77.5005 46.2557 78.5805 45.1357 79.8205 44.2357C80.9605 43.3957 82.1805 43.0557 83.0605 43.0557C83.4205 43.0557 83.7205 43.1157 83.9405 43.2157C84.4605 43.4757 84.6805 43.9757 84.6005 44.3957C84.5605 44.5957 84.4405 44.7757 84.2205 44.9357C84.2605 44.9357 84.1405 44.7557 83.7005 44.7557Z" fill="#FEFEFE"/>
<path d="M97.7803 39.056C98.1003 38.636 98.4003 38.416 98.7003 38.416C98.8203 38.416 98.9603 38.476 99.1003 38.556C99.3003 38.716 99.3003 39.036 99.2403 39.296C99.1803 39.536 99.1203 39.716 99.1203 39.716C99.1203 39.716 93.4803 46.836 92.7203 47.796C92.5203 48.056 92.4003 48.236 92.3803 48.376C92.3603 48.496 92.4003 48.536 92.5203 48.536C92.7403 48.536 93.2203 48.316 93.9203 47.876C95.3803 46.936 96.8203 45.896 97.2003 45.596C97.3803 45.456 97.4603 45.416 97.5203 45.416C97.5603 45.416 97.5603 45.456 97.5603 45.456L97.3803 45.636C95.0403 47.756 92.5003 49.676 91.3603 49.676C91.1203 49.676 90.9403 49.576 90.8403 49.396C90.7403 49.196 90.7203 48.956 90.7603 48.696C91.0003 47.556 92.5203 46.056 92.5203 46.056C92.5203 46.056 89.5003 48.056 87.9803 48.836C87.5803 49.036 87.2403 49.136 86.9403 49.136C86.3603 49.136 86.0203 48.756 86.1603 48.076C86.2203 47.776 86.4003 47.416 86.6803 46.996C87.9203 45.216 89.9203 43.656 91.6803 43.516C91.8203 43.496 91.9403 43.496 92.0603 43.496C93.5203 43.496 93.7603 44.356 93.7603 44.356C93.7603 44.356 97.3003 39.676 97.7803 39.056ZM92.5203 44.616C92.2403 44.616 91.9003 44.676 91.4803 44.856C90.2803 45.376 88.2203 47.056 88.1403 47.536C88.1203 47.616 88.1803 47.656 88.2603 47.656C88.9603 47.656 90.2003 46.816 91.4003 46.176C92.5803 45.576 92.9803 45.296 92.9803 45.296L93.3203 44.916C93.3203 44.896 93.0803 44.616 92.5203 44.616Z" fill="#FEFEFE"/>
<path d="M36.4381 31.5356C36.5181 31.1956 36.4981 30.9356 36.4581 30.7156C36.2781 30.1156 35.6381 29.8556 34.7181 29.8556C30.1981 29.8556 18.4181 35.9556 15.4781 39.5956C15.1981 39.9556 15.0181 40.2956 14.9381 40.6556C14.2781 43.7756 20.9781 47.2156 22.5181 50.1956C24.8781 49.5756 25.7581 49.3756 28.5781 48.7556H28.6181C28.7581 48.7556 28.8181 48.8356 28.7981 48.9156C28.7781 49.0156 28.6781 49.1156 28.5581 49.1356C25.7781 49.7356 25.0381 50.0156 22.6981 50.5956C23.2381 52.3156 23.3381 53.8356 23.0581 55.1356C22.3781 58.3556 19.3781 60.3156 15.2381 61.5356C12.3181 62.3556 9.41809 62.7756 7.01809 62.7756C3.23809 62.7756 0.638093 61.7956 0.998093 60.1156C1.11809 59.5156 1.59809 58.8156 2.57809 58.0556C5.21809 55.8956 9.93809 53.5156 19.8381 50.8356C18.2381 48.1156 15.0581 46.8956 13.4181 43.8556C12.8981 42.9756 12.6381 41.9556 12.8581 40.9156C13.1181 39.7356 13.9981 38.4556 15.8181 37.2356C19.7781 34.4356 29.8381 29.4756 34.6581 29.4756C35.8981 29.4756 36.7781 29.7756 37.1581 30.5556C37.4381 31.1556 37.4781 31.8156 37.3381 32.5156C36.5781 36.1156 30.9781 40.8356 28.3781 41.0156C28.2781 41.0556 28.2181 41.0556 28.1781 41.0556C28.0781 41.0556 28.0781 41.0156 28.0781 40.9556C28.0981 40.8756 28.1581 40.7956 28.2781 40.7156C30.5181 39.9756 35.8581 34.2956 36.4381 31.5356ZM3.09809 58.3356C2.23809 59.0156 1.81809 59.5956 1.71809 60.0956C1.43809 61.3956 3.45809 62.0556 6.27809 62.0556C11.5981 62.0556 19.7781 59.7356 20.7581 55.0756C20.9981 53.9956 20.8381 52.7756 20.1581 51.4356C10.2581 54.0956 5.69809 56.2156 3.09809 58.3356Z" fill="#FEFEFE"/>
<path d="M6.39844 57.8381C13.9984 56.5381 21.6584 55.4781 29.3184 54.5981C31.2384 54.3781 33.1584 54.1781 35.0784 53.9781L37.9584 53.6981L40.8384 53.4381C44.6784 53.0981 48.5384 52.8181 52.3984 52.5781C56.2584 52.3581 60.1184 52.1981 63.9784 52.0981C64.9384 52.0781 65.9184 52.0781 66.8784 52.0581L68.3184 52.0381H69.7584H71.1984H71.9184L72.6384 52.0581L75.5384 52.1181C79.3984 52.2381 83.2584 52.4581 87.1184 52.8381L88.5584 52.9981C89.0384 53.0581 89.5184 53.0981 89.9984 53.1781C90.9584 53.3181 91.9184 53.4581 92.8584 53.5981L95.7184 54.1181L98.5384 54.7581L95.6984 54.2381L92.8384 53.8181C91.8784 53.6981 90.9184 53.5981 89.9584 53.4981C89.4784 53.4381 88.9984 53.4181 88.5184 53.3781L87.0784 53.2581C86.1184 53.1581 85.1584 53.1381 84.1984 53.0781L82.7584 52.9981L81.3184 52.9381C80.3584 52.9181 79.3984 52.8581 78.4384 52.8381L75.5584 52.7781C67.8584 52.7181 60.1384 52.9781 52.4584 53.4381C48.6184 53.6581 44.7584 53.9381 40.9184 54.2381C37.0784 54.5381 33.2384 54.8981 29.3984 55.2581C25.5584 55.6381 21.7184 56.0181 17.8984 56.4581C15.9784 56.6581 14.0584 56.8781 12.1584 57.0981L9.27844 57.4381C8.29844 57.5981 7.33844 57.6981 6.39844 57.8381Z" fill="#FEFEFE"/>
</svg>
