<?xml version="1.0" encoding="utf-8"?>
<!-- Generator: Adobe Illustrator 25.2.1, SVG Export Plug-In . SVG Version: 6.00 Build 0)  -->
<svg version="1.1" id="Layer_1" xmlns="http://www.w3.org/2000/svg" xmlns:xlink="http://www.w3.org/1999/xlink" x="0px" y="0px"
	 viewBox="0 0 32 32" style="enable-background:new 0 0 32 32;" xml:space="preserve">
<style type="text/css">
	.st0{fill:#1B7870;}
</style>
<g>
	<path class="st0" d="M5.98,30.45C5.33,29.97,5,29.39,5,28.69V3.31c0-0.68,0.33-1.28,0.98-1.78C6.63,1.06,7.4,0.82,8.29,0.82
		c0.95,0,1.73,0.23,2.35,0.7c0.62,0.46,0.93,1.06,0.93,1.79v25.38c0,0.72-0.32,1.3-0.95,1.76c-0.63,0.49-1.41,0.73-2.34,0.73
		C7.38,31.18,6.61,30.93,5.98,30.45z"/>
	<path class="st0" d="M21.4,30.45c-0.65-0.47-0.98-1.06-0.98-1.76V3.31c0-0.68,0.33-1.28,0.98-1.78c0.65-0.47,1.42-0.71,2.31-0.71
		c0.95,0,1.73,0.23,2.35,0.7C26.69,1.98,27,2.58,27,3.31v25.38c0,0.72-0.32,1.3-0.95,1.76c-0.63,0.49-1.41,0.73-2.34,0.73
		C22.8,31.18,22.03,30.93,21.4,30.45z"/>
</g>
</svg>
