<svg width="1388" height="224" viewBox="0 0 1388 224" fill="none" xmlns="http://www.w3.org/2000/svg">
<path d="M0 12.4756C0 9.17155 1.08236 6.43717 3.24707 4.27246C5.52572 1.99382 8.31706 0.854492 11.6211 0.854492H74.8535C90.3483 0.854492 104.875 3.81673 118.433 9.74121C132.104 15.5518 144.01 23.8118 154.15 34.5215C164.404 45.1172 172.437 57.194 178.247 70.752C184.172 84.3099 187.134 98.8363 187.134 114.331C187.134 124.585 185.767 134.497 183.032 144.067C180.412 153.524 176.652 162.354 171.753 170.557C166.968 178.76 161.157 186.279 154.321 193.115C147.485 199.951 139.909 205.762 131.592 210.547C123.275 215.332 114.331 219.092 104.761 221.826C95.1904 224.447 85.2214 225.757 74.8535 225.757H11.6211C8.31706 225.757 5.52572 224.674 3.24707 222.51C1.08236 220.231 0 217.497 0 214.307V12.4756ZM23.4131 24.6094V202.002H75.1953C88.1836 202.002 100.033 199.552 110.742 194.653C121.566 189.754 130.851 183.26 138.599 175.171C146.46 167.082 152.555 157.796 156.885 147.314C161.214 136.719 163.379 125.781 163.379 114.502C163.379 103.223 161.214 92.2852 156.885 81.6895C152.555 70.9798 146.46 61.2956 138.599 52.6367C130.851 43.8639 121.566 37.028 110.742 32.1289C100.033 27.1159 88.2406 24.6094 75.3662 24.6094H23.4131ZM210.725 12.3047C210.725 9.00065 211.807 6.32324 213.972 4.27246C216.25 2.10775 218.928 1.02539 222.004 1.02539C225.194 1.02539 227.871 2.10775 230.036 4.27246C232.315 6.32324 233.454 9.00065 233.454 12.3047V214.478C233.454 217.668 232.315 220.345 230.036 222.51C227.871 224.674 225.194 225.757 222.004 225.757C218.928 225.757 216.25 224.674 213.972 222.51C211.807 220.345 210.725 217.668 210.725 214.478V12.3047ZM264.223 12.3047C264.223 9.00065 265.305 6.32324 267.47 4.27246C269.748 2.10775 272.426 1.02539 275.502 1.02539C278.692 1.02539 281.369 2.10775 283.534 4.27246C285.813 6.32324 286.952 9.00065 286.952 12.3047V214.478C286.952 217.668 285.813 220.345 283.534 222.51C281.369 224.674 278.692 225.757 275.502 225.757C272.426 225.757 269.748 224.674 267.47 222.51C265.305 220.345 264.223 217.668 264.223 214.478V12.3047ZM491.354 120.312C494.658 120.312 497.506 121.338 499.898 123.389C502.291 125.439 503.487 128.117 503.487 131.421V186.45C503.487 188.501 503.089 190.21 502.291 191.577C501.607 192.83 500.639 194.084 499.386 195.337C487.195 206.73 474.093 215.047 460.079 220.288C446.065 225.415 431.653 227.979 416.842 227.979C406.702 227.979 396.847 226.611 387.276 223.877C377.82 221.143 368.933 217.326 360.616 212.427C352.299 207.414 344.723 201.432 337.887 194.482C331.051 187.533 325.183 179.842 320.284 171.411C315.385 162.98 311.568 153.979 308.834 144.409C306.1 134.725 304.732 124.642 304.732 114.16C304.732 103.792 306.043 93.8232 308.663 84.2529C311.284 74.5687 314.986 65.5111 319.771 57.0801C324.671 48.5352 330.538 40.7878 337.374 33.8379C344.21 26.7741 351.843 20.7926 360.274 15.8936C368.705 10.8805 377.763 7.00684 387.447 4.27246C397.132 1.42415 407.328 0 418.038 0C433.419 0 447.945 2.84831 461.617 8.54492C475.403 14.1276 487.993 22.6156 499.386 34.0088C501.664 36.5153 502.804 39.1927 502.804 42.041C502.804 43.5221 502.462 44.9463 501.778 46.3135C501.095 47.6807 500.183 48.877 499.044 49.9023C498.019 50.9277 496.822 51.7822 495.455 52.4658C494.088 53.0355 492.664 53.3203 491.183 53.3203C488.22 53.3203 485.6 52.181 483.321 49.9023C474.093 41.0156 463.839 34.2936 452.56 29.7363C441.394 25.179 429.944 22.9004 418.209 22.9004C405.904 22.9004 394.283 25.236 383.346 29.9072C372.408 34.5785 362.781 41.0156 354.464 49.2188C346.147 57.3079 339.539 66.9352 334.64 78.1006C329.854 89.152 327.462 101.115 327.462 113.989C327.462 126.18 329.741 137.801 334.298 148.853C338.969 159.79 345.349 169.474 353.438 177.905C361.528 186.222 371.041 192.887 381.979 197.9C392.916 202.799 404.708 205.249 417.354 205.249C428.748 205.249 439.799 203.426 450.509 199.78C461.218 196.021 471.188 190.039 480.416 181.836V142.871H437.862C434.672 142.871 431.995 141.789 429.83 139.624C427.779 137.345 426.754 134.611 426.754 131.421C426.754 128.345 427.779 125.667 429.83 123.389C431.995 121.11 434.672 119.971 437.862 119.971L491.354 120.312ZM533.23 12.3047C533.23 9.00065 534.313 6.32324 536.478 4.27246C538.756 2.10775 541.434 1.02539 544.51 1.02539C547.7 1.02539 550.377 2.10775 552.542 4.27246C554.821 6.32324 555.96 9.00065 555.96 12.3047V214.478C555.96 217.668 554.821 220.345 552.542 222.51C550.377 224.674 547.7 225.757 544.51 225.757C541.434 225.757 538.756 224.674 536.478 222.51C534.313 220.345 533.23 217.668 533.23 214.478V12.3047ZM586.729 12.3047C586.729 9.00065 587.811 6.32324 589.976 4.27246C592.254 2.10775 594.932 1.02539 598.008 1.02539C601.198 1.02539 603.875 2.10775 606.04 4.27246C608.319 6.32324 609.458 9.00065 609.458 12.3047V214.478C609.458 217.668 608.319 220.345 606.04 222.51C603.875 224.674 601.198 225.757 598.008 225.757C594.932 225.757 592.254 224.674 589.976 222.51C587.811 220.345 586.729 217.668 586.729 214.478V12.3047ZM640.227 12.8174C640.227 9.51335 641.366 6.77897 643.645 4.61426C645.923 2.33561 648.658 1.19629 651.848 1.19629C655.152 1.19629 657.943 2.33561 660.222 4.61426C662.5 6.77897 663.64 9.51335 663.64 12.8174V109.375H780.705V12.8174C780.705 9.51335 781.787 6.77897 783.952 4.61426C786.231 2.33561 789.022 1.19629 792.326 1.19629C795.63 1.19629 798.422 2.33561 800.7 4.61426C803.093 6.77897 804.289 9.51335 804.289 12.8174V214.307C804.289 217.497 803.093 220.231 800.7 222.51C798.422 224.674 795.63 225.757 792.326 225.757C789.022 225.757 786.231 224.674 783.952 222.51C781.787 220.231 780.705 217.497 780.705 214.307V132.788H663.64V214.307C663.64 217.497 662.5 220.231 660.222 222.51C657.943 224.674 655.152 225.757 651.848 225.757C648.658 225.757 645.923 224.674 643.645 222.51C641.366 220.231 640.227 217.497 640.227 214.307V12.8174ZM936.742 227.979C926.26 227.979 916.12 226.611 906.322 223.877C896.638 221.143 887.58 217.326 879.149 212.427C870.832 207.528 863.256 201.603 856.42 194.653C849.584 187.703 843.716 180.013 838.817 171.582C833.918 163.151 830.102 154.093 827.367 144.409C824.747 134.725 823.437 124.642 823.437 114.16C823.437 103.678 824.747 93.5954 827.367 83.9111C830.102 74.2269 833.918 65.2262 838.817 56.9092C843.716 48.4782 849.584 40.8447 856.42 34.0088C863.256 27.0589 870.832 21.1344 879.149 16.2354C887.58 11.2223 896.638 7.4056 906.322 4.78516C916.12 2.05078 926.26 0.683594 936.742 0.683594C952.465 0.683594 967.219 3.64583 981.005 9.57031C994.791 15.4948 1006.81 23.641 1017.06 34.0088C1027.43 44.2627 1035.58 56.2826 1041.5 70.0684C1047.54 83.7402 1050.56 98.4375 1050.56 114.16C1050.56 124.642 1049.19 134.725 1046.46 144.409C1043.72 154.093 1039.91 163.151 1035.01 171.582C1030.11 180.013 1024.19 187.703 1017.24 194.653C1010.29 201.603 1002.6 207.528 994.164 212.427C985.733 217.326 976.675 221.143 966.991 223.877C957.307 226.611 947.224 227.979 936.742 227.979ZM936.913 205.078C949.446 205.078 961.181 202.743 972.118 198.071C983.17 193.286 992.797 186.792 1001 178.589C1009.2 170.386 1015.7 160.758 1020.48 149.707C1025.27 138.656 1027.66 126.807 1027.66 114.16C1027.66 101.628 1025.27 89.8926 1020.48 78.9551C1015.7 68.0176 1009.2 58.4473 1001 50.2441C992.797 42.041 983.17 35.6038 972.118 30.9326C961.181 26.1475 949.446 23.7549 936.913 23.7549C924.381 23.7549 912.589 26.1475 901.537 30.9326C890.486 35.6038 880.858 42.041 872.655 50.2441C864.566 58.4473 858.129 68.0176 853.344 78.9551C848.673 89.8926 846.337 101.628 846.337 114.16C846.337 126.807 848.673 138.656 853.344 149.707C858.129 160.758 864.566 170.386 872.655 178.589C880.858 186.792 890.486 193.286 901.537 198.071C912.589 202.743 924.381 205.078 936.913 205.078ZM1064.24 185.425C1063.67 184.285 1063.27 183.26 1063.04 182.349C1062.93 181.323 1062.87 180.355 1062.87 179.443C1062.87 176.139 1064.01 173.462 1066.29 171.411C1068.57 169.36 1071.02 168.335 1073.64 168.335C1077.4 168.335 1080.99 170.671 1084.41 175.342C1086.8 179.899 1089.82 184.058 1093.46 187.817C1097.22 191.463 1101.44 194.596 1106.11 197.217C1110.89 199.723 1116.02 201.717 1121.49 203.198C1126.96 204.565 1132.71 205.249 1138.75 205.249C1144.9 205.249 1151 204.338 1157.04 202.515C1163.19 200.578 1168.66 197.786 1173.44 194.141C1178.34 190.495 1182.27 185.938 1185.24 180.469C1188.31 175 1189.85 168.677 1189.85 161.499C1189.85 155.005 1188.31 149.536 1185.24 145.093C1182.27 140.649 1178.29 136.89 1173.27 133.813C1168.37 130.623 1162.79 127.946 1156.52 125.781C1150.37 123.503 1144.11 121.338 1137.73 119.287C1129.18 117.35 1120.81 114.844 1112.6 111.768C1104.4 108.691 1097.05 104.761 1090.56 99.9756C1084.18 95.1904 1078.99 89.4938 1075.01 82.8857C1071.13 76.1637 1069.2 68.3024 1069.2 59.3018C1069.2 50.0732 1071.19 41.8132 1075.18 34.5215C1079.16 27.2298 1084.41 21.0205 1090.9 15.8936C1097.39 10.7666 1104.69 6.83594 1112.77 4.10156C1120.98 1.36719 1129.29 0 1137.73 0C1144.56 0 1151.17 0.74056 1157.55 2.22168C1164.04 3.58887 1170.08 5.63965 1175.67 8.37402C1181.25 11.1084 1186.32 14.5264 1190.88 18.6279C1195.43 22.6156 1199.25 27.2868 1202.33 32.6416C1203.12 33.8949 1203.52 35.376 1203.52 37.085C1203.52 40.0472 1202.44 42.5537 1200.27 44.6045C1198.22 46.5413 1195.77 47.5098 1192.93 47.5098C1191.79 47.5098 1190.59 47.3389 1189.34 46.9971C1188.2 46.5413 1187 45.8577 1185.75 44.9463C1179.03 36.7432 1171.85 30.9896 1164.21 27.6855C1156.58 24.3815 1147.87 22.7295 1138.07 22.7295C1132.6 22.7295 1127.13 23.527 1121.66 25.1221C1116.19 26.7171 1111.24 29.0527 1106.79 32.1289C1102.46 35.2051 1098.93 39.0788 1096.2 43.75C1093.46 48.3073 1092.1 53.6621 1092.1 59.8145C1092.1 65.9668 1093.75 71.0938 1097.05 75.1953C1100.47 79.2969 1104.74 82.7718 1109.87 85.6201C1115 88.4684 1120.64 90.804 1126.79 92.627C1132.94 94.3359 1138.81 95.931 1144.39 97.4121C1153.05 100.146 1161.42 103.223 1169.51 106.641C1177.72 109.945 1184.95 114.046 1191.22 118.945C1197.6 123.73 1202.72 129.541 1206.6 136.377C1210.47 143.099 1212.41 151.188 1212.41 160.645C1212.41 170.785 1210.36 180.013 1206.26 188.33C1202.27 196.533 1196.86 203.597 1190.02 209.521C1183.18 215.332 1175.27 219.889 1166.27 223.193C1157.26 226.383 1147.81 227.979 1137.9 227.979C1129.58 227.979 1121.55 226.896 1113.8 224.731C1106.05 222.567 1098.93 219.548 1092.44 215.674C1085.94 211.8 1080.25 207.3 1075.35 202.173C1070.56 197.046 1066.86 191.463 1064.24 185.425ZM1294.62 23.584H1236.17C1233.09 23.584 1230.42 22.5016 1228.14 20.3369C1225.97 18.0583 1224.89 15.3239 1224.89 12.1338C1224.89 9.05762 1225.97 6.43717 1228.14 4.27246C1230.42 1.99382 1233.09 0.854492 1236.17 0.854492H1376.65C1379.84 0.854492 1382.52 1.99382 1384.68 4.27246C1386.85 6.55111 1387.93 9.22852 1387.93 12.3047C1387.93 15.6087 1386.85 18.3431 1384.68 20.5078C1382.52 22.5586 1379.84 23.584 1376.65 23.584H1316.83V215.503C1316.83 218.579 1315.75 221.257 1313.59 223.535C1311.42 225.7 1308.69 226.782 1305.38 226.782C1302.19 226.782 1299.57 225.7 1297.52 223.535C1295.59 221.257 1294.62 218.579 1294.62 215.503V23.584Z" fill="url(#paint0_linear_290_525)"/>
<defs>
<linearGradient id="paint0_linear_290_525" x1="688.201" y1="2.75684" x2="688.201" y2="225.757" gradientUnits="userSpaceOnUse">
<stop stop-color="#B1EBE0"/>
<stop offset="1" stop-color="#64857F" stop-opacity="0"/>
</linearGradient>
</defs>
</svg>
