<svg width="186" height="51" viewBox="0 0 186 51" fill="none" xmlns="http://www.w3.org/2000/svg">
<g clip-path="url(#clip0_146_70)">
<path d="M0.959766 27.32C0.499766 26.9 0.259766 26.32 0.259766 25.7V2.63999C0.259766 2.01999 0.499766 1.43999 0.959766 1.01999C1.37977 0.599988 1.97977 0.359988 2.57977 0.379988H10.1998C11.5398 0.379988 12.8798 0.619988 14.1398 1.09999C15.3398 1.55999 16.4398 2.25999 17.3798 3.15999C18.3198 4.09999 19.0598 5.23999 19.5398 6.47999C20.0598 7.81999 20.3398 9.23999 20.3198 10.68V17.88C20.3398 19.28 20.0798 20.66 19.5398 21.96C19.0398 23.18 18.2998 24.28 17.3598 25.2C16.4198 26.1 15.3198 26.8 14.1198 27.26C12.8598 27.74 11.5398 28 10.1798 27.98H2.59977C1.97977 28 1.37977 27.76 0.959766 27.32ZM10.1998 23.34C10.9198 23.34 11.6398 23.22 12.3398 23C12.9798 22.78 13.5598 22.42 14.0598 21.96C15.1198 20.98 15.6598 19.62 15.6398 17.88V10.66C15.6398 9.81999 15.4998 8.99999 15.2198 8.21999C14.9798 7.53999 14.5798 6.91999 14.0398 6.41999C13.5398 5.95999 12.9598 5.61999 12.3198 5.39999C11.6398 5.15999 10.9198 5.03999 10.1798 5.03999H4.89977V23.36H10.1998V23.34Z" fill="#1A776F"/>
<path d="M25.8198 27.5C25.3598 27.08 25.1198 26.5 25.1398 25.88V2.63999C25.1398 2.01999 25.3798 1.43999 25.8198 1.01999C26.7398 0.159992 28.1798 0.159992 29.1198 1.01999C29.5598 1.43999 29.7998 2.03999 29.7798 2.65999V25.9C29.7998 26.5 29.5598 27.1 29.1198 27.52C28.6798 27.96 28.0798 28.2 27.4598 28.18C26.8398 28.18 26.2598 27.94 25.8198 27.5Z" fill="#1A776F"/>
<path d="M51.9993 27.44C50.7793 26.94 49.6793 26.18 48.7793 25.24C47.8393 24.28 47.0993 23.14 46.5993 21.9C46.0793 20.58 45.8193 19.18 45.8193 17.74V10.8C45.8193 9.37999 46.0793 7.97999 46.5993 6.65999C47.0793 5.39999 47.8193 4.25999 48.7393 3.29999C49.6593 2.35999 50.7393 1.59999 51.9593 1.09999C53.2193 0.579992 54.5593 0.319992 55.9193 0.319992C57.9793 0.319992 59.7993 0.799992 61.3593 1.75999C62.5793 2.51999 63.6793 3.63999 64.6593 5.11999C64.9593 5.55999 65.1393 6.07999 65.1193 6.61999C65.1193 7.21999 64.8793 7.79999 64.4593 8.21999C64.2393 8.43999 63.9793 8.59999 63.6993 8.71999C63.3993 8.83999 63.0793 8.91999 62.7393 8.91999C62.4193 8.91999 62.0793 8.85999 61.7793 8.71999C61.4993 8.57999 61.2593 8.35999 61.0993 8.09999C60.8193 7.63999 60.5193 7.19999 60.1993 6.77999C59.9193 6.41999 59.5793 6.11999 59.2193 5.85999C58.4193 5.29999 57.3193 5.01999 55.9193 5.01999C55.1793 5.01999 54.4593 5.13999 53.7793 5.41999C53.1393 5.67999 52.5593 6.05999 52.0793 6.55999C51.5793 7.07999 51.1793 7.71999 50.9193 8.39999C50.6393 9.15999 50.4993 9.95999 50.5193 10.76V17.8C50.4993 18.6 50.6593 19.4 50.9393 20.16C51.1993 20.84 51.5993 21.48 52.1193 22C52.6193 22.5 53.1993 22.9 53.8593 23.14C54.5393 23.4 55.2793 23.54 56.0193 23.54C57.4193 23.54 58.5793 23.22 59.5193 22.58C59.9193 22.32 60.2993 21.98 60.5993 21.6C60.9593 21.18 61.2793 20.72 61.5593 20.26V17.34H59.1993C58.5793 17.36 57.9993 17.1 57.5993 16.66C57.1593 16.22 56.9193 15.62 56.9393 15C56.9393 14.38 57.1793 13.8 57.5993 13.36C58.0193 12.9 58.5993 12.66 59.1993 12.66L63.4993 12.7C64.1193 12.7 64.7193 12.94 65.1593 13.38C65.3793 13.6 65.5393 13.84 65.6593 14.12C65.7793 14.4 65.8393 14.68 65.8593 14.98V19.92C65.8593 20.24 65.8393 20.56 65.7993 20.88C65.7793 21.16 65.6993 21.44 65.5993 21.72C64.6593 23.8 63.3793 25.38 61.7393 26.46C60.9193 27.02 59.9993 27.44 59.0593 27.74C58.0793 28.04 57.0593 28.18 56.0393 28.18C54.6193 28.22 53.2593 27.96 51.9993 27.44Z" fill="#1A776F"/>
<path d="M71.4998 27.5C71.0398 27.08 70.7998 26.5 70.7998 25.88V2.63999C70.7998 2.01999 71.0398 1.43999 71.4998 1.01999C72.4198 0.159992 73.8598 0.159992 74.7998 1.01999C75.2398 1.43999 75.4798 2.03999 75.4598 2.65999V25.9C75.4798 26.5 75.2398 27.1 74.7798 27.52C74.3398 27.96 73.7398 28.2 73.1198 28.18C72.5198 28.18 71.9198 27.94 71.4998 27.5Z" fill="#1A776F"/>
<path d="M36.7202 27.5C36.2602 27.08 36.0202 26.5 36.0402 25.88V2.63999C36.0402 2.01999 36.2802 1.43999 36.7202 1.01999C37.6402 0.159992 39.0802 0.159992 40.0202 1.01999C40.4602 1.43999 40.7002 2.03999 40.6802 2.65999V25.9C40.7002 26.5 40.4602 27.1 40.0002 27.52C39.5602 27.96 38.9602 28.2 38.3602 28.18C37.7402 28.18 37.1402 27.94 36.7202 27.5Z" fill="#1A776F"/>
<path d="M83.24 27.5C82.78 27.08 82.54 26.5 82.54 25.88V2.63999C82.54 2.01999 82.78 1.43999 83.24 1.01999C84.16 0.159992 85.6 0.159992 86.54 1.01999C86.98 1.43999 87.22 2.03999 87.2 2.65999V25.9C87.22 26.5 86.98 27.1 86.54 27.52C86.1 27.96 85.5 28.2 84.88 28.18C84.26 28.18 83.66 27.94 83.24 27.5Z" fill="#1A776F"/>
<path d="M94.6996 27.6C94.3396 27.26 94.1596 26.8 94.1596 26.3V2.23999C94.1396 1.75999 94.3396 1.27999 94.6996 0.939993C95.4396 0.239993 96.5796 0.239993 97.3196 0.939993C97.6796 1.27999 97.8596 1.73999 97.8596 2.23999V13.28H110.26V2.23999C110.26 1.75999 110.46 1.27999 110.82 0.959993C111.18 0.619993 111.66 0.419993 112.14 0.419993C113.12 0.399993 113.94 1.17999 113.96 2.15999C113.96 2.17999 113.96 2.19999 113.96 2.21999V26.3C113.96 26.78 113.76 27.26 113.42 27.58C113.06 27.92 112.6 28.12 112.1 28.1C111.62 28.1 111.14 27.92 110.8 27.56C110.44 27.22 110.24 26.76 110.26 26.28V16.96H97.8596V26.3C97.8796 26.78 97.6796 27.26 97.3196 27.6C96.5796 28.3 95.4396 28.3 94.6996 27.6Z" fill="#1A776F"/>
<path d="M125.139 27.48C123.919 26.98 122.799 26.24 121.879 25.32C120.939 24.4 120.199 23.3 119.679 22.08C119.159 20.84 118.879 19.5 118.899 18.16V10.4C118.899 9.05999 119.159 7.71999 119.679 6.45999C120.719 4.01999 122.679 2.07999 125.139 1.07999C128.959 -0.480009 133.359 0.359992 136.339 3.21999C137.279 4.13999 138.019 5.23999 138.539 6.45999C139.059 7.69999 139.339 9.03999 139.339 10.38V18.12C139.339 19.46 139.079 20.8 138.559 22.04C137.519 24.5 135.539 26.44 133.079 27.44C130.519 28.48 127.679 28.48 125.139 27.48ZM131.659 24.02C132.439 23.72 133.139 23.26 133.739 22.7C134.339 22.14 134.819 21.44 135.139 20.68C135.479 19.88 135.639 19.02 135.639 18.16V10.38C135.639 9.51999 135.479 8.65999 135.139 7.87999C134.819 7.11999 134.339 6.41999 133.739 5.85999C133.139 5.27999 132.439 4.83999 131.659 4.53999C130.019 3.91999 128.219 3.91999 126.579 4.53999C125.799 4.83999 125.099 5.29999 124.499 5.85999C123.899 6.43999 123.419 7.11999 123.099 7.87999C122.759 8.67999 122.599 9.51999 122.599 10.38V18.16C122.599 19.02 122.759 19.88 123.099 20.68C123.419 21.44 123.899 22.14 124.499 22.7C125.099 23.28 125.799 23.72 126.579 24.02C128.219 24.66 130.019 24.66 131.659 24.02Z" fill="#1A776F"/>
<path d="M145.08 27.46C144.68 27.08 144.48 26.56 144.5 26.02C144.5 24.9 145.22 24.32 146.66 24.32H154.72C155.2 24.3 155.68 24.18 156.1 23.96C156.56 23.74 156.98 23.42 157.34 23.04C157.72 22.64 158.02 22.18 158.22 21.68C158.44 21.14 158.54 20.56 158.54 19.98C158.56 18.82 158.1 17.7 157.24 16.9C156.88 16.54 156.44 16.26 155.96 16.08C155.5 15.9 155 15.8 154.5 15.8H151.14C150.1 15.8 149.04 15.62 148.06 15.26C147.14 14.92 146.28 14.4 145.56 13.74C144.82 13.08 144.24 12.28 143.84 11.36C143.44 10.42 143.22 9.41999 143.24 8.39999C143.24 7.33999 143.44 6.27999 143.86 5.29999C144.24 4.33999 144.82 3.45999 145.56 2.73999C147.04 1.25999 149.04 0.439987 151.14 0.439987H158.56C159.24 0.439987 159.78 0.599987 160.16 0.899987C160.56 1.21999 160.76 1.71999 160.74 2.21999C160.78 2.75999 160.56 3.27999 160.16 3.63999C159.78 3.97999 159.24 4.13999 158.56 4.13999H150.38C149.48 4.19999 148.62 4.59999 148 5.25999C147.64 5.63999 147.38 6.05999 147.2 6.53999C147 7.03999 146.9 7.57999 146.9 8.11999C146.9 8.65999 146.98 9.19999 147.2 9.69999C147.4 10.18 147.68 10.62 148.04 10.98C148.36 11.34 148.76 11.62 149.2 11.82C149.62 12 150.06 12.1 150.52 12.12H154.08C155.14 12.12 156.2 12.3 157.2 12.68C158.16 13.04 159.06 13.56 159.82 14.26C160.58 14.94 161.2 15.78 161.6 16.7C162.02 17.66 162.24 18.7 162.22 19.76C162.22 21.92 161.36 24 159.84 25.52C159.08 26.28 158.2 26.88 157.22 27.32C156.24 27.76 155.18 27.98 154.1 27.96H146.64C146.08 28.02 145.52 27.82 145.08 27.46Z" fill="#1A776F"/>
<path d="M173.28 27.62C172.94 27.28 172.76 26.8 172.76 26.32V4.09999H166.24C165.74 4.11999 165.28 3.91999 164.94 3.55999C164.6 3.21999 164.4 2.73999 164.4 2.25999C164.38 1.75999 164.58 1.29999 164.94 0.959991C165.28 0.619991 165.76 0.419991 166.24 0.419991H183C183.5 0.419991 183.96 0.619991 184.32 0.959991C184.66 1.31999 184.86 1.77999 184.86 2.27999C184.88 2.77999 184.68 3.23999 184.32 3.57999C183.96 3.91999 183.5 4.09999 183 4.09999H176.4V26.32C176.42 26.82 176.22 27.28 175.86 27.62C175.52 27.98 175.04 28.16 174.54 28.16C174.06 28.16 173.6 27.96 173.28 27.62Z" fill="#1A776F"/>
<path d="M0.679414 47.76C0.499414 47.58 0.399414 47.34 0.399414 47.06V34.86C0.399414 34.72 0.419414 34.62 0.439414 34.54L0.499414 34.4C0.579414 34.24 0.699414 34.12 0.839414 34.02C0.979414 33.92 1.15941 33.88 1.33941 33.86H6.55941C7.07941 33.86 7.59941 33.96 8.05941 34.18C8.53941 34.38 8.95941 34.68 9.31941 35.04C10.0794 35.82 10.4594 36.8 10.4594 37.96C10.4594 38.52 10.3394 39.04 10.1194 39.52C9.89941 40 9.59941 40.44 9.19941 40.8C9.67941 41.2 10.0394 41.68 10.2994 42.22C10.5594 42.76 10.6994 43.36 10.6994 43.98C10.6994 44.52 10.5994 45.04 10.3794 45.54C10.1594 46.04 9.87941 46.48 9.49941 46.84C9.11941 47.22 8.69941 47.52 8.19941 47.72C7.69941 47.94 7.17941 48.04 6.63941 48.04H1.35941C1.09941 48.04 0.859414 47.94 0.679414 47.76ZM6.65941 39.88C6.91941 39.88 7.15941 39.82 7.39941 39.72C7.63941 39.62 7.83941 39.48 8.01941 39.3C8.19941 39.12 8.31941 38.92 8.41941 38.7C8.51941 38.48 8.55941 38.22 8.55941 37.98C8.55941 37.68 8.49941 37.38 8.37941 37.1C8.25941 36.82 8.11941 36.58 7.91941 36.4C7.71941 36.22 7.49941 36.1 7.23941 36C6.97941 35.9 6.69941 35.86 6.43941 35.86H2.35941V39.9H6.65941V39.88ZM6.69941 46.08C6.97941 46.08 7.23941 46.02 7.47941 45.92C7.73941 45.8 7.95941 45.66 8.13941 45.46C8.31941 45.26 8.47941 45.04 8.57941 44.78C8.67941 44.52 8.73941 44.26 8.73941 43.98C8.73941 43.7 8.67941 43.44 8.57941 43.18C8.47941 42.92 8.33941 42.68 8.13941 42.48C7.93941 42.28 7.73941 42.12 7.47941 42C7.21941 41.88 6.95941 41.82 6.69941 41.82H2.35941V46.08H6.69941Z" fill="#B1EBE0"/>
<path d="M13.2595 47.78C13.0795 47.6 12.9795 47.38 12.9795 47.12V34.84C12.9795 34.58 13.0795 34.36 13.2595 34.16C13.4395 33.98 13.6595 33.88 13.9395 33.88H17.7995C18.4995 33.88 19.1595 34 19.7995 34.26C20.4195 34.52 20.9795 34.86 21.4595 35.32C21.9395 35.78 22.2995 36.32 22.5795 36.96C22.8395 37.6 22.9795 38.28 22.9795 38.98C22.9795 39.56 22.8795 40.12 22.6995 40.64C22.5195 41.16 22.2395 41.64 21.8995 42.06C21.5595 42.48 21.1595 42.84 20.6795 43.14C20.2195 43.44 19.7195 43.66 19.1595 43.78L21.7795 46.38C21.9595 46.58 22.0595 46.82 22.0595 47.06C22.0595 47.18 22.0395 47.3 21.9795 47.42C21.9195 47.54 21.8595 47.64 21.7795 47.72C21.5795 47.9 21.3595 48 21.0995 48C20.8195 48 20.6195 47.9 20.4395 47.72L16.6395 43.94H14.8595V47.08C14.8595 47.34 14.7595 47.56 14.5795 47.74C14.3995 47.92 14.1795 48 13.8995 48C13.6595 48.04 13.4395 47.96 13.2595 47.78ZM17.8195 42.08C18.2795 42.08 18.7195 42 19.1195 41.84C19.5195 41.68 19.8595 41.46 20.1595 41.18C20.4595 40.9 20.6795 40.56 20.8395 40.2C20.9995 39.82 21.0795 39.44 21.0795 39.02C21.0795 38.6 20.9995 38.18 20.8395 37.78C20.6795 37.38 20.4395 37.04 20.1595 36.74C19.8595 36.44 19.5195 36.22 19.1195 36.06C18.7195 35.9 18.2995 35.82 17.8595 35.82H14.8595V42.1H17.8195V42.08Z" fill="#B1EBE0"/>
<path d="M25.28 47.82C25.1 47.64 25 47.42 25 47.14V39.18C25 38.46 25.12 37.78 25.34 37.14C25.56 36.5 25.88 35.94 26.32 35.46C26.76 34.96 27.3 34.58 27.92 34.3C28.54 34.02 29.24 33.88 30.02 33.88C30.82 33.88 31.54 34.02 32.2 34.3C32.84 34.58 33.4 34.96 33.86 35.48C34.3 35.98 34.64 36.56 34.88 37.24C35.12 37.9 35.24 38.62 35.24 39.4V47.18C35.24 47.44 35.14 47.68 34.96 47.86C34.76 48.04 34.54 48.12 34.28 48.12C34 48.12 33.76 48.02 33.58 47.84C33.4 47.66 33.3 47.44 33.3 47.16V43.96H27V47.16C27 47.44 26.9 47.66 26.72 47.84C26.54 48.02 26.3 48.12 26.02 48.12C25.68 48.1 25.46 48.02 25.28 47.82ZM33.26 42V39.4C33.26 38.88 33.18 38.4 33.04 37.96C32.88 37.52 32.68 37.14 32.38 36.8C32.1 36.48 31.76 36.24 31.36 36.06C30.96 35.88 30.52 35.8 30.06 35.8C29.12 35.8 28.38 36.12 27.8 36.74C27.52 37.04 27.32 37.42 27.16 37.86C27.02 38.3 26.94 38.78 26.94 39.32V42H33.26Z" fill="#B1EBE0"/>
<path d="M38.24 47.82C38.06 47.64 37.96 47.42 37.96 47.14V39.18C37.96 38.46 38.08 37.78 38.3 37.14C38.52 36.5 38.84 35.94 39.28 35.46C39.72 34.96 40.26 34.58 40.88 34.3C41.5 34.02 42.2 33.88 42.98 33.88C43.78 33.88 44.5 34.02 45.16 34.3C45.8 34.58 46.36 34.96 46.82 35.48C47.26 35.98 47.6 36.56 47.84 37.24C48.08 37.9 48.2 38.62 48.2 39.4V47.18C48.2 47.46 48.1 47.68 47.92 47.86C47.74 48.04 47.5 48.14 47.22 48.14C46.94 48.14 46.72 48.04 46.52 47.86C46.32 47.68 46.24 47.46 46.24 47.18V39.4C46.24 38.88 46.16 38.4 46.02 37.96C45.86 37.52 45.66 37.14 45.36 36.8C45.08 36.48 44.74 36.24 44.34 36.06C43.94 35.88 43.5 35.8 43.04 35.8C42.58 35.8 42.16 35.88 41.76 36.04C41.38 36.2 41.04 36.44 40.76 36.74C40.48 37.04 40.26 37.42 40.12 37.86C39.98 38.3 39.9 38.78 39.9 39.32V47.16C39.9 47.44 39.8 47.66 39.62 47.84C39.44 48.02 39.2 48.12 38.92 48.12C38.64 48.12 38.42 48.02 38.24 47.82Z" fill="#B1EBE0"/>
<path d="M51.0798 47.76C50.8998 47.58 50.7998 47.36 50.7998 47.1V34.82C50.7998 34.56 50.8998 34.34 51.0798 34.16C51.2598 33.98 51.4798 33.88 51.7398 33.88H55.7598C56.4798 33.88 57.1598 34 57.7798 34.24C58.3998 34.48 58.9598 34.84 59.4198 35.3C59.8798 35.76 60.2398 36.3 60.4998 36.94C60.7598 37.58 60.8798 38.28 60.8798 39V42.96C60.8798 43.68 60.7598 44.36 60.4998 44.98C60.2398 45.6 59.8798 46.14 59.4198 46.6C58.9598 47.06 58.3998 47.4 57.7798 47.66C57.1598 47.9 56.4798 48.04 55.7598 48.04H51.7398C51.4798 48.04 51.2598 47.94 51.0798 47.76ZM55.7398 46.16C56.2198 46.16 56.6398 46.08 57.0398 45.94C57.4398 45.8 57.7798 45.58 58.0598 45.3C58.3398 45.02 58.5598 44.68 58.7198 44.3C58.8798 43.92 58.9598 43.48 58.9598 43.02V39.02C58.9598 38.56 58.8798 38.12 58.7198 37.7C58.5598 37.28 58.3398 36.94 58.0598 36.66C57.7798 36.38 57.4398 36.16 57.0398 36.02C56.6398 35.88 56.1998 35.8 55.7398 35.8H52.6798V46.16H55.7398Z" fill="#B1EBE0"/>
<path d="M68.4595 47.76C68.2595 47.58 68.1595 47.34 68.1595 47.02C68.1595 46.44 68.5195 46.16 69.2595 46.16H73.3995C73.6395 46.16 73.8795 46.1 74.0995 45.98C74.3395 45.86 74.5395 45.7 74.7395 45.5C74.9395 45.3 75.0795 45.06 75.1995 44.8C75.2995 44.54 75.3595 44.24 75.3595 43.92C75.3595 43.3 75.1395 42.78 74.6995 42.34C74.4995 42.16 74.2795 42.02 74.0395 41.92C73.7995 41.82 73.5395 41.78 73.2995 41.78H71.5795C71.0195 41.78 70.4995 41.68 69.9995 41.5C69.4995 41.32 69.0795 41.06 68.7195 40.72C68.3395 40.38 68.0395 39.98 67.8395 39.5C67.6395 39.04 67.5195 38.52 67.5195 37.98C67.5195 37.42 67.6195 36.9 67.8395 36.38C68.0595 35.86 68.3395 35.44 68.7195 35.06C69.0995 34.68 69.5195 34.4 70.0195 34.2C70.5195 34 71.0395 33.88 71.5795 33.88H75.3795C75.7395 33.88 75.9995 33.96 76.1995 34.12C76.3995 34.28 76.4995 34.5 76.4995 34.8C76.4995 35.12 76.3995 35.36 76.1995 35.52C75.9995 35.68 75.7195 35.78 75.3795 35.78H71.1795C70.6995 35.82 70.2995 36 69.9595 36.36C69.7795 36.54 69.6595 36.76 69.5595 37.02C69.4595 37.28 69.3995 37.56 69.3995 37.82C69.3995 38.12 69.4595 38.38 69.5595 38.62C69.6595 38.86 69.7995 39.08 69.9995 39.28C70.1795 39.46 70.3595 39.6 70.5995 39.7C70.8195 39.8 71.0395 39.86 71.2795 39.86H73.0995C73.6595 39.86 74.1995 39.96 74.6995 40.14C75.1995 40.32 75.6595 40.6 76.0395 40.94C76.4395 41.3 76.7395 41.72 76.9595 42.2C77.1795 42.68 77.2795 43.2 77.2795 43.76C77.2795 44.32 77.1795 44.86 76.9595 45.38C76.7395 45.9 76.4395 46.34 76.0595 46.72C75.6595 47.12 75.2195 47.42 74.7195 47.64C74.2195 47.86 73.6795 47.98 73.1195 47.98H69.2995C68.9195 48.04 68.6595 47.94 68.4595 47.76Z" fill="#B1EBE0"/>
<path d="M82.4397 47.78C81.7997 47.52 81.2397 47.14 80.7597 46.66C80.2797 46.18 79.8997 45.62 79.6197 45C79.3397 44.38 79.2197 43.7 79.2197 42.98V39.02C79.2197 38.3 79.3597 37.64 79.6197 37C79.8797 36.38 80.2597 35.82 80.7597 35.34C81.2397 34.86 81.7997 34.5 82.4397 34.24C83.0797 33.98 83.7597 33.84 84.4797 33.84C85.1997 33.84 85.8797 33.98 86.4997 34.24C87.1397 34.5 87.6997 34.86 88.1797 35.34C88.6597 35.82 89.0397 36.38 89.3197 37C89.5797 37.62 89.7197 38.3 89.7197 39.02V42.98C89.7197 43.7 89.5797 44.36 89.3197 45C89.0597 45.64 88.6797 46.18 88.1797 46.66C87.6997 47.14 87.1397 47.5 86.4997 47.78C85.8597 48.04 85.1797 48.18 84.4797 48.18C83.7597 48.16 83.0797 48.04 82.4397 47.78ZM85.7797 46C86.1797 45.84 86.5397 45.62 86.8397 45.32C87.1397 45.02 87.3797 44.68 87.5597 44.28C87.7197 43.88 87.8197 43.46 87.8197 42.98V38.98C87.8197 38.52 87.7397 38.1 87.5597 37.7C87.3997 37.3 87.1597 36.96 86.8397 36.66C86.5397 36.36 86.1797 36.14 85.7797 35.98C85.3797 35.82 84.9397 35.74 84.4797 35.74C84.0197 35.74 83.5797 35.82 83.1797 35.98C82.7797 36.14 82.4197 36.36 82.1197 36.66C81.8197 36.96 81.5797 37.3 81.3997 37.7C81.2397 38.1 81.1397 38.52 81.1397 38.98V42.98C81.1397 43.44 81.2197 43.88 81.3997 44.28C81.5597 44.68 81.7997 45.02 82.1197 45.32C82.4197 45.62 82.7797 45.84 83.1797 46C83.5797 46.16 84.0197 46.24 84.4797 46.24C84.9397 46.24 85.3797 46.16 85.7797 46Z" fill="#B1EBE0"/>
<path d="M95.2794 47.74C94.6594 47.46 94.1194 47.08 93.6794 46.58C93.2594 46.1 92.9194 45.54 92.6994 44.9C92.4794 44.26 92.3594 43.58 92.3594 42.86V34.86C92.3594 34.58 92.4594 34.36 92.6394 34.18C92.8194 34 93.0594 33.9 93.3194 33.9C93.5994 33.9 93.8394 34 94.0194 34.18C94.1994 34.36 94.2994 34.6 94.2994 34.86V42.74C94.2994 43.28 94.3794 43.76 94.5194 44.2C94.6594 44.64 94.8794 45 95.1594 45.3C95.7194 45.92 96.4794 46.24 97.4194 46.24C97.8994 46.24 98.3194 46.16 98.7194 45.98C99.1194 45.8 99.4594 45.56 99.7394 45.24C100.019 44.92 100.239 44.54 100.399 44.1C100.559 43.66 100.619 43.18 100.619 42.66V34.88C100.619 34.6 100.719 34.38 100.899 34.2C101.079 34.02 101.319 33.92 101.599 33.92C101.859 33.92 102.079 34.02 102.279 34.2C102.479 34.4 102.559 34.62 102.559 34.88V42.68C102.559 43.46 102.439 44.18 102.199 44.84C101.959 45.5 101.619 46.08 101.179 46.58C100.719 47.08 100.159 47.48 99.5194 47.76C98.8794 48.04 98.1394 48.18 97.3394 48.18C96.5994 48.16 95.8994 48.02 95.2794 47.74Z" fill="#B1EBE0"/>
<path d="M106.18 48.02H106.16C105.94 47.98 105.74 47.88 105.6 47.7C105.44 47.52 105.38 47.32 105.38 47.08V34.8C105.38 34.52 105.48 34.3 105.66 34.12C105.84 33.94 106.06 33.86 106.34 33.86C106.6 33.86 106.82 33.94 107.02 34.12C107.22 34.3 107.3 34.52 107.3 34.8V46.12L113.26 46.14C113.52 46.14 113.74 46.22 113.92 46.4C114.1 46.58 114.18 46.8 114.18 47.06C114.18 47.34 114.1 47.56 113.92 47.74C113.74 47.92 113.52 48 113.26 48L106.18 48.02C106.18 48.04 106.18 48.04 106.18 48.02Z" fill="#B1EBE0"/>
<path d="M116.34 50.56C116.16 50.38 116.06 50.14 116.06 49.88V46.64C116.06 46.36 116.16 46.12 116.34 45.94C116.52 45.76 116.74 45.66 117.02 45.66C117.3 45.66 117.52 45.76 117.7 45.94C117.88 46.12 117.96 46.36 117.96 46.64V49.88C117.96 50.16 117.88 50.4 117.7 50.58C117.52 50.76 117.3 50.86 117.02 50.86C116.74 50.84 116.52 50.76 116.34 50.56Z" fill="#B1EBE0"/>
<path d="M126.02 47.84C125.84 47.66 125.76 47.44 125.76 47.18V34.82C125.76 34.6 125.84 34.38 125.98 34.2C126.16 34 126.4 33.9 126.7 33.9H133.58C133.84 33.9 134.06 34 134.24 34.18C134.42 34.36 134.5 34.58 134.5 34.86C134.5 35.14 134.42 35.36 134.24 35.56C134.06 35.74 133.84 35.84 133.56 35.84H127.62V40.64H131.8C132.08 40.64 132.3 40.74 132.48 40.92C132.66 41.1 132.76 41.32 132.76 41.6C132.76 41.86 132.66 42.08 132.48 42.24C132.3 42.42 132.08 42.5 131.8 42.5H127.64V47.22C127.64 47.5 127.54 47.72 127.36 47.9C127.18 48.08 126.94 48.16 126.68 48.16C126.44 48.12 126.2 48.02 126.02 47.84Z" fill="#B1EBE0"/>
<path d="M138.079 47.78C137.439 47.52 136.879 47.14 136.399 46.66C135.919 46.18 135.539 45.62 135.259 45C134.979 44.38 134.859 43.7 134.859 42.98V39.02C134.859 38.3 134.999 37.64 135.259 37C135.519 36.38 135.899 35.82 136.399 35.34C136.879 34.86 137.439 34.5 138.079 34.24C138.719 33.98 139.399 33.84 140.119 33.84C140.839 33.84 141.519 33.98 142.139 34.24C142.779 34.5 143.339 34.86 143.819 35.34C144.299 35.82 144.679 36.38 144.959 37C145.219 37.62 145.359 38.3 145.359 39.02V42.98C145.359 43.7 145.219 44.36 144.959 45C144.699 45.64 144.319 46.18 143.819 46.66C143.339 47.14 142.779 47.5 142.139 47.78C141.499 48.04 140.819 48.18 140.119 48.18C139.379 48.16 138.719 48.04 138.079 47.78ZM141.419 46C141.819 45.84 142.179 45.62 142.479 45.32C142.779 45.02 143.019 44.68 143.199 44.28C143.359 43.88 143.459 43.46 143.459 42.98V38.98C143.459 38.52 143.379 38.1 143.199 37.7C143.039 37.3 142.799 36.96 142.479 36.66C142.159 36.36 141.819 36.14 141.419 35.98C141.019 35.82 140.579 35.74 140.119 35.74C139.659 35.74 139.219 35.82 138.819 35.98C138.419 36.14 138.059 36.36 137.759 36.66C137.459 36.96 137.219 37.3 137.039 37.7C136.879 38.1 136.779 38.52 136.779 38.98V42.98C136.779 43.44 136.859 43.88 137.039 44.28C137.199 44.68 137.439 45.02 137.759 45.32C138.059 45.62 138.419 45.84 138.819 46C139.219 46.16 139.659 46.24 140.119 46.24C140.579 46.24 141.019 46.16 141.419 46Z" fill="#B1EBE0"/>
<path d="M150.92 47.74C150.3 47.46 149.76 47.08 149.32 46.58C148.9 46.1 148.56 45.54 148.34 44.9C148.12 44.26 148 43.58 148 42.86V34.86C148 34.58 148.1 34.36 148.28 34.18C148.46 34 148.7 33.9 148.96 33.9C149.24 33.9 149.48 34 149.66 34.18C149.84 34.36 149.94 34.6 149.94 34.86V42.74C149.94 43.28 150.02 43.76 150.16 44.2C150.3 44.64 150.52 45 150.8 45.3C151.36 45.92 152.12 46.24 153.06 46.24C153.54 46.24 153.96 46.16 154.36 45.98C154.76 45.8 155.1 45.56 155.38 45.24C155.66 44.92 155.88 44.54 156.04 44.1C156.2 43.66 156.26 43.18 156.26 42.66V34.88C156.26 34.6 156.36 34.38 156.54 34.2C156.72 34.02 156.96 33.92 157.24 33.92C157.5 33.92 157.72 34.02 157.92 34.2C158.12 34.4 158.2 34.62 158.2 34.88V42.68C158.2 43.46 158.08 44.18 157.84 44.84C157.6 45.5 157.26 46.08 156.82 46.58C156.36 47.08 155.8 47.48 155.16 47.76C154.52 48.04 153.78 48.18 152.98 48.18C152.24 48.16 151.54 48.02 150.92 47.74Z" fill="#B1EBE0"/>
<path d="M161.24 47.82C161.06 47.64 160.96 47.42 160.96 47.14V39.18C160.96 38.46 161.08 37.78 161.3 37.14C161.52 36.5 161.84 35.94 162.28 35.46C162.72 34.96 163.26 34.58 163.88 34.3C164.5 34.02 165.2 33.88 165.98 33.88C166.78 33.88 167.5 34.02 168.16 34.3C168.8 34.58 169.36 34.96 169.82 35.48C170.26 35.98 170.6 36.56 170.84 37.24C171.08 37.9 171.2 38.62 171.2 39.4V47.18C171.2 47.46 171.1 47.68 170.92 47.86C170.74 48.04 170.5 48.14 170.22 48.14C169.94 48.14 169.72 48.04 169.52 47.86C169.32 47.68 169.24 47.46 169.24 47.18V39.4C169.24 38.88 169.16 38.4 169.02 37.96C168.86 37.52 168.66 37.14 168.36 36.8C168.08 36.48 167.74 36.24 167.34 36.06C166.94 35.88 166.5 35.8 166.04 35.8C165.58 35.8 165.16 35.88 164.76 36.04C164.38 36.2 164.04 36.44 163.76 36.74C163.48 37.04 163.26 37.42 163.12 37.86C162.98 38.3 162.9 38.78 162.9 39.32V47.16C162.9 47.44 162.8 47.66 162.62 47.84C162.44 48.02 162.2 48.12 161.92 48.12C161.64 48.12 161.44 48.02 161.24 47.82Z" fill="#B1EBE0"/>
<path d="M174.08 47.76C173.9 47.58 173.8 47.36 173.8 47.1V34.82C173.8 34.56 173.9 34.34 174.08 34.16C174.26 33.98 174.48 33.88 174.74 33.88H178.76C179.48 33.88 180.16 34 180.78 34.24C181.4 34.48 181.96 34.84 182.42 35.3C182.88 35.76 183.24 36.3 183.5 36.94C183.76 37.58 183.88 38.28 183.88 39V42.96C183.88 43.68 183.76 44.36 183.5 44.98C183.24 45.6 182.88 46.14 182.42 46.6C181.96 47.06 181.4 47.4 180.78 47.66C180.16 47.9 179.48 48.04 178.76 48.04H174.74C174.5 48.04 174.26 47.94 174.08 47.76ZM178.76 46.16C179.24 46.16 179.66 46.08 180.06 45.94C180.46 45.8 180.8 45.58 181.08 45.3C181.36 45.02 181.58 44.68 181.74 44.3C181.9 43.92 181.98 43.48 181.98 43.02V39.02C181.98 38.56 181.9 38.12 181.74 37.7C181.58 37.28 181.36 36.94 181.08 36.66C180.8 36.38 180.46 36.16 180.06 36.02C179.66 35.88 179.22 35.8 178.76 35.8H175.7V46.16H178.76Z" fill="#B1EBE0"/>
</g>
<defs>
<clipPath id="clip0_146_70">
<rect width="185.06" height="50.98" fill="white"/>
</clipPath>
</defs>
</svg>
